<?xml version="1.0" encoding="utf-8"?>
<!-- Generator: Adobe Illustrator 21.1.0, SVG Export Plug-In . SVG Version: 6.00 Build 0)  -->
<svg version="1.1" id="Layer_1" xmlns="http://www.w3.org/2000/svg" xmlns:xlink="http://www.w3.org/1999/xlink" x="0px" y="0px"
	 viewBox="0 0 1440 792" style="enable-background:new 0 0 1440 792;" xml:space="preserve">
<style type="text/css">
	.st0{fill:#303030;}
	.st1{fill:#0A0A0A;}
	.st2{fill:#454545;}
	.st3{fill:#0F0F0F;}
	.st4{fill:#434343;}
	.st5{fill:#0D0D0D;}
	.st6{fill:#1C1C1C;}
	.st7{fill:#0B0B0B;}
	.st8{fill:#424242;}
	.st9{fill:#414141;}
	.st10{fill:#161616;}
	.st11{fill:#3E3E3E;}
	.st12{fill:#1A1A1A;}
	.st13{fill:#313131;}
	.st14{fill:#383838;}
	.st15{fill:#393939;}
	.st16{fill:#363636;}
	.st17{fill:#2B2B2B;}
	.st18{fill:#070707;}
	.st19{fill:#494949;}
	.st20{fill:#2E2E2E;}
	.st21{fill:#232323;}
	.st22{fill:#404040;}
	.st23{fill:#2D2D2D;}
	.st24{fill:#2A2A2A;}
	.st25{fill:#242424;}
	.st26{fill:#2F2F2F;}
	.st27{fill:#202020;}
	.st28{fill:#444444;}
	.st29{fill:#191919;}
	.st30{fill:#272727;}
	.st31{fill:#353535;}
	.st32{fill:#3C3C3C;}
	.st33{fill:#080808;}
</style>
<g>
	<path class="st0" d="M1273,626.8c-0.4,4.5-7.3,6.8-6.7,11.2c0.4,2.9,3.8,4.3,5.8,6.4c2.3,2.5,2.6,6.3,1.9,9.5
		c-0.8,3.3-2.5,6.3-4,9.3c-2.5,4.9-4.5,10.1-5.9,15.4c-1.1,3.8-1.8,8.2,0.1,11.7c1.9,3.4,5.9,5,9.6,6.2c12.4,3.8,25.6,5,38.5,3.5
		c4.6-0.5,9.7-1.8,11.9-5.9c2.4-4.5,0-9.9-1.8-14.6c-5.2-13.2-6-28.1-2.4-41.9c0.3-1.2,0.7-2.4,1.7-3.2c0.7-0.6,1.6-0.8,2.5-0.8
		c5.3,0,8.4,6.5,7.7,11.7c-0.7,5.3-3.6,9.9-4.8,15.1c-1.3,5.9-0.1,12,1.1,17.9c0.5,2.3,0.9,4.7,2.4,6.5c2.1,2.7,5.7,3.6,9,4.3
		c8.6,1.8,17.4,3.3,26.2,2.3c8.7-1,17.5-4.8,22.8-11.8c1.5-1.9,2.7-4.1,3.1-6.5c0.9-4.6-1-9.3-2.3-13.8c-1.9-6.8-2.4-14-2.8-21.1
		c-0.5-8.5-1-16.9-1.6-25.4c-0.1-1.6-0.2-3.3,0.7-4.7c1.1-1.9,3.5-2.4,5.7-2.8c2.8-0.5,5.6-1,8.3-0.2c2.7,0.8,5.1,3.4,4.6,6.2
		c-0.4,2.1-2.2,3.7-3.7,5.3c-1.5,1.6-2.7,3.9-1.7,5.9c0.5,1,1.5,1.6,2.4,2.3c3.5,2.7,5.4,7.5,4.6,11.9c-0.6,3.3-2.4,6.2-3.9,9.2
		c-4.4,9.2-4.7,19.9-4.1,30.1c0.3,5.3,0.8,10.6,0.1,15.8c-0.7,5.2-2.7,10.5-6.7,14c-4.9,4.3-11.9,5.2-18.4,6
		c-28.4,3.5-56.6,9.1-84.3,16.7c-5.9,1.6-12.2,3.3-18,1.4c-6.2-2.1-10.5-8.1-12.3-14.4c-2.7-9.1-1.2-18.8-0.4-28.3
		c1.1-13.3,0.7-26.8-1.2-40c-0.9-6-2.8-11.9-3.8-17.8c-0.9-5.4,1.3-10.7-2.7-15.4c-3-3.5-7.9-4.3-12.5-4.9c-0.5-0.1-1.1-0.1-1.6-0.2
		c-5.9-0.7-12.1-1.9-18.1-2.1c-6-0.2-14.2-0.2-20.1,1.3c-5,1.3-8.6,7.9-9.9,12.4c-1.5,5.5-1.1,11.4,0.6,16.9
		c1.3,4.2,3.2,8.2,6.3,11.3c1.3,1.3,2.7,2.4,3.7,3.8c2,2.8,2.4,6.4,2.3,9.8c-0.1,2.5-0.4,5-1.7,7.1s-3.7,3.6-6.2,3.2
		c-3.7-0.7-5.3-5.1-6.1-8.8c-1.7-7.8-3.3-15.5-4.9-23.3c-1.4-7.1-3.1-14.7-8.3-19.7c-12.2-11.6-31.2-5-45.7-3
		c-17.8,2.4-35.6,4.6-53.6,5.5c-5.4,0.3-10.9,0.5-16.1-0.9c-1.2-5,2.8-10,7.5-12s10.1-1.8,15.2-1.9c17.9-0.4,35.4-4.9,53.2-7.4
		c11.1-1.6,22.4-2.3,33.6-3.4c10.5-1,21-3.4,31.4-4.1c22.8-1.5,45.5-4.5,68.2-7.2c28-3.3,56-7,84-10.8c14-1.9,28-3.9,41.9-5.9
		c7-1,14-2,21-3c2.1-0.3,19.4-4,20.1-2.9c2.4,3.9,4.6,9.7,1,12.5c-1.1,0.9-2.6,1.2-4,1.5c-55,11.3-112.4,12.6-165,32.1
		c-2,0.7-4.1,1.7-5,3.6C1258.8,619.3,1273.6,619.9,1273,626.8z"/>
	<path class="st1" d="M1068.9,487.7c-5.7,7.7-12.6,14.8-14.6,24.8c-0.6,2.9-1.1,5.9-1.8,8.8c-0.3,1.6-0.4,4.2-1.3,4.6
		c-5.9,2.6-5.5,8.7-6.2,13c-1.8,11.4-5.2,23.1-0.7,34.8c0.7,1.8,0.2,4,0.2,6c-3.2-4.6-4.1-9.9-4.3-15.4c-0.1-2.4-1.2-4.7-1.9-7.1
		c0.6-7,1.3-14,1.9-21c0.1-1.7,0.7-3.8-0.1-5c-6.1-10.1-0.7-20.9-1.9-31.2c1.4-2.8,2.7-5.6,4.1-8.3c0-8.1-0.1-16.2-0.1-24.3
		c1.4-1.9,2.9-3.8,4.5-5.9c-2.2-3.4-2.2-3.4-0.4-10.8c2.1-6.1,4.1-12.2,6.2-18.3c4,7,2.5,14.3,0.6,21.3c-3.1,11.4-3.1,22.9-0.5,34.6
		c0-7.3,0-14.7,0-22.4c4.2-0.7,7.6-2.1,8.1,3.4c-3,0-3.9,1.7-4.1,4.5c-0.3,4.3-1.3,8.6-1.4,12.9c-0.1,2.8,1,5.7,2,10.7
		c3.4-5.2,5.5-8.5,7.7-11.8C1067.1,484.5,1069.1,483.8,1068.9,487.7z"/>
	<path class="st2" d="M698.7,543c0.8-2.5,0.8-6.1,2.5-7.2c5.5-3.6,9-9.1,13.2-13.8c3.9-4.4,8.7-6.8,14-7.4c4.3-0.5,7.5-1.9,10.8-4.6
		c3-2.6,7.1-4,10.6-5.9c-0.2,1-0.2,2.1-0.8,2.8c-4.9,6.6-10,13.2-15.1,20c-0.1-0.1-1.1-0.7-2.5-1.5c-2.6,5-6.5,9.3-6.2,15.4
		c-2.9-0.5-0.6-6.4-5.9-5.1c-4.7,1.1-5.9,3.6-6.2,7.5c2.8,1.4,5.4,2.6,8,3.8c-3.4-0.1-6.7,0.2-8.1,4c-4.4,0.3-8.1-1.6-13.6-4.2
		c9-2.8,12.2-8.7,14.5-15.4c-2.7,1.3-4.6,4.4-6.9,4.8C702.5,537,701.4,540.8,698.7,543z"/>
	<path class="st3" d="M1154.6,594c2-2.6,3.7-4.9,2.6-9c-1.5-5.8-2.3-12-2.2-18c0.2-6.8,6.3-9.7,11.4-5.7c1.5,1.2,2.6,3.9,2.7,5.9
		c0.3,6.1,0.3,12.2-0.1,18.3c-0.3,3.9,1.9,6.2,4.2,8.6c-2.8,1.5-5,4.1-8.9,2.3C1161.3,595,1157.8,594.7,1154.6,594z"/>
	<path class="st4" d="M962.5,524.5c2.8,4.1,5.7,0.3,7.9-0.4c7.5-2.6,14.3-2.2,20.8,2.4c-3.3,1.8-8.1-0.4-10.2,4.2
		c-4.5-0.1-7.7,5.8-13,2.9c-0.3-0.2-2.4,2.8-3.8,4.6c-2.9-1.2-5.6-2.3-8.7-3.6c-1.7,2.8-3.1,5.3-4.9,8.2c-6-2.6-3.9-7.9-4.3-12.1
		c1.4,0,3.7,0.4,4-0.1C952.8,525.3,957.1,523.9,962.5,524.5z"/>
	<path class="st5" d="M792.6,471.3c2.9-3.4,6.8-1.3,10.2-2c2,2.2,3.8,4.8,6,6.7c7,6,10.2,14.1,12.2,22.6c2.2,9.1,3.2,18.4,2.5,27.8
		l-0.2,0.2c-3.3-2.4-1.7-6-1.9-9.1c-0.2-4.3-0.3-8.5-4.1-11.4c-0.6-2.8-1.3-5.5-1.9-8.3c-0.9-1.7-1.4-3.9-2.8-5.1
		c-5-4.5-11-6.3-17.7-4.9c2.6-4.6,7.7-0.5,11.2-3.4c-2.8-5.2-8.7-1.3-12.7-4.2c0.2-4.1,7.8-3,5.9-9.1
		C797.2,471.3,794.9,471.3,792.6,471.3z"/>
	<path class="st6" d="M870.5,544.9c-1.4,2.4-2.9,4.9-5,8.4c-0.9-3.2-1.5-5.2-2.3-7.9c-2.2,0.2-4.3,0.3-7.2,0.5
		c-0.3-0.4-1.1-1.1-1.5-1.9c-2.3-5.1-4.5-10.2-6.7-15.3l0.1-0.1c1.8-0.2,4.1-1.2,5.4-0.5c4.8,2.8,6,0.2,6.7-3.7
		c0.5-1.9,1-3.8,2.1-7.5c2,4.5,3.1,7.1,4.2,9.7C867.8,532.7,869.2,538.8,870.5,544.9z"/>
	<path class="st7" d="M698.7,543c2.8-2.2,3.8-6,8.3-6.7c2.3-0.4,4.2-3.5,6.9-4.8c-2.3,6.7-5.5,12.6-14.5,15.4
		c5.5,2.6,9.2,4.5,13.6,4.2c-1.7,1.5-3.4,3.1-5.2,4.7c1.1,1.3,2.1,2.5,3.2,3.7c-7.4-0.3-14.8-1.2-20,6.2c-1,1.4-4.2,1.2-6.4,1.8
		c0-1.3,0-2.6,0-3.9c2.8-1.9,5.6-3.6,8.3-5.6c4.3-3.2,7.2-7.2,5.7-12.9C698.6,544.2,698.6,543.6,698.7,543z"/>
	<path class="st8" d="M565.7,616.6c-7.8-13.8-5.1-27.2,2.4-40c2.5-4.2,6.6-7.4,10-11.1c-1.1,4.2-2.4,8.4-3.3,12.7
		c-1.1,5.3-2,10.6-3,15.9c-4.1,3.2-3.7-1.5-5.1-2.9c-5,7.1-3.3,5.9,1,19.3C567,612.5,566.3,614.5,565.7,616.6z"/>
	<path class="st9" d="M647.6,563.3c7.9,2.6,11,9.8,13.7,16.3c2.6,6.1,3.3,13,4.4,19.7c0.8,4.8-1,9.2-3.8,13.2
		c-0.4-8.7-1.2-17.2-6.8-24.5c-1.7-2.2-3.4-5.9-2.8-8.3C654.1,573,650.6,568.4,647.6,563.3z"/>
	<path class="st10" d="M847.9,528.6c-0.9-0.9-1.9-1.8-2.6-2.5c-2.9,1.3-5.8,2.7-8.4,3.9c-1-0.7-1.6-1-2.1-1.4
		c-1.9-1.6-0.5-6.3-4.5-5.7c-4.6,0.7-2.5,4.9-2.8,7.6c-0.4,3.2-0.2,6.5-2.3,10.2c-0.6-1.2-1.7-2.5-1.8-3.7
		c-0.3-3.4-0.2-6.8-0.2-10.2l0.2-0.2c1.3-3.8,2.7-7.6,4.5-12.8c1.1,2.8,1.6,4,2.1,5.2c8.3-3.9,6.1-3,10,5.9c1.4-1.7,2.7-3.2,3.9-4.6
		c2-2.3,3.9-4.8,6.2-6.7c0.6-0.5,2.6,0.5,4,0.8C849.5,517.9,847.1,522.5,847.9,528.6L847.9,528.6z"/>
	<path class="st11" d="M651.6,641.1c0.8-0.5,2.2-1.5,2.2-1.5c3.8,5.1,9.9,5.2,15.1,7.1c1.8,0.7,3.5,1.7,5.2,2.5
		c-0.6,0.7-1.5,1.4-1.9,2.2c-3.2,6.7-3.2,6.7-9.5,4.3c-1.3-0.5-2.5-1-4.1-1.7c-0.5,2-1,3.9-1.5,5.9c-0.4-0.3-1.1-0.5-1.2-0.8
		c-0.8-4.3-1.4-8.6-2.3-12.9C653.2,644.5,652.3,642.8,651.6,641.1z"/>
	<path class="st12" d="M1093.5,571.5c3.1-0.1,4.2,1.7,4.2,4.5c0,5.1,0.3,10.2-0.2,15.3c-0.5,5.1,0.9,9.3,4.3,12.9
		c-7.5,1.4-14.9,2.8-22.4,4.1c-2.9,0.5-4.4-1.1-4.2-4.1c1.2,0.7,2.3,1.3,3.5,1.9c7.8-3.1,7-9.7,6.7-16.1c4.3,2.8,0.4,7.9,3.5,11.6
		c1.5,0,3.3,0,5.7,0c1.5-4.8,1.3-9.6-0.3-14.6C1092.5,582,1091.1,576.8,1093.5,571.5z"/>
	<path class="st13" d="M678.2,651.3c2.9,0.4,5.8,0.9,8.7,1.3c1.1-2.4,2.3-5,3.5-7.5c-0.9,5.6,2.8,6.5,6.2,6.5c0.8,4.5,1.4,8.2,2,12
		l0,0c-4.2,2.5-8.3,5.1-13,7.9c-1.1-2.8-2.1-5.5-3.4-8.8c3.5-0.8,6.6-1.5,11.5-2.6C687.6,656.6,682.9,654,678.2,651.3z"/>
	<path class="st14" d="M1003.4,534.7c0.4,5.7,5.9,5.4,9.2,7.6c3.1,2.1,4.5,3.9,1,6.7c-0.7-6.1-5.5-4.5-8.5-3.6
		c-4.8,1.5-9.2,4.1-13.7,6.3c-1.7,0.8-3.4,1.7-6.5,3.3c2.7-8.9,10.9-8.9,16.3-14.1c-3.6,0.6-6,0.9-8.9,1.4c0.2-1,0.3-1.9,0.7-2.7
		C995,534.9,1000.5,537.7,1003.4,534.7z"/>
	<path class="st15" d="M684.5,567.4c2.2-0.5,5.4-0.4,6.4-1.8c5.2-7.4,12.6-6.6,20-6.2c-0.7,1.4-1.2,3.4-2.3,3.9
		c-2.2,1-5.5,0.3-7,1.8c-1.7,1.7-2.5,3.8-5.2,5.2c-2.4,1.3-4.1,2.5-6.9,1.5c-0.8-0.3-2.1,1.2-3.1,1.8
		C685.7,571.5,685.1,569.4,684.5,567.4z"/>
	<path class="st16" d="M563.7,639c0.7,1.7,1.4,3.4,2,5.1c0.7,1.7,1.3,3.4,2,5.1c-6.2,3.8-12.5,7.6-18.7,11.3
		c-2.8,1.7-5.2,0.9-7.1-1.6c-1.2-1.6-2.4-3.2-4.2-5.6c4.9,0,9.3,0.6,13.4-0.2c4.2-0.8,8.1-2.9,12.5-4.6
		C563.7,645,563.7,642,563.7,639z"/>
	<path class="st4" d="M927.8,491.7c6.3,1.2,9.5,6,12.4,10.9c4.7,8,6.5,16.8,5.9,26c-0.7-1.4-1.7-2.8-2-4.3
		c-1.3-7.7-3.8-14.7-10.4-19.6c-1.9-1.4-4.7-3.3-0.8-5.9C931.2,496.5,929.5,494.1,927.8,491.7z"/>
	<path class="st14" d="M980.9,530.7c2.1-4.6,7-2.4,10.2-4.2c9.1-3.2,9.1-3.2,12.3,6.2c-5.8-2.1-5.8-2.1-12.3,1.6
		C987.7,533,984.3,531.9,980.9,530.7z"/>
	<path class="st17" d="M567.7,610.5c-4.3-13.4-6-12.2-1-19.3c1.4,1.4,1.1,6.1,5.1,2.9C573.5,600.3,569.4,605.1,567.7,610.5z"/>
	<path class="st18" d="M721,547c-2.6-1.2-5.1-2.5-8-3.8c0.3-4,1.6-6.4,6.2-7.5c5.3-1.2,3,4.6,5.9,5.1C725.3,543.9,724.1,546,721,547
		z"/>
	<path class="st0" d="M1171.2,657.5c-0.7-1.4-1.4-2.8-2.1-4.2c-2.2-6.1-2.3-12.3-0.5-18.7c0.3,3.6,0.6,7.2,0.9,11.2
		c1.3-0.7,2.5-1.3,4.3-2.3C1176.5,648.9,1175.3,653.4,1171.2,657.5z"/>
	<path class="st19" d="M870.5,544.9c-1.4-6.1-2.7-12.3-4.1-18.4c0.7,0,1.3,0.1,2,0.1c0,3.4,1.6,5.6,5,6.1c2.5,0.4,3.2,1.9,3.2,4.1
		c-0.7,1.7-1.7,3.3-2,5C874.1,544.2,872.7,545,870.5,544.9z"/>
	<path class="st20" d="M537.2,691.8c-1.5,1.6-2.6,3.9-4,4.1c-4.1,0.5-8.8,2-12-2.5C524.8,688.7,524.8,688.7,537.2,691.8z"/>
	<path class="st11" d="M1134.1,592.6c-3.9,2.3-7.3,2.2-9.1-1.5c-0.8-1.7-0.7-5.1,0.5-6.3c1.9-2.1,4.5-0.5,5.8,1.6
		C1132.5,588.3,1133.2,590.5,1134.1,592.6z"/>
	<path class="st15" d="M684.4,598.1c-3.8-6.3-2.9-12.6-0.3-19c0.7-1.8,1.5-3.6,2.3-5.5c1.6,2.4,3.1,4.7,5.1,7.8
		C681.9,584.7,684.6,591.9,684.4,598.1z"/>
	<path class="st20" d="M1137.2,660.4c4.5,5.9,4.6,8.1,0.3,14.6c-3.4-1.1-3.2-4-3.1-6.6C1134.4,665.4,1133.8,662.1,1137.2,660.4z"/>
	<path class="st16" d="M1058.6,596.1c1.3-0.7,2.6-1.4,4-2.1c2.8,2.1,5.6,4.2,8.4,6.2c-0.7,6.1-5.2,3.6-8.5,3.8
		C1061.1,601.3,1059.9,598.7,1058.6,596.1z"/>
	<path class="st15" d="M1063.9,685.6c-1-4.4-2.1-8.6-2.9-12.8c-0.1-0.7,0.7-2,1.4-2.4c0.8-0.4,2.6-0.3,2.8,0.1
		c0.8,1.8,1.5,3.7,1.6,5.6C1067.3,681.6,1067,682,1063.9,685.6z"/>
	<path class="st21" d="M1140.6,645.3c-2.9,0.7-5.7,1.5-8.6,1.9c-2.6,0.3-5.3,0.2-7.1-3c3.6-1,7-2.2,10.4-2.9
		C1138.3,640.7,1140.6,641.6,1140.6,645.3L1140.6,645.3z"/>
	<path class="st13" d="M698.6,663.6c7.8,1,7.3,9,11.6,12.9C702.8,675.2,701.1,669.1,698.6,663.6L698.6,663.6z"/>
	<path class="st22" d="M540.7,664.4c4,0,7,0,9.8,0c1.6,3.5,0.3,6.2-2.4,6.7C544.2,671.8,542.7,668.5,540.7,664.4z"/>
	<path class="st16" d="M567.7,649.3c3.4-2.1,6.7-4.2,10.1-6.3c0.6,4.7-1.3,8.3-4.8,12.1C571.1,653,569.4,651.2,567.7,649.3z"/>
	<path class="st23" d="M813.3,502.2c0.7-1.4,1.4-2.9,2.1-4.3c0.6,2.8,1.3,5.5,1.9,8.3c0,5.7,0,11.4,0,17c-0.7,0-1.4,0-2.1,0
		c0-4.9,0.2-9.8-0.1-14.7C815,506.4,814,504.3,813.3,502.2z"/>
	<path class="st24" d="M1081.2,561.4c3.4-4.8,6.8-9.6,10.2-14.4c3,5.9,3.7,11-3,15.5c-2.5,1.7-3.4,5.8-5.1,9.1
		C1079.7,568.1,1086.2,563.8,1081.2,561.4z"/>
	<path class="st25" d="M1093.3,540.7c1.8-4.6,3.4-9.2,5.3-13.7c0.5-1.1,2-1.7,3-2.5c2.5,5.4,3.9,10.4-1,15.6c-1.8,1.9-1.9,5.3-3.1,9
		C1095.7,545.5,1094.5,543.1,1093.3,540.7z"/>
	<path class="st26" d="M1073,575.6c0-3,1.4-5,4.1-6.1c2.1,4.4,3.6,8.7-0.4,13.6C1075.3,580.4,1074.1,578,1073,575.6z"/>
	<path class="st15" d="M698.5,544.9c1.4,5.8-1.4,9.7-5.7,12.9c-2.7,2-5.5,3.8-8.3,5.6c-0.4-3.1,0.1-5.6,2.9-7.9
		C691.3,552.3,694.8,548.5,698.5,544.9z"/>
	<path class="st27" d="M1036.2,499.8c-1.1-3.1-2.4-6.1-3.3-9.3c-1.3-4.3-2.4-8.6-4-14.7c4.3-7.8,9.3-17.5,17.4-25
		c-1.8,7.4-1.8,7.4,0.4,10.8c-1.6,2.1-3.1,4-4.5,5.9c-0.9-0.4-1.7-0.9-3.3-1.7c-1.4,3.7-3.7,7.2-4,10.8c-0.2,3.7,1.4,7.6,2.5,11.3
		c0.7,2.3,1.9,4.3,4.9,3.9c-1.4,2.8-2.7,5.6-4.1,8.3C1037.5,500,1036.9,499.9,1036.2,499.8z"/>
	<path class="st28" d="M1052.5,432.5c0.6-1.7,1.3-3.4,2.7-7.1c1.4,6,3.5,10.1,3.1,13.9c-1.3,11.4,4.8,20.3,8.6,30.1
		c1.2,3.8,2.5,7.5,3.6,11.3c0.7,2.5,1.6,5.3-1.5,7.1c0.2-3.9-1.7-3.2-4-2c-0.1-5.8-1-11.4-4.1-16.4c-0.6-5.5-4-4-8.1-3.4
		c0,7.7,0,15.1,0,22.4c-2.6-11.6-2.6-23.1,0.5-34.6C1055,446.7,1056.5,439.5,1052.5,432.5z"/>
	<path class="st28" d="M854.2,514.3c0.7,1.4,1.8,2.7,1.9,4.1c0.3,2.8,1.2,5,4,6c-0.7,4-1.9,6.6-6.7,3.7c-1.3-0.7-3.6,0.3-5.4,0.5
		C847.1,522.5,849.5,517.9,854.2,514.3z"/>
	<path d="M1455.2,676.4c-0.8-4.4-1.8-8.9-2.1-13.4c-0.4-5.3-0.2-11.3,1-16.6c1-4.2,1.7-7.1,1-11.6c-0.6-3.7-0.1-7.5-0.7-11.2
		c-1.3-8.7,0.5-17.9-3.9-26c-3.2-6-4.2-12.1-3.5-18.7c-0.3-3.3-0.6-6.6-0.9-10c-9.9,1.2-19.2,2.2-28.5,3.4
		c-15.7,1.9-204.8,25.5-217.9,26.8c-2,0.2-5.2,0.5-6.1-1.2c0.2-1.9,5.5-2.4,8.3-2.7c8.7-1,227-27.3,235-28.1c2.9-0.3,6-1.1,8.7-2.2
		c2.4-0.9,2.6-3.4-0.2-4.3c-1.4-0.5-2.9-0.2-4.3,0.1c-18.6,3.4-235.8,30-238.9,30.1c-6.6,0.1-13.3,0.6-19.8,1.8
		c-0.5,0.1-0.9,0.2-1.2,0.4c-0.5,0.1-1,0.1-1.4,0.2c-2,0.2-4.6-0.1-6.5,0.7c-3.3,1.4-5.1,4.5-9.1,2.6c-2.9-1.4-6.4-1.6-9.6-2.4
		c-2.2,6.5-2.2,6.5-13.4,5.6c-0.2-2.4-0.2-5-0.7-7.5c-0.4-2.1-1.5-4.1-2.3-6.1c-0.9-0.3-2.5-0.7-2.5-1c0.1-4.6,0.1-9.3,0.9-13.9
		c0.4-1.9,2.7-3.5,4.2-5.1c1.6-1.8,2.1-3.4-0.5-4.7c-4.4,2.8-7.3,6.5-8.9,11.7c-1.4,4.6-4.2,7.8-9.8,8.9c-6.2,1.2-10.4,5.7-12,12.2
		c-0.5,2-1.3,3.9-1.5,5.8c-0.4,4.3-3.3,4.5-6.5,4.3c-7.5,1.4-14.9,2.8-22.4,4.1c-2.9,0.5-4.4-1.1-4.2-4.1c0-2.7-1.4-4.1-4.1-4.1
		l-0.1,0.1c-0.7,6.1-5.2,3.6-8.5,3.8c-1.3-2.8-2.6-5.3-3.8-7.9c-5.8,3.5-9.2,8.8-11.1,15.8c-3.5,0-7,0-11.5,0
		c3-6.9-0.1-14.4,7.5-19.4c3.8-2.5,4.3-8.2,0.9-12.7c-3.2-4.6-4.1-9.9-4.3-15.4c-0.1-2.4-1.2-4.7-1.9-7.1c0.2,9-5.3,15.4-11,20.9
		c-2.7,2.6-8.1,2.6-12.4,3.5c-0.9,0.2-2.7-1-3.1-2c-3.2-6.7-8.1-12.6-8.3-19.4c3.8-4.2,7-7.7,10.2-11.1c-0.7-6.1-5.5-4.5-8.5-3.6
		c-4.8,1.5-9.2,4.1-13.7,6.3c-1.7,0.8-3.4,1.7-6.5,3.3c2.7-8.9,10.9-8.9,16.3-14.1c-3.6,0.6-6,0.9-8.9,1.4c0.2-1,0.3-1.9,0.7-2.7
		c2-4.8,7.6-2,10.5-4.9c0-0.7,0-1.4,0-2c-5.8-2.1-5.8-2.1-12.3,1.6c-3.5-1.2-6.8-2.4-10.2-3.6c-4.5-0.1-7.7,5.8-13,2.9
		c-0.3-0.2-2.4,2.8-3.8,4.6c-2.9-1.2-5.6-2.3-8.7-3.6c-1.7,2.8-3.1,5.3-4.9,8.2c-6-2.6-3.9-7.9-4.3-12.1c0-0.7-0.1-1.3-0.1-2
		c-0.7-1.4-1.7-2.8-2-4.3c-1.3-7.7-3.8-14.7-10.4-19.6c-1.9-1.4-4.7-3.3-0.8-5.9c-1.7-2.4-3.4-4.8-5.1-7.2c-5-3.4-9.8-2.2-14.2,1.1
		c-7.7,5.8-12.9,12.9-12.4,23.1c0.1,3,0.2,6.2-0.3,9.2c-0.9,5.1-2.8,10.2-8.6,11.4c-7.3,1.6-9.6,6.7-10.3,14.2
		c-2-5.3-3.7-9.7-5.4-14c-0.7,1.7-1.7,3.3-2,5c-0.5,2.4-1.8,3.2-4,3.1c-1.4,2.4-2.9,4.9-5,8.4c-0.9-3.2-1.5-5.2-2.3-7.9
		c-2.2,0.2-4.3,0.3-7.2,0.5c-0.3-0.4-1.1-1.1-1.5-1.9c-2.3-5.1-4.5-10.2-6.7-15.3c-0.9-0.9-1.9-1.8-2.6-2.5
		c-2.9,1.3-5.8,2.7-8.4,3.9c-1-0.7-1.6-1-2.1-1.4c-1.9-1.6-0.5-6.3-4.5-5.7c-4.6,0.7-2.5,4.9-2.8,7.6c-0.4,3.2-0.2,6.5-2.3,10.2
		c-0.6-1.2-1.7-2.5-1.8-3.7c-0.3-3.4-0.2-6.8-0.2-10.2c-3.3-2.4-1.7-6-1.9-9.1c-0.2-4.3-0.3-8.5-4.1-11.4c0,5.7,0,11.4,0,17
		c-0.7,0-1.4,0-2.1,0c0-4.9,0.2-9.8-0.1-14.7c-0.1-2.1-1.2-4.2-1.8-6.3c-1.1,4.8-2.2,9.6-3.5,15.4c-4-10.7-7-21.5-15-29.7
		c2.6-4.6,7.7-0.5,11.2-3.4c-2.8-5.2-8.7-1.3-12.7-4.2c0.2-4.1,7.8-3,5.9-9.1c-2,0-4.3,0-6.6,0c-1.9,1.3-3.9,2.5-6.6,4.3
		c-1-2.9-1.9-5.5-2.8-8c-1,0.3-1.5,0.3-1.6,0.5c-6.2,9.1-6.2,9.1-14.3,1.4c-0.5-0.5-1.1-0.7-2.5-1.6c-0.2,8.2,3.1,15,5.1,22.2
		c-2.5,4.2-5.2,8.5-7.7,12.7c-4.2,0.6-8.8-3-12.4,1.4c-0.2,1-0.2,2.1-0.8,2.8c-4.9,6.6-10,13.2-15.1,20c-0.1-0.1-1.1-0.7-2.5-1.5
		c-2.6,5-6.5,9.3-6.2,15.4c0.1,3.1-1.1,5.2-4.1,6.2c-3.4-0.1-6.7,0.2-8.1,4c-1.7,1.5-3.4,3.1-5.2,4.7c1.1,1.3,2.1,2.5,3.2,3.7
		c-0.7,1.4-1.2,3.4-2.3,3.9c-2.2,1-5.5,0.3-7,1.8c-1.7,1.7-2.5,3.8-5.2,5.2c-2.4,1.3-4.1,2.5-6.9,1.5c-0.8-0.3-2.1,1.2-3.1,1.8
		c1.6,2.4,3.1,4.7,5.1,7.8c-9.6,3.3-6.9,10.5-7.1,16.7c1,4.3,4.5,2.5,7.1,2.8c4.1,14.9,4.7,29.6-1.1,44.2c-0.9,5.6,2.8,6.5,6.2,6.5
		c0.8,4.5,1.4,8.2,2.1,12c7.8,1,7.3,9,11.6,12.9c-7.4-1.3-9.2-7.4-11.6-12.9c-4.2,2.5-8.3,5.1-13,7.9c-1.1-2.8-2.1-5.5-3.4-8.8
		c3.5-0.8,6.6-1.5,11.5-2.6c-6.2-3.5-10.9-6.2-15.6-8.8c-1.4-0.7-2.7-1.3-4.1-2c-0.6,0.7-1.5,1.4-1.9,2.2c-3.2,6.7-3.2,6.7-9.5,4.3
		c-1.3-0.5-2.5-1-4.1-1.7c-0.5,2-1,3.9-1.5,5.9c-0.4-0.3-1.1-0.5-1.2-0.8c-0.8-4.3-1.4-8.6-2.3-12.9c-0.4-1.8-1.3-3.5-2-5.3
		c-1.2,1.1-2.6,2.1-3.5,3.5c-0.7,1-0.8,2.5-1.8,5.9c-4.1-10.3-6.7-18.9-8.2-29.1c10.9,3.3,18.5-0.3,23.9-8.9
		c-0.4-8.7-1.2-17.2-6.8-24.5c-1.7-2.2-3.4-5.9-2.8-8.3c1.8-6.7-1.7-11.4-4.7-16.4c-0.2-0.6-0.3-1.2-0.4-1.9
		c-4.8-2-8.8-6.3-15.5-5.9c11.6,14.9,14.5,31.4,13.5,49.3c-3.6,1.9-6.6,2-10.2-0.5c-2.6-1.8-6.1-2.3-9.8-3.5c1.1-3,2.3-6,3.4-8.8
		c-10.4,0-20.7,0-32.3,0c1.8,4,3.1,6.9,4.6,10.1c-6,3-11.7,5.8-17.8,8.9c-1.3-2.4-2.6-3.7-2.8-5.2c-1.8-14.8,0.3-29,7.3-42.3
		c0.9-1.7,2.8-2.8,4.3-4.2c-1-0.5-2-1.4-3-1.3c-1.6,0.1-3.1,0.9-4.6,1.5c-2.1,2-4.1,4.1-6.2,6.1c-1.1,4.2-2.4,8.4-3.3,12.7
		c-1.1,5.3-2,10.6-3,15.9c1.7,6.2-2.4,11-4.1,16.4c-0.7,2-1.3,4.1-2,6.1c8,9.3,12,10.1,25.7,5.5c0.1,4.1,0.9,8.4,0,12.4
		c-0.8,3.6-3.3,6.8-5.1,10.2c-3.2,1-4.8-6-8.6-1.6c0.6,4.7-1.3,8.3-4.8,12.1c-2-2.1-3.6-4-5.3-5.8c-6.2,3.8-12.5,7.6-18.7,11.3
		c-2.8,1.7-5.2,0.9-7.1-1.6c-1.2-1.6-2.4-3.2-4.2-5.6c4.9,0,9.3,0.6,13.4-0.2c4.2-0.8,8.1-2.9,12.5-4.6c0-3.5,0-6.5,0-9.5
		c0-1.2-13.8,0.4-15.2,0.7c-5.6,1.2-11.4,2.9-15.9,6.6c-2.9,2.4-5.2,5.6-7.9,8.3c-4.9,5-11.2,8.6-17.7,11.4
		c-24.2,10.4-52.1,10.9-75.6,22.9c-8.3,4.2-15.8,9.7-23.2,15.2c-3.1,2.3-6.3,4.7-8.2,8.1c-5.9,10.5-5.2,21.8-5.1,33.3
		c0.1,12.1,0.2,24.3,0.3,36.4c0.2,15.5,0.3,31.1,0.5,46.6c0,2.4,0,4.8,0.1,7.2c0.1,3.4-4.1,34.1-0.5,46.2c0.1,0.3,0,0.7,0,1
		c1,11.5,0.5,23.1,4,34.4c1.2,3.8-0.4,8.6-1.3,12.8c-0.9,3.9-3.6,7.5-0.6,12c2.2-0.3,4.5-0.8,6.9-0.9c4-0.3,8.3-1.3,12-0.4
		c16.9,4.1,33.9-0.8,50.7,1.3c0.3,0,0.7,0,1-0.1c9.9-3.5,19.5-1.6,29,1.3c5.7,1.7,11.2,2,17,0.2c3.2-1,6.9-1.7,10-1
		c5.7,1.5,10.8,0.2,16.1-1c8-1.9,16.2-3.7,24.2-1.5c6.1,1.7,12,2,18.1,1.3c3.3-0.4,6.9-0.2,10.1,0.6c15.2,3.7,30.5,1.4,45.8,2
		c2,0.1,4.1-0.5,6-1.2c12.4-4.3,24.8-6.1,38-3.3c6.6,1.4,13.3,2.1,19.7,4.7c3.3,1.3,7.4,1.5,11,1.1c14.8-1.7,30-0.6,44.5-5.5
		c1.3-0.4,2.7-0.4,4.1-0.4c8.1-0.1,16.3-0.1,24.4-0.1c7.8,0,15.6,0.1,23.1,3.4c3,1.3,6.6,1.2,10,1.4c3.4,0.2,6.9-0.7,10.2-0.1
		c11.5,2.2,22.2-0.6,33.1-3.5c2.6-0.7,5.5-1.6,8-1c8.8,1.9,17.5,1.3,26.3,1.2c12.5-0.1,25.1,2.2,37.7,0.5c2.9-0.4,6,1.1,9,1.2
		c9.8,0.4,19.6,1.2,29.4,0.8c12.8-0.5,25.6-2.4,38.5-2.8c15.6-0.5,31.2-1.3,46.7,1.6c5.6,1.1,11.3,1.9,17,2.7
		c3.3,0.5,6.7,0.8,10.1,1c14.2,0.8,27.1-6.1,41-7.4c6.2-0.6,12-1.4,18.1,0.2c14.4,3.8,29.2,5.3,44.6,6.8c0-3,219-1.7,254.1-6.4
		C1444,922,1458.3,693.3,1455.2,676.4z M533.2,695.9c-4.1,0.5-8.8,2-12-2.5c3.6-4.7,3.6-4.7,16-1.6
		C535.7,693.4,534.6,695.7,533.2,695.9z M548,671.1c-3.9,0.7-5.4-2.6-7.4-6.7c4,0,7,0,9.8,0C552,667.9,550.7,670.7,548,671.1z
		 M1125.5,584.8c1.9-2.1,4.5-0.5,5.8,1.6c1.2,1.9,1.9,4.1,2.8,6.2c-3.9,2.3-7.3,2.2-9.1-1.5C1124.2,589.4,1124.4,586,1125.5,584.8z
		 M1070.2,612.7c8.7-1,17.5-1.4,26.2-2.3c5-0.5,10-1.3,15-2c12.6-1.9,25.2-4.3,37.9-5.8c6.9-0.8,13.9-0.6,20.9-1.1
		c2.5-0.2,4.7-1.2,7.1-1.5c0.3,0,0.6-0.1,0.9-0.1c-0.2,1.3-0.4,2.5-0.6,3.8c-8,0.9-15.7,1.8-23.4,2.8c-15.7,1.9-31.4,4-47.1,5.9
		c-13.1,1.6-26.1,2.9-39.2,4.3c-2,0.2-4-0.1-6.1-1.2C1064.7,614.4,1067.4,613,1070.2,612.7z M1063.9,685.6c-1-4.4-2.1-8.6-2.9-12.8
		c-0.1-0.7,0.7-2,1.4-2.4c0.8-0.4,2.6-0.3,2.8,0.1c0.8,1.8,1.5,3.7,1.6,5.6C1067.3,681.6,1067,682,1063.9,685.6z M1103.7,704.6
		l-0.8,0.2l-0.8,0c-6.5,1.2-13,2.6-19.5,3.7c-4.2,0.7-8.4,1.1-12.5,1.7c-1.1-5.1-2.3-9.5-3-14c-0.3-1.8,0.2-3.9,1-5.7
		c1.3-3,3-5.8,4.5-8.7c1-7.8-4.5-13-8.1-18.8c8.4-10.1,9.7-9.4-1.2-16.6c2.9-5.3,8.6-2.9,12.6-4.3c4.3-1.5,9.2-0.9,14.3-1.2
		c1.3,8.3,2.4,15.9,3.5,23.4c5,0.6,4.7,0.6,4.8-3.9c0.2-6.7,0.9-13.4,1.3-20.2c4.7-3.6,9.8-4,15.6-2.4c-0.2,1.2-0.1,2.4-0.7,3
		c-6.9,6.7-6.9,6.7,0.9,14.1c-1.2,2.1-2.6,4.3-3.8,6.6c-6.5,11.3-5.7,16,4,24.6c0,0.7,0.3,1.5,0,2c-1.3,2.1-2.7,4.1-4.1,6.1
		c1.6,2.4,3.2,4.8,5,7.6C1112.4,705.7,1107.8,704.2,1103.7,704.6z M1124.9,644.2c3.6-1,7-2.2,10.4-2.9c3-0.6,5.3,0.3,5.2,4
		c-2.9,0.7-5.7,1.5-8.6,1.9C1129.3,647.5,1126.6,647.4,1124.9,644.2z M1137.5,675c-3.4-1.1-3.2-4-3.1-6.6c0-3-0.6-6.2,2.8-8
		C1141.8,666.2,1141.8,668.4,1137.5,675z M1142,701.2c1.2-4.2,1.9-6.5,2.6-8.9c-1.2-2.7-2.3-5.4-3.8-8.8c6.3-10.2,8.1-20.8-3.5-30.1
		c1.1-2.8,2.2-5.4,3.3-8.1c2.7-1.7,2.4-3.8,0.6-5.8c-1.3-1.4-3.1-2.4-5.5-4.3c8.7-4.6,17.1-4.7,26.6-4.1c0.9,5.9,2,11.7,2.7,17.6
		c0.3,2.6,0.8,4.7,4.1,4.5c-2.2-6.1-2.3-12.3-0.5-18.7c0.3,3.6,0.6,7.2,0.9,11.2c1.3-0.7,2.5-1.3,4.3-2.3c2.7,5.5,1.5,10-2.7,14.1
		c-3,5.4-2.9,10.5,1.4,15.3c1.3,1.4,1.8,3.4,2.7,5.1c-0.6,2.7-1.2,5.4-1.8,8.1c0.7,1.3,1.3,2.6,2,3.8c0.6,1.5,1.2,2.9,1.9,4.9
		C1166.2,699.7,1154.6,697.6,1142,701.2z M1195.5,668.2c-1-4.4-2.1-8.6-2.9-12.8c-0.1-0.7,0.7-2,1.4-2.4c0.8-0.4,2.6-0.3,2.8,0.1
		c0.8,1.8,1.5,3.7,1.6,5.6C1198.9,664.2,1198.7,664.6,1195.5,668.2z M1235.4,687.2l-0.8,0.2l-0.8,0c-6.5,1.2-13,2.6-19.5,3.7
		c-4.2,0.7-8.4,1.1-12.5,1.7c-1.1-5.1-2.3-9.5-3-14c-0.3-1.8,0.2-3.9,1-5.7c1.3-3,3-5.8,4.5-8.6c1-7.8-4.5-13-8.1-18.8
		c8.4-10.1,9.7-9.4-1.2-16.6c2.9-5.3,8.6-2.9,12.6-4.3c6.7-2.4,14.1-1.1,21.1-2c6.8-0.8,11.2-4.3,18.4-2.3c-0.2,1.2-0.1,2.4-0.7,3
		c-6.9,6.7-6.9,6.7,0.9,14.1c-1.2,2.1-2.6,4.3-3.8,6.6c-6.5,11.3-5.7,16,4,24.6c0,0.7,0.3,1.5,0,2c-1.3,2.1-2.7,4.1-4.1,6.1
		c1.6,2.4,3.2,4.8,5,7.6C1244.1,688.3,1239.5,686.8,1235.4,687.2z M1256.6,626.8c3.6-1,7-2.2,10.4-2.9c3-0.6,5.3,0.3,5.2,4
		c-2.9,0.7-5.7,1.5-8.6,1.9C1261,630.1,1258.3,630,1256.6,626.8z M1269.2,657.6c-3.4-1.1-3.2-4-3.1-6.6c0-3-0.6-6.2,2.8-8
		C1273.4,648.8,1273.5,651,1269.2,657.6z M1273.7,683.7c1.2-4.2,1.9-6.5,2.6-8.9c-1.2-2.7-2.3-5.4-3.8-8.8
		c6.3-10.2,8.1-20.8-3.5-30.1c1.1-2.8,2.2-5.4,3.3-8.1c2.7-1.7,2.4-3.8,0.6-5.8c-1.3-1.4-3.1-2.4-5.5-4.3c0.2,0.1,12.4-3.9,14-4.1
		c5.1-0.5,10.5-0.4,15.6-0.2c1.7,0.1,3.6,0.3,4.5,1.7c1.6,2.3-0.6,5.5,0.4,8.1c0.7,1.8,2.7,2.6,3.9,4.1c4.3,5-0.8,8.8-3,12.7
		c-3,5.4-2.9,10.5,1.4,15.3c1.3,1.4,1.8,3.4,2.7,5.1c-0.6,2.7-1.2,5.4-1.8,8.1c0.7,1.3,1.3,2.6,2,3.8c0.6,1.5,1.2,2.9,1.9,4.9
		C1297.9,682.3,1286.3,680.1,1273.7,683.7z M1327.1,651.5c-1-4.4-2.1-8.6-2.9-12.8c-0.1-0.7,0.7-2,1.4-2.4c0.8-0.4,2.6-0.3,2.8,0.1
		c0.8,1.8,1.5,3.7,1.6,5.6C1330.5,647.5,1330.3,647.9,1327.1,651.5z M1367,670.6l-0.8,0.2l-0.8,0c-6.5,1.2-13,2.6-19.5,3.7
		c-4.2,0.7-8.4,1.1-12.5,1.7c-1.1-5.1-2.3-9.5-3-14c-0.3-1.8,0.2-3.9,1-5.7c1.3-3,3-5.8,4.5-8.6c1-7.8-4.5-13-8.1-18.8
		c8.4-10.1,9.7-9.4-1.2-16.6c3.1-5.7,16.1-4.6,21.5-5.2c4.2-0.5,29.5-6,30.4-2.2c0.7,3.1-5.2,5-5.5,8.1c-0.2,2.2,6,7.7,5.9,7.9
		c-1.2,2.1-2.6,4.3-3.8,6.6c-6.5,11.3-5.7,16,4,24.6c0,0.7,0.3,1.5,0,2c-1.3,2.1-2.7,4.1-4.1,6.1c1.6,2.4,3.2,4.8,5,7.6
		C1375.7,671.6,1371.1,670.2,1367,670.6z M1388.2,610.2c3.6-1,7-2.2,10.4-2.9c3-0.6,5.3,0.3,5.2,4c-2.9,0.7-5.7,1.5-8.6,1.9
		C1392.6,613.5,1389.9,613.4,1388.2,610.2z M1400.8,640.9c-3.4-1.1-3.2-4-3.1-6.6c0-3-0.6-6.2,2.8-8
		C1405,632.2,1405.1,634.4,1400.8,640.9z M1405.3,667.1c1.2-4.2,1.9-6.5,2.6-8.9c-1.2-2.7-2.3-5.4-3.8-8.8
		c6.3-10.2,8.1-20.8-3.5-30.1c1.1-2.8,2.2-5.4,3.3-8.1c2.7-1.7,2.4-3.8,0.6-5.8c-1.3-1.4-3.1-2.4-5.5-4.3c8.7-4.6,17.1-4.7,26.6-4.1
		c0.9,5.9,2,11.7,2.7,17.6c0.3,2.6,0.8,4.7,4.1,4.5c-2.2-6.1-2.3-12.3-0.5-18.7c0.3,3.6,0.6,7.2,1,11.2c1.3-0.7,2.5-1.3,4.3-2.3
		c2.7,5.5,1.5,10-2.7,14.1c-3,5.4-2.9,10.5,1.4,15.3c1.3,1.4,1.8,3.4,2.7,5.1c-0.6,2.7-1.2,5.4-1.8,8.1c0.7,1.3,1.3,2.6,2,3.8
		c0.6,1.5,1.2,2.9,1.9,4.9C1429.5,665.7,1417.9,663.5,1405.3,667.1z"/>
	<path class="st18" d="M1378.8-133.4c-2.4,7.2-3.7,14-6.9,19.8c-7.8,14.2-8,31-16.1,45c0.4,6.2-3,10.8-6.5,15.4
		c-1.9,4.8-3.8,9.7-5.7,14.5c-1.4,4.1-2.7,8.2-4.2,12.3c-2.9,7.7-5.8,15.4-8.8,23.1c-5.4,11.3-11.7,22.1-17.3,33.3
		c-5,9.9-7.5,20.5-11.8,30.3c-0.7,1.7-1.4,3.4-1.9,5c-0.9,2.3-2,4.5-3.2,6.6c0.4,6.2-3,10.8-6.5,15.4c-1.9,4.8-3.8,9.7-5.7,14.5
		c-1.4,4.1-2.7,8.2-4.2,12.3c-2.9,7.7-5.8,15.4-8.8,23.1c-1.4,3-3.4,5.8-4.1,8.9c-2.9,13.2-10.8,25.2-17.3,37.2
		c-7,12.8-9.1,27.6-16.4,40c0.4,6.2-3,10.8-6.5,15.4c-1.9,4.8-3.8,9.7-5.7,14.5c-1.4,4.1-2.7,8.2-4.2,12.3
		c-2.9,7.7-5.8,15.4-8.8,23.1c-1.4,3-3.4,5.8-4.1,8.9c-1.8,8.4-5.9,15.9-10.1,23.3c-2.9,5.2-9.6,13.1-10,19.2c0,0.7-0.3,1.6-0.6,2.7
		c-8,13.8-8.9,30.4-17.4,43.9c0.2,6.2-3.4,10.7-7.1,15.2c-2.1,4.8-4.2,9.5-6.2,14.3c-1.5,4-2.9,8.1-4.6,12.1
		c-3.1,7.6-6.4,15.2-9.6,22.8c-1.5,2.9-3.6,5.6-4.4,8.7c-1.7,6.8-5,12.7-9.6,17.9c-0.1,6.5-3.9,11.3-7.3,16.2
		c-1.7,2.5-4.3,5-4.6,7.6c-0.9,9.1-7.2,15.4-10.9,23c2.5,5.4,3.9,10.4-1,15.6c-1.8,1.9-1.9,5.3-3.1,9c-1.8-3.6-3-6-4.3-8.4
		c-0.6,2.1-1.3,4.2-1.9,6.2c3,5.9,3.7,11-3,15.5c-2.5,1.7-3.4,5.8-5.1,9.1c-3.6-3.5,2.9-7.8-2.1-10.2c-1.4,2.7-2.7,5.5-4.1,8.2
		c2.1,4.4,3.6,8.7-0.4,13.6c-1.4-2.8-2.5-5.2-3.7-7.5c-2.5,3.7-5.1,7.4-7.3,11.2c-1.3,2.2-2,4.7-3,7.1c2.8,2.1,5.6,4.2,8.4,6.2
		l0.1-0.1c3.5-6,6.9-11.9,10.9-18.6c1.4,3.6,2.4,6.1,3.3,8.5c4.3,2.8,0.4,7.9,3.5,11.6c1.5,0,3.3,0,5.7,0c1.5-4.8,1.3-9.6-0.3-14.6
		c-1.6-5-3-10.2-0.7-15.5c-1.3-1-2.6-1.9-4.5-3.3c8.2-8.3,13.6-17.6,17.5-28.1c2.1-5.4,6.5-10,9.5-15.1c1.7-2.8,2.7-6.1,4.1-9.1
		c1.2-2.6,2.7-5.2,4-7.8c3.2-6.2,5.7-12.7,9.9-18.6c3.6-5,4.5-11.8,7.2-17.6c2-4.5,4.9-8.7,7.4-13c1.4-4.1,2.9-8.1,4.3-12.2
		c2.7-5.5,5.4-11,8-16.5c1.3-3.4,2.2-7.1,4.1-10.1c3.6-5.4,5.7-10.8,6.7-17.5c0.9-6.1,4.8-11.7,7.4-17.5c3.4-6.4,5.8-13.1,7.3-20.1
		c2.8-2.9,4.4-8.1,5.6-11c1.2-2.7,2.5-5.3,3.8-7.9c4.1-8.8,7.5-17.1,10.4-26.1c2.8-8.6,9.6-15.2,12.3-23.9c1.3-4.1,2.6-8.2,3.9-12.3
		c2.5-5.6,5-11.2,7.5-16.7c1.2-3.4,1.9-7.2,3.8-10.3c3.4-5.5,5.4-11,6.1-17.7c0.6-6.1,4.4-11.8,6.8-17.7c1.3-2.7,2.4-5.4,3.4-8.2
		c2.6-2.9,4.1-7.9,5.3-10.6c1.2-2.7,2.5-5.3,3.8-7.9c3-6.3,5.3-12.9,9.3-18.9c3.4-5.1,4.1-12,6.5-17.8c1.9-4.6,4.6-8.8,6.9-13.2
		c1.3-4.1,2.6-8.2,3.9-12.3c2.5-5.6,5-11.2,7.5-16.7c1.2-3.4,1.9-7.2,3.8-10.3c3.4-5.5,5.4-11,6.1-17.7c0.5-4.7,2.9-9.2,5-13.7
		c3.5-2.5,5.3-8.7,6.7-11.9c1.2-2.7,2.5-5.3,3.8-7.9c3-6.3,5.3-12.9,9.3-18.9c3.4-5.1,4.1-12,6.5-17.8c1.9-4.6,4.6-8.8,6.9-13.2
		c1.3-4.1,2.6-8.2,3.9-12.3c2.5-5.6,5-11.2,7.5-16.7c1.2-3.4,1.9-7.2,3.8-10.3c3.4-5.5,5.4-11,6.1-17.7c0.6-6.1,4.4-11.8,6.8-17.7
		c4.6-9.4,7.1-19.2,7.9-29.6c0.6-8,1.9-15.9,2.9-23.8C1379.4-126.7,1379.1-129.6,1378.8-133.4z"/>
	<path class="st18" d="M1469.9,70.7c-10.5,12.3-14.2,28.8-25.1,40.8c-0.9,6.2-5.1,10-9.5,13.7c-2.9,4.3-5.7,8.7-8.6,13
		c-2.2,3.7-4.3,7.5-6.6,11.1c-4.4,7-8.9,13.9-13.3,20.8c-2,2.6-4.6,4.9-5.9,7.8c-6.6,14.7-19.1,26.2-29.2,38.4
		c-4.9,5.9-8.8,11-12.3,18c-2.6,5.1-12,15.3-12.7,20.4c-0.9,6.2-5.1,10-9.5,13.7c-2.9,4.3-5.7,8.7-8.6,13c-2.2,3.7-4.3,7.5-6.6,11.1
		c-4.4,7-8.9,13.9-13.3,20.8c-2,2.6-4.6,4.9-5.9,7.8c-3.1,6.9-8.9,13.4-13.1,18.9c-7.7,9.9-17.7,18-24,28.7
		c-3.1,5.3-5.5,10.9-8.4,16.3c-1.9,3.5-8.9,10.5-9.4,14c-0.9,6.2-5.1,10-9.5,13.7c-2.9,4.3-5.7,8.7-8.6,13
		c-2.2,3.7-4.3,7.5-6.6,11.1c-4.4,7-8.9,13.9-13.3,20.8c-2,2.6-4.6,4.9-5.9,7.8c-4.9,11-14.4,19.7-22.4,28.9
		c-5.8,6.6-15.7,19.4-17.7,28c-1.6,2-3.3,4-5,6c-1.3,2.1-2.6,4.2-3.9,6.3c-0.1,0.7,0,1.5-0.3,2c-4.1,6-8.4,11.8-12.3,17.9
		c-1.2,1.8-1.3,4.3-1.9,6.5c2.6,1.4,2.1,3,0.5,4.7c-1.5,1.6-3.8,3.2-4.2,5.1c-0.8,4.5-0.8,9.2-0.9,13.9c0,0.3,1.6,0.7,2.5,1
		c2-3.4,5.2-6.6,5.8-10.2c1.3-8.6,9.1-12.9,12-20.5c2-5.2,6-9.6,9.1-14.4c2.6-3.8,5.2-7.6,7.7-11.5c0.5-0.8,1-1.5,1.6-2.3
		c2.6-2.5,4.7-6.2,6.2-8.3c1.7-2.4,3.5-4.6,5.3-7c4.2-5.6,7.8-11.5,12.9-16.6c4.4-4.3,6.5-10.9,10.1-16.1c2.8-4.1,6.3-7.7,9.5-11.5
		c2.1-3.7,4.2-7.5,6.3-11.2c3.6-4.9,7.2-9.9,10.7-14.8c1.9-3.1,3.3-6.7,5.8-9.3c4.5-4.7,7.5-9.7,9.6-16.1c1.9-5.8,6.8-10.7,10.3-16
		c3.8-4.9,6.8-10,9.4-15.5c4-1.6,7.1-7.5,9.1-10.3c1.7-2.4,3.5-4.6,5.3-7c4.2-5.6,7.8-11.5,12.9-16.6c4.4-4.3,6.5-10.9,10.1-16.1
		c2.8-4.1,6.3-7.7,9.5-11.5c2.1-3.7,4.2-7.5,6.3-11.2c3.6-4.9,7.2-9.9,10.7-14.8c1.9-3.1,3.3-6.7,5.8-9.3c4.5-4.7,7.5-9.7,9.6-16.1
		c1.9-5.8,6.8-10.7,10.3-16c3.5-4.6,6.5-9.4,8.9-14.5c3.9-1.8,6.8-7.4,8.8-10.2c1.7-2.4,3.5-4.6,5.3-7c4.2-5.6,7.8-11.5,12.9-16.6
		c4.4-4.3,6.5-10.9,10.1-16.1c2.8-4.1,6.3-7.7,9.5-11.5c2.1-3.7,4.2-7.5,6.3-11.2c3.6-4.9,7.2-9.9,10.7-14.8
		c1.9-3.1,3.3-6.7,5.8-9.3c4.5-4.7,7.5-9.7,9.6-16.1c1.9-5.8,6.8-10.7,10.3-16c6.4-8.2,10.9-17.4,13.8-27.4
		c2.2-7.7,5.1-15.2,7.7-22.7c0.3-3,0.7-6,1.1-9.7C1476.9,59.2,1474.2,65.6,1469.9,70.7z"/>
</g>
<g>
	<path class="st29" d="M149.1,565.7c1.2-0.3,4.4-0.2,5.5-1.6c4.9-6.2,11.4-5.1,17.8-5.1c10.6,0,16.9,7.3,15.7,18.2
		c-0.5,4-0.8,8.1-2,11.9c-2.4,7.9-5.3,9.1-13,5.5c-5.3-2.5-5.2,2.3-7.1,4.8c-3.7-1-8-0.6-9.5-5.8c-0.3-1.2-4.8-1.2-5.1-2.4
		c-1.3-4.1-2-8.5-2.3-12.9C148.8,574.4,149.1,570.3,149.1,565.7z M183.5,572.1c-4-1.1-7.8-1.4-11-3.1c-5.8-2.9-10.4-0.4-15.1,2.3
		c-4.1,2.3-5.5,7-3.7,11.2c1.3,3,10,8.8,13.2,8.2c5.5-1,10.8-2.6,16.5-3.9C183.5,581.9,183.5,577.5,183.5,572.1z"/>
	<path class="st30" d="M161.4,661.3c-0.6-3.7-1.2-7.5-2.1-13.1c2.8,1.9,4,2.7,5.2,3.6c3.6-6.2-3.2-8.5-5.4-14c2.6,0.9,4.4,1.4,6.1,2
		c3.2-2.3,0.8-4.3-0.4-6c-6-8.4-7.2-16.3-3.6-27.2c4,0.8,2.9,8,8.4,6.8c0.3,1.2,0.7,2.3,0.7,3.5c0.4,8.5,1.5,17,0.8,25.4
		c-0.7,9.1,2,18.3-1.4,27.2C166.9,666.8,164.1,664,161.4,661.3z"/>
	<path class="st31" d="M161.4,661.3c2.7,2.7,5.5,5.4,8.2,8.1c4.3,4.2,4.3,4.2-1.4,11.3c6.6,6.3,13.3,12.6,21.4,20.3
		c-3.6,0.3-5.7,1.2-6.3,0.5c-11.2-11.4-22.2-22.9-33.2-34.5c-0.4-0.4-0.4-1.2-0.7-2.3c5.4,0,6.5,8.3,13.3,6.1
		c-1.9-2.7-3.7-5.1-5.9-8.3C158.9,662,160.2,661.7,161.4,661.3z"/>
	<path class="st21" d="M284.3,413.9c0.1,1.2,0.2,2.5,0.4,3.7c-3.9-0.8-8-1.2-11.8-2.4c-13.5-4.2-26.9-8.8-40.5-12.8
		c-6.3-1.8-12.9-2.4-19.4-5.5c1-0.4,2.2-1.5,3.1-1.3c21.4,4.8,42.8,9.5,63.3,17.6C280.8,413.9,282.6,413.7,284.3,413.9z"/>
	<path class="st20" d="M272,724.2c-1.5,1.6-2.6,3.9-4,4.1c-4.1,0.5-8.8,2-12-2.5C259.6,721.2,259.6,721.2,272,724.2z"/>
	<path class="st21" d="M226.8,309.5c2.6-3.5,5.8-2.9,8.9-1.1c0.9,0.5,1.3,2.2,1.8,3.5c1.2,3.3,0.1,5.9-2.3,8.2
		c-1.6-3.3-2.3,0.8-4,0.2c-0.2-2.7-0.1-5.6-0.8-8.4C230.3,310.8,228.1,310.3,226.8,309.5z"/>
	<path class="st22" d="M275.5,696.9c4,0,7,0,9.8,0c1.6,3.5,0.3,6.2-2.4,6.7C279,704.3,277.5,701,275.5,696.9z"/>
	<path class="st32" d="M304.7,383.2c0.5,2,1,4,1.5,6c-2.6,2.6-5.3,5.2-7.9,7.9c0.8-3.5,1.7-7,2.3-10.6
		C301,383.9,302.5,383.2,304.7,383.2z"/>
	<path class="st8" d="M183.5,572.1c0,5.5,0,9.8,0,14.7c-5.6,1.4-11,2.9-16.5,3.9c-3.2,0.6-11.9-5.2-13.2-8.2
		c-1.8-4.2-0.4-8.9,3.7-11.2c4.7-2.7,9.3-5.2,15.1-2.3C175.7,570.6,179.5,571,183.5,572.1z M158,583.6c6.2,0,11.8,0,17.3,0
		c3.4,0,6-1.3,6.3-5.1c0.2-3.3-3-5.4-7.2-5c-2.9,0.3-5.8,1.2-8.6,0.9C158.5,573.4,157.8,573.8,158,583.6z"/>
	<path class="st33" d="M158,583.6c-0.2-9.7,0.5-10.2,7.8-9.2c2.8,0.4,5.7-0.6,8.6-0.9c4.2-0.4,7.4,1.7,7.2,5
		c-0.2,3.8-2.8,5.1-6.3,5.1C169.8,583.6,164.3,583.6,158,583.6z"/>
	<path d="M298.3,719.4c-0.4-1.1-0.7-2.3-1-3.4c-1.4-6.2-19.3-78.6-22.2-77.2c2.3-1.2,4.4-1.7,5.6-2.9c1-1.1,1.3-3,1.4-4.6
		c0.1-1.9-0.2-3.9-0.4-5.7c-13.4-2.3-13.5-2.2-18.8-15.1c-4.8-11.6-9.2-23.3-13.8-34.9c-0.7-1.4-1.4-2.9-2.5-5
		c3.4-1,6.2-1.8,9.7-2.8c0-4.4,0-8.9,0-14.5c-3.9-0.1-7.8-0.3-11.8-0.2c-3.3,0.1-6-0.7-7.4-4.1c-6.1-14.4-12.2-28.8-18.1-43.2
		c-0.3-0.8,1.1-2.4,1.8-3.7c1.2-0.5,3.4-0.9,3.5-1.5c0.5-5.7,4.8-6.5,9-8c9.6-3.4,19.2-6.7,26.4-14.7c2.4-2.7,6.2-4,9.2-6.2
		c7.4-5.5,12.5-12.3,13.2-21.9c0.2-2,1.4-4.7,3.1-5.7c4.1-2.5,5.1-6,4.9-10.4c-0.2-4.4,0.2-8.9-0.4-13.3c-0.3-2.4-1.9-4.6-5.1-2.6
		c-3.9-0.8-8-1.2-11.8-2.4c-13.5-4.2-26.9-8.8-40.5-12.8c-6.3-1.8-12.9-2.4-19.4-5.5c1-0.4,2.2-1.5,3.1-1.3
		c21.4,4.8,42.8,9.5,63.3,17.6c1.5,0.6,3.4,0.4,5,0.6c4.7-5.6,9.3-11.2,14-16.9c0.8-3.5,1.7-7,2.3-10.6c0.4-2.6,1.9-3.2,4.1-3.3
		c-0.5-4.1,3.6-4.4,5.6-6.4c-0.8-1.7-1.3-4.5-2.6-4.9c-8-2.6-11.8-9.6-17.4-15.3c2.2-2.7,4.3-4.9,6.1-7.3c3.2-4.3,3-8.6-0.4-10.6
		c-3.4-2.1-7.6-0.7-10.3,3.5c-1.2,1.9-2,4.2-3.1,6.6c-16.5-7.3-32.7-14.4-49.6-21.8c0.7-2.1,1.4-4.5,2.2-7c-1.6-3.3-2.3,0.8-4,0.2
		c-0.2-2.7-0.1-5.6-0.8-8.4c-0.3-1.1-2.4-1.6-3.7-2.4c-0.8,1.7-2.1,3.4-2.3,5.2c-0.4,3.3-0.1,6.6-0.1,10.8c-11.9-2.1-23-4-34.1-6
		c-12.4-0.8-28.2-360.4-29-382c-0.6-15.2-1.3-30.4-2.1-45.6c-0.1-1.9-1.3-3.8-1.9-5.7c-8.4-2.9-45.6-30.7-53.7-25.5
		c1.7,10.9-1.3,24.3-1.9,35.2C99.5-66.4,97.3-28.7,95,9.1c-3.3,54.8-6.5,109.6-9.8,164.4c-4.6,77.5-14.8,156.8-9.9,234.1
		c0.3,5.2,0.6,10.6-1.3,15.5c-4.4,10.9-18.2,14.7-29.9,14c-11.8-0.7-23.6-4.2-35.1-1.9c-25.4,5.1-36.6,34.8-41,60.3
		c-9.1,53.6-7.5,108.1-12.1,162.2c-4.5,52.9-19.5,103.4-28,155.5c-1.8,11.1,2.9,111.6,8.8,121.1c4.7,7.6,446.2,11.2,467.8,7
		c4.5-0.9-4.9-34.3-1.5-37.4c3.5-3.2,4.8-8.1,6-12.7c6.3-24.7,12.7-49.8,12.4-75.4c-0.2-14.7-2.7-29.3-5.1-43.9
		c-2.7-16-5.4-32.1-8.1-48.1c-0.7-4.1-1.9-8.9-5.8-10.4c-2-0.8-4.3-0.4-6.4,0.1c-28.7,5.7-57.4,14.8-86.5,12.2
		c-3.6-0.3-7.6-1-9.9-3.9C299,721,298.6,720.3,298.3,719.4z M203.7,672.8c3.5,2.2,11.3,18.7,16.9,36.9c-5.8,1.1-10.6,1-15.8-2.4
		C204.4,696,204,684.3,203.7,672.8z M285.2,696.9c1.6,3.5,0.3,6.2-2.4,6.7c-3.9,0.7-5.4-2.6-7.4-6.7
		C279.5,696.9,282.4,696.9,285.2,696.9z M272,724.2c-1.5,1.6-2.6,3.9-4,4.1c-4.1,0.5-8.8,2-12-2.5
		C259.6,721.2,259.6,721.2,272,724.2z M265.7,706.3c-0.1,1.3-0.1,2.7-0.2,4c-5.3,4.7-11.2,1.2-16.5,1.8c-3.1-3.9-9.1-23.3-11.6-27.2
		c6.3-2.2,12.5-1.1,19.3-0.8C259.8,691.5,262.7,698.9,265.7,706.3z M249.7,670.1c-7.1-0.3-13-0.6-19.5-0.9
		c-4.4-10.5-8.7-20.9-13.4-32.2c6.9,0,12.6,0,19.3,0C241.1,647.3,246.2,658.1,249.7,670.1z M198.3,581.5c0-4.3,0-8.7,0-13.2
		c5.2-1.8,8.6-1.2,10.4,3.8c1.3,3.8,2.7,7.6,4.1,11.3c1.9,3.5,3.8,6.9,5.6,10.4c3.5,8.8,7.1,17.5,10.6,26.3c2.1,1.9,1.9,3.8-1,4
		c-5.3,0.4-10.7,0.1-16.6,0.1c-4.3-10-8.9-19.7-12.4-29.8C197.6,590.6,198.4,585.9,198.3,581.5z M149.1,565.7
		c1.2-0.3,4.4-0.2,5.5-1.6c4.9-6.2,11.4-5.1,17.8-5.1c10.6,0,16.9,7.3,15.7,18.2c-0.5,4-0.8,8.1-2,11.9c-2.4,7.9-5.3,9.1-13,5.5
		c-5.3-2.5-5.2,2.3-7.1,4.8c-3.7-1-8-0.6-9.5-5.8c-0.3-1.2-4.8-1.2-5.1-2.4c-1.3-4.1-2-8.5-2.3-12.9
		C148.8,574.4,149.1,570.3,149.1,565.7z M150.1,667c-0.4-0.4-0.4-1.2-0.7-2.3c5.4,0,6.5,8.3,13.3,6.1c-1.9-2.7-3.7-5.1-5.9-8.3
		c2.2-0.6,3.4-0.9,4.6-1.2c-0.6-3.7-1.2-7.5-2.1-13.1c2.8,1.9,4,2.7,5.2,3.6c3.6-6.2-3.2-8.5-5.4-14c2.6,0.9,4.4,1.4,6.1,2
		c3.2-2.3,0.8-4.3-0.4-6c-6-8.4-7.2-16.3-3.6-27.2c4,0.8,2.9,8,8.4,6.8c0.3,1.2,0.7,2.3,0.7,3.5c0.4,8.5,1.5,17,0.8,25.4
		c-0.7,9.1,2,18.3-1.4,27.2c4.3,4.2,4.3,4.2-1.4,11.3c6.6,6.3,13.3,12.6,21.4,20.3c-3.6,0.3-5.7,1.2-6.3,0.5
		C172.1,690.1,161.1,678.6,150.1,667z"/>
	<g>
		<path class="st21" d="M0,393c-0.3,1.3-0.7,2.6-1,3.9c3.9-0.1,7.9,0.2,11.8-0.3c13.8-1.9,27.6-4.3,41.5-5.9
			c6.4-0.8,12.9-0.2,19.8-2.1c-0.9-0.7-1.9-2-2.8-1.9c-21.5,1.1-43.1,2-64.3,6.7C3.4,393.7,1.6,393.1,0,393z"/>
		<path class="st21" d="M73.3,292.8c-1.9-4.2-5.2-4.2-8.5-2.9c-1,0.4-1.7,2.1-2.3,3.4c-1.7,3.2-1.1,6.3,0.9,9.2
			c2.1-3.2,2.1,1.3,3.8,1c0.6-2.8,1-6,2.1-8.8C69.7,293.6,71.9,293.4,73.3,292.8z"/>
		<path class="st32" d="M-14.7,356.4c-0.8,2-1.6,4.1-2.4,6.1c2.1,3.3,4.2,6.6,6.4,9.9c-0.2-3.9-0.5-7.8-0.5-11.7
			C-11.2,357.9-12.5,356.9-14.7,356.4z"/>
		<path d="M51.2,497.5c8.9,5.1,17.7,9.6,24.7,13.9c3.5,2.2,7.1,4.3,11.1,5.2c3.9,0.8,7.9,0.3,11.8-0.3c16-2.3,32-4.5,48.1-6.8
			c5.9-0.8,12.4-2.1,15.9-7.2c2.2-3.2,2.8-7.2,3.4-11.2c2.2-15.2,4.3-30.5,6.2-45.7c3.3-25.7,6.1-51.8,2.4-77.5
			c-2.7-18.3-10-37.6-25.1-46c-21.3-12-53.5-11.4-76.8-11.5c0.7-4.4,1.5-7.9,1.7-11.5c0.1-2-0.8-4-1.3-6c-1.4,0.6-3.6,0.8-4,1.9
			c-1.1,2.8-1.5,6-2.1,8.8c-1.7,0.3-1.7-4.2-3.8-1c0.3,2.8,0.7,5.5,0.9,7.9c-17.6,4.7-34.5,9.2-51.7,13.7c-0.7-2.8-1-5.4-1.9-7.6
			c-1.9-5-5.8-7.3-9.4-5.7c-3.6,1.5-4.5,6.1-2.1,11.2c1.3,2.9,2.9,5.6,4.7,8.9c-6.5,5.1-11.3,11.8-19.5,13c-1.3,0.2-2.2,3.1-3.3,4.7
			c1.5,2.6,5.4,3.6,4.3,7.9c2.1,0.5,3.5,1.5,3.5,4.3c0,3.9,0.3,7.8,0.5,11.7c3.6,6.9,7.1,13.7,10.7,20.6c1.7,0.1,3.4,0.7,5,0.3
			c21.2-4.8,42.8-5.7,64.3-6.7c0.9,0,1.8,1.2,2.8,1.9c-6.9,2-13.4,1.4-19.8,2.1c-13.9,1.6-27.6,4.1-41.5,5.9
			c-3.9,0.5-7.9,0.2-11.8,0.3c-2.7-2.7-4.7-0.7-5.3,1.8c-1.2,4.6-1.6,9.4-2.6,14c-0.9,4.6-0.6,8.5,3,12c1.4,1.4,2.2,4.5,2,6.6
			C-4.9,441.8-1,450,5.2,457.2c2.5,2.9,6,5.1,7.9,8.4C20.6,478.7,36,488.9,51.2,497.5z"/>
	</g>
</g>
</svg>
