<?xml version="1.0" encoding="utf-8"?>
<!-- Generator: Adobe Illustrator 21.1.0, SVG Export Plug-In . SVG Version: 6.00 Build 0)  -->
<svg version="1.1" id="Layer_1" xmlns="http://www.w3.org/2000/svg" xmlns:xlink="http://www.w3.org/1999/xlink" x="0px" y="0px"
	 viewBox="0 0 1402 800" style="enable-background:new 0 0 1402 800;" xml:space="preserve">
<style type="text/css">
	.st0{fill:#497D6F;}
	.st1{fill:#528476;}
	.st2{fill:#3D6D59;}
	.st3{fill:#538D89;}
	.st4{fill:#447976;}
	.st5{fill:#2F5557;}
	.st6{fill:#5C9690;}
</style>
<g>
	<g>
		<path class="st0" d="M1069.2,505.9c4.1,6.9,5.8,8,12.1,7.3c1.1-0.1,2.4-0.7,3.2-0.3c11.8,6,25.9,9.1,31.1,23.7
			c2.5,6.8,6.9,10.3,14.3,11.9c4.9,1,9.4,4.1,16.9,1.9c-1.7,2.9-2.2,4-2.9,4.7c-2.7,3-1.5,5.5,1.1,7.4c2.4,1.7,5.1,3.1,7.8,4
			c11.6,3.9,22.6,9.1,32.7,16c8,5.4,18.7,9.9,25.8,16.5c5.7,5.3,6,13.3,10.9,18.6c7.1,7.6,16.5,14,24.4,20.8
			c6,2.1,9.6,8.1,12.6,13.7c5.5,10.2,11.1,20.3,16.6,30.5c1.7,3.1,3.4,6.3,6.3,8.3c2.3,1.6,5.2,2.3,7.8,3.4c7.9,3,14.3,9,21.6,13.3
			c7.3,4.3,16.8,6.8,24.1,2.5c2,21.9,26.7,32.7,41.6,48.9c8.3,9.1,13.8,20.8,15.6,33c1.6,11.3-0.3,23.6-8.1,32
			c-8.9,9.6-22.9,11.7-35.8,13.3c-118.5,14.6-237,29.2-355.5,43.8c-18,2.2-38.1,3.9-52.6-6.9c-15.6-11.6-19.6-34-34.4-46.6
			c-6.7-5.7-15.2-9-23.6-11.7c-19.3-6.3-39.3-10.3-59.5-12.1c-4.8-0.4-9.7-0.8-14.4-2.2c-5-1.5-7.2-4.8-11.3-7.2
			c-8.2-4.9-24.2-4-33.7-4c-14.2-0.1-28.5-0.1-42.7-0.2c-5.7,0-11.4,0-16.8,1.8c-4.1,1.4-7.9,3.8-12,5.1c-5.4,1.7-11.1,1.5-16.7,1.4
			c-12.4-0.2-24.9,0.1-37.3,0.9c-10.3,0.7-25.8-1.7-34.8,2.2c-7.2,3-13.3,8.1-20.3,11.2c-6.3,2.8-11.6,0.1-18.1,0.8
			c-7,0.7-12,6.9-17.6,11.2c-9.4,7.3-21.4,9.9-33,12.3c-21.1,4.3-42.3,8.7-63.8,10.2c-21.5,1.5-43.1,0.2-64.6,1.4
			c-40.4,2.2-79.7,13-119.4,20.2c-39.8,7.2-81.5,10.6-120-1.7c-5.1-1.6-10.4-3.7-14-7.6c-2.7-2.9-4.4-6.5-5.8-10.2
			c-10.4-26.6-10.2-57.2,0.4-83.7c1.5-3.8,3.4-7.7,6.6-10.2c7.6-6,18.5-2.3,28.1-1.4c11.8,1.2,24-2.5,33.2-10.1
			c3.7-3,7.2-6.8,11.9-7.6c2.6-0.4,5.3,0.1,7.9,0.5c16.1,2,30.5-5.2,39.6-18.1c2.8-4,5.9-8.2,10.6-9.7c2.4-0.8,5.1-0.7,7.6-1
			c8.9-1.3,16-8,24.1-11.8c5.5-2.6,11.6-4,17.3-6.2c5.7-2.2,11.4-5.6,14.3-11c2.6-4.7,2.9-10.6,6.2-14.9c3.2-4.3,8.6-6.1,13.6-8
			c13.9-5.3,27.2-13.2,36.1-25c1.1-1.5,2.2-3,3.8-3.9c1.5-0.8,3.3-0.9,5-0.9c7.8,0,14.5,2.1,22,3.8c6.5,1.5,14.3-0.1,20.7-1.7
			c13.7-3.4,26.4-9.9,40.1-13.7c3.6-1,7.4-1.8,11-1c5.2,1.1,9,5.2,12.7,9c15.2,15.5,32.9,28.5,50.4,41.4
			c6.3,4.7,13.8,11.3,21.6,13.5c7.1,2,10.5-4.4,17.9-5.1c5.3-0.5,11.4,2.9,11.8,8.3c0.1,1.4-0.2,2.8,0.1,4.2
			c0.9,4.5,6.7,5.7,11.3,5.9c9.5,0.4,19,0.8,28.5,1.2c7.4,0.3,15.1,0.7,21.9,3.7c3.7,1.6,7.1,4,10.7,5.9c8.2,4.2,23.7,8.1,32.2,2.7
			c7-4.5,13.8-14.2,19.2-20.5c14.5-17,26.3-36.1,37.9-55c14.3-23.3,28.9-47.2,35.3-73.8c2.7-11,3.9-22.4,8.3-32.8
			c5.1-12,14-21.8,22.7-31.5c5.4-6,11.1-12.1,18.7-14.9c2.8-1,6-1.5,8.9-0.6c2.7,0.8,4.9,2.8,7.1,4.5c22.9,18.4,54.3,21.4,83.7,20.8
			c17.5-0.3,34.9-1.7,52.4-0.9c8.6,0.4,17.3,1.3,25.7,3c9.1,1.9,10,3.3,14.4-5.4c0.1,2.5,0.3,5,0.4,7.8c2.8,0.7,5.2,1.8,7.6,1.7
			C1055.4,506.4,1062.4,510.1,1069.2,505.9z"/>
		<g>
			<path class="st1" d="M581.8,776.2c-8.4-15-5.5-29.5,2.6-43.3c2.7-4.5,7.1-8,10.8-12c2.2-2.2,4.5-4.4,6.7-6.6
				c-0.8,0-1.6-0.1-2.4-0.1c-2.8,1.4-4.5,4-8.9,0.8c-4.3-3.1-11.2-3.1-15.1,3.2c-0.2,0.4-1.4,0.2-2.1,0.2c-0.6,0.6-1.2,1.1-1.7,1.7
				c-2.6-3.4-5.1-6.7-8.5-11.1c-3.7,5.7-7,10.8-10.3,15.9c-0.5-0.3-1.1-0.5-1.6-0.8c1.2-4.4,2.3-8.7,3.4-12.8
				c0.7-2.8-11.2-12.6-12.5-15.5c-2.5-5.4-1-13.8-0.9-19.9c0-3.8-0.1-8-2.5-11c-5.1-6.4-15.3-2.4-23.4-4
				c-6.6-1.3-11.7-6.5-17.1-10.6c-7.9-5.9-17.3-9.6-27.1-10.8c-3.4-0.4-7.1-0.4-10.2,1c-2.3,1.1-4.1,2.9-6.4,4.1
				c-4.8,2.6-10.7,2-15.8,3.6c-7.7,2.4-12.9,9.4-18.8,14.9c-3.8,3.6-8.8,7-14.1,7.7c-7.3,1-9-3.4-12.8-8.8
				c-4.7-6.6-9.7-14.5-7.3-22.3c-8,4.3-16.4,9-21.1,16.8c-1.8,3-3.1,6.5-5.7,8.9c-5.3,4.8-14.5,3.6-18.9,9.1c4.6-0.3,9.3-0.3,13.9,0
				c0.6,0,1.1,0.1,1.6,0.4c2.5,1.6-1.7,5.7-0.2,8.2c3.6,0.7,6.8-1.9,10.4-2.7c5.4-1.2,11.2,1.9,16.3,0c1.2-0.4,2.4-1.2,3.7-1.2
				c1.6-0.1,3.1,0.9,4.4,1.8c3.3,2.2,6.9,4.6,10.9,5.2c4,0.6,6.8-1.3,10.4-2.6c1.8-0.6,3.6-1.3,5.2-2.3c3.4-2.1,6.6-6.1,10.6-5.2
				c-2.1,13.6-12.8,24-22.3,34.1c-9.5,10-18.8,22.4-17.3,36.1c-5.2,1.9-11.1-0.2-15.6-3.4c-4.5-3.2-8.4-7.4-13.2-10.2
				c-7.5-4.4-17.1-5.1-23.6-10.9c2.4-2.9,1.9-7.4-0.1-10.6c-2-3.2-5.2-5.4-8.3-7.5c-0.7-0.5-1.4-1-2.3-1.1c-1.7-0.1-3,1.3-4.3,2.3
				c-6.3,4.6-14.9-0.3-22.7,0.1c-6.6,0.3-12.3,4.5-17.6,8.6c-0.7,0.5-1.5,1.1-1.7,2c-0.6,1.7,1,3.4,2.4,4.6
				c17.7,14.3,38.4,24.8,60.3,30.7c11.4,3.1,23.1,4.9,34,9.3c5.6,2.3,11,5.2,16.7,7.4c7.8,3,16.2,4.4,24.5,5.2
				c5.7,0.5,10.6,2.1,16.1,3.8c-0.9,1.7-2.8,2.4-4.5,3c-17.2,5.9-34.5,11.7-51.7,17.6c-17.2,5.8-35.5,11.7-53.2,7.7
				c-15.6-3.6-29-14.6-44.8-16.7c-5.2-0.7-10.6-0.4-15.7-1.9c-5.6-1.6-10.3-5.3-14.9-8.9c-12.5-9.8-25.1-19.6-37.6-29.4
				c-1.2-1-2.6-2-4.2-1.8c-2,0.3-3.1,2.5-3.8,4.4c-2.7,7.1-5.5,14.2-8.2,21.2c-2.3,6-4.6,13-1.6,18.6c2.6,4.9,8.3,7.1,13.5,9
				c16,5.7,32.1,11.3,48.1,17c-0.1,2-2.3,3.3-4.2,4c-22.8,8.9-48-0.8-72.3-3.6c-15.4-1.8-31.1-0.7-46.6,0.3c-1.4,0.1-3,0.2-4.1,1.1
				c-1.9,1.5-1.8,4.2-1.6,6.6c1.7,15.4,7.5,31.6,20.3,40.4c8.3,5.7,18.5,7.6,28.4,8.9c23.6,3.1,47.6,3.3,71.3,0.6
				c2.8-0.3,5.8-0.7,8.3-2.1c2.7-1.5,4.7-4.1,6.5-6.7c11.4-16.1,22.2-35.4,41.3-40.5c12.2-3.3,25.1,0.3,37.7,1c11,0.6,22-1,32.8-3.2
				c17.2-3.7,34-9.2,50.6-15.1c17.7-6.4,35.3-13.3,52.6-20.7c6.7-2.8,16.4-5,20.3-11.3c3.3-5.3,3.7-13.2-1.1-17.7
				c-1.8-1.7-4.4-3.2-4.5-5.7c0-1.6,1-3,1.9-4.2c6.8-9.1,11.8-19.5,14.6-30.5c2.5,4.8,5.5,10.2,10.8,11.4c3,0.7,6.1-0.2,9.2-0.2
				c10.4-0.3,14.1,6.5,18.9,13.9c4,6.2,9.7,6.7,16.6,7.9c0.2,1.9,0.6,4.1,0.4,6.2c-0.1,1.7-0.4,3.9-1.5,5c-1.3,1.4-3.5,1.9-6,3.2
				c5,12,9.8,23.4,14.7,34.9c4,0.2,7.3,0.3,10.5,0.5c0.7,1.8,1.5,3.7,2.2,5.5c0.7,1.9,1.5,3.7,2.2,5.6c3.6-2.3,7.3-4.5,10.9-6.8
				c4.1-4.8,5.8,2.8,9.3,1.7c1.9-3.6,4.7-7.1,5.5-11c0.9-4.3,0.1-8.9,0-13.4C594.8,787.1,590.5,786.2,581.8,776.2z"/>
			<path class="st1" d="M1258.1,695.3c-1.6-12.2-3.6-24.4-5.4-36.7c-3.5,3.7-6.1,7.6-7.4,12.7c-0.9,3.7-3.8,7-6,10.4
				c-2.7,4.2-5.6,8.3-8.4,12.5c-3.4,5.2-7.7,9.9-9.9,15.6c-3.1,8.2-11.5,12.9-12.9,22.2c-0.6,3.9-4.1,7.4-6.3,11
				c0.8,2.2,2,4.3,2.5,6.6c1.5,7.1,0.3,20.4,5.3,26.2c4.4,5.1,18.7,7.9,25.1,8.7c10,1.1,20.3-1.6,28.4-7.6
				c5.7-4.1,10.2-9.7,14.6-15.1c2.8-3.5,5.6-6.9,8.4-10.4c7.4,4.6,9.6,14.5,9.7,23.3c0.1,8.8-1.3,17.9,1.9,26.1
				c4.3,11.3,15.8,17.9,26.5,23.6c0.9-19.8,2-40.2,10.5-58.1c2.2-4.7,4.9-9.1,6.5-14c1.6-4.9,2-10.5-0.3-15.1
				c-1.4,2.6-2.8,5.2-4.3,7.8c-7.5-0.6-15.3-1.3-21.5-5.5c-2.5-1.7-4.7-3.9-7.2-5.6c-3.9-2.7-8.6-4.1-13.1-5.5
				c-4.2-1.3-8.5-2.6-12.9-3.1c-3.6-0.4-7.3-0.3-10.7-1.6C1261.1,719.6,1259.4,704.7,1258.1,695.3z"/>
			<path class="st1" d="M1095.6,689.2c0.2-1.8,0.7-4.1-0.1-5.4c-6.6-11-0.7-22.6-2-33.8c-0.7-0.1-1.4-0.2-2.1-0.3
				c0,3.3,0,6.5,0,10.5c-6.4-0.6-11-1.5-14.4-7.1c-1.6-2.7-5.8-4.6-9.2-5.2c-6.7-1.3-11.8-4.9-17.5-8.3c-6.6-3.9-10.7-9.5-15.9-14.4
				c-5-4.7-7.6-10.6-9.8-17.1c3.2-4.5,8.2-4.7,12.5-6.1c5.6,1.6,6.7,13.9,16.6,6.6c-5-8.4-9.9-16.5-14.7-24.5
				c-3.8-0.9-7.5-1.7-11.6-2.6c2-5.7,3.6-10.2,5.2-14.5c5.1-0.7,10.3-1.3,15.9-2.1c0-4.2,0-7.7,0-12.2c-3.3-1-6.7-2-10.1-3
				c-9.6-2.7-14-10.2-17.3-18.6c-0.5-1.3,0.7-3.4,1.2-5.1c2-6.3,0.7-9-5.7-11.6c-3.7-1.5-7.9-2.2-9.6-6.6c7.7,0,15.4,0.1,23.1-0.1
				c1.9-0.1,3.8-1.4,5.7-2.1c-9,0-18.1,0-27.1,0c-6.1,0-11.9,1.3-17.2,4.4c2.5,0,5,0,7.3,0c-0.3,1.9-0.4,3.2-0.6,4.4
				c-1.6,2.5-2.9,5.1-4.8,7.3c-1.3,1.5-3.5,3.6-5.1,3.5c-8.1-0.6-11.5,5.3-16.7,10.5c9.7,4.7,11.7,13,11,22.2
				c-0.4,6,1.1,10.8,5.9,14.5c1.3,1,2.1,2.8,3.1,4.2c-2.8,4.1-5.7,5.5-9.5,2.4c-2-1.6-3.7-3.6-5.6-5.3c-4.2-3.6-7.7-0.5-11,1.5
				c-3.6,2.1-3.3,5.5-1.2,8.6c2.2,3.3,4.9,6.4,7,9.8c8.9,14.4,21.9,24,36.9,31.1c3.6,1.7,7.8,3,10.8,5.5c3.8,3.2,8.4,7,9.6,11.4
				c1.5,5.6,1.5,12.2-0.8,19c-9.6-6-12.8,3.2-18.7,6.3c0.9,3.5,1.6,6.3,2.3,9.1c3,4.5,6.2,0.4,8.5-0.5c8.1-2.8,15.5-2.4,22.5,2.6
				c9.9-3.5,9.9-3.5,13.3,6.7c0,0.7,0,1.5,0,2.2c0.4,6.2,6.4,5.8,10,8.3c3.3,2.3,4.9,4.2,1.1,7.2c-3.4,3.7-6.8,7.5-11,12.1
				c0.2,7.4,5.6,13.9,9,21.1c0.5,1.1,2.4,2.4,3.4,2.2c4.6-0.9,10.4-0.9,13.4-3.8c6.2-6,12.1-12.9,11.9-22.6
				C1094.3,704.4,1095,696.8,1095.6,689.2z"/>
			<path class="st1" d="M1108.3,677.1c-0.2,0.4-0.4,0.8-0.7,0.9c-6.4,2.8-6,9.4-6.7,14.1c-2,12.4-5.6,25-0.7,37.6
				c0.7,1.9,0.2,4.3,0.2,6.5c3.6,4.9,3.1,11.1-1,13.8c-8.2,5.4-4.9,13.6-8.1,21c0.2-0.4,25.1-1.7,27.4-2.2c10.1-1.8,20-4.8,29.5-8.7
				c2.2-0.9,4.4-1.8,6.7-2.2c4.8-0.7,9.6,1.4,13.9,3.7c4.3,2.4,8.5,5.2,13.3,6.1c4.8,1,10.5-0.4,12.9-4.6c2-3.6,1.2-8.1,1.5-12.3
				c0.6-6.9,4.6-12.9,7.4-19.2c2.9-6.3,4.5-14.1,0.7-19.8c-1.3-1.9-3.1-3.5-3.7-5.7c-1.4-5,4.2-9.8,3.3-14.9c-0.4-2.7-2.7-5-2.9-7.7
				c-0.2-2.9,1.8-5.5,2.3-8.3c0.7-4.4-2.4-8.4-5-12c-4.6-6.5-7.8-14-9.6-21.8c-1.4-6.1,1.1-15.3-6-16.6c1.2-2.3,2.3-4.3,3.5-6.4
				c-1.1-0.2-1.8-0.6-2.2-0.4c-1.3,0.7-2.3,1.9-3.6,2.5c-7.3,3.9-8,3.6-12.1-4.1c-2.4-4.4-4.2-5.4-8.7-3.1
				c-6.2,3.1-12.5,5.6-19.5,6.4c-5.7,0.6-11.1,0.3-15.9-3.2c1.3,4.1,2.7,8.1,3.8,12.3c0.7,2.7,1.7,5.7-1.7,7.6
				c-6.2,8.4-13.6,16.1-15.8,26.8c-0.6,3.2-1.2,6.4-1.9,9.6C1108.8,674.3,1108.7,676,1108.3,677.1z"/>
			<path class="st1" d="M1048.5,506.6c6.9-0.2,13.9,3.5,20.7-0.7c2.4-3.4,10.1-2,8.4-9.4c-5.8-4.4-12.7-3.9-19.6-3.9
				c-6,0-7.3,6.3-11.8,9c-1.4-1.8-2.5-3.2-3.6-4.6c-0.7,0-1.4,0-2.2,0c0.1,2.5,0.3,5,0.4,7.8
				C1043.7,505.6,1046.1,506.7,1048.5,506.6z"/>
			<path class="st1" d="M956.4,628.2c-3.2-2.3-7.5-3.4-10.2-6.1c-6.5-6.5-12.3-13.6-17.8-19.8c-6-1.3-11.5-2-16.7-3.7
				c-7-2.2-8-4.5-6.9-12.2c1.2-8.1-0.9-9.8-10.8-7.8c0.4,3.1,0.9,6.2,1.3,9.4c0.3,2.5,1.4,5.5,0.4,7.4c-4.1,8.2,0.7,12.7,6.5,16.4
				c4.1,2.6,6.3,5.6,7.1,11.3c-6,0.9-11.5,1.7-17.9,2.7c-1.3,2.2-3.2,5.4-4.8,8.2c-8-5.9-15.2-11.1-22.6-16.5
				c-4.3,2.5-8.7,5-13.1,7.5c-2.8-3-5.2-5.6-7.7-8.3c2.8-2.5,5.6-5.1,8.8-8c-5-2.7-9-4.9-13-6.9c-1.8-0.9-4.3,2.2-2.9,4
				c3,3.7,1.2,5.8-1.4,8.2c-5.6-2.7-5.6-2.7-7.5-8.3c-4.5-0.2-5.5,7.4-11.7,4.6c0-2.7-1.2-6.7,0.2-8.7c4.3-6,1.1-11-1.1-15.9
				c4.7-8.1,10-14.9,17.7-20.1c1.4,1.3,2.9,2,3.4,3.2c1.9,5,5.7,5.8,10.6,5.9c5.3,0.2,8.9-2,12.5-5.6c5-4.9,9.2-12,18.4-9
				c0.9,0.3,2.8-1.1,3.5-2.2c2.4-4.1,5-8.2,6.5-12.6c1.9-5.4-5-13.6-8.5-16.9c-7.2-6.8-12.2-16.5-17.7-24.9
				c-2.7-4.1-5.4-8.2-7.4-12.7c-1-2.3-2.3-4.9-4.7-5.3c-1.6-0.2-3.2,0.8-4.5,1.7c-2.2,1.5-4.3,3-6.2,4.9
				c-6.3,6.4-8.3,16.7-15.8,21.7c-3,2-6.6,2.9-9.8,4.5c-6.4,3-11.4,8.4-15.1,14.4c-6.2,10-9,21.3-13.4,32.1c-1.2,3-3.8,5.2-6.1,7.5
				c-5.8,5.8-10.4,12.8-13.5,20.4c-3.4,8.5-5.9,17.8-13.4,23.6c-3.2,2.5-6.4,6.4-7.3,10.3c-1.3,5.7-3.7,10.2-7.8,14.1
				c-1.3,1.3-2.4,2.7-3.4,4.3c-5.6,8.6-5.6,8.7-16.7,5.2c2.9,3.6,4.7,5.8,6.9,8.6c-5.6,5.1-11.2,10.3-16.9,15.4
				c-2.8,4-10.2,4.8-8.4,12.4c0.3,1.1-4.2,3.6-6.7,4.9c-2.2,1.2-4.7,1.8-7.1,2.6c0,0.4,0,0.7,0,1.1c0,1.4,0,2.9-0.7,3.9
				c0.7-1.1,0.7-2.5,0.7-3.9c0-0.4,0-0.7,0-1.1c-8.1,2.2-16.2,4.4-24.3,6.6c-1.3,3-3.4,4.6-6.9,4.1c-8.9-1.2-8.9-1.1-16.8,4.2
				c-10.5-6.2-11.5-8.6-7.1-17.4c0-2.9-0.1-5.8-0.1-8.7c-1.3-2.6-2.9-5-3.7-7.7c-0.7-2.4-0.6-5-0.8-7.6c-0.2-2.4-0.5-4.8-0.7-7.2
				c-0.3,0-0.7,0.1-1,0.1c-0.9,9.9-1.7,19.9-2.5,29.7c-2.8,0-5.4,0-8.2,0c0.5,1.6,0.9,2.7,1.2,3.7c5.5,1.9,4.7,6.2,3.5,10.6
				c2.1,0,3.6,0,5.5,0c0.2,0-4.4,5.9-5.2,6.5c-2.4,1.7-5.3,2.4-7.7,4c-6.5,4.5-12.3,11.1-17.3,17.2c-2.2,2.6-4.2,5.3-5.3,8.5
				c-1.1,3.2-1,6.7-0.9,10.1c0.3,5.9,0.8,11.9,1.7,17.7c0.3,2,0.6,4.1,1.9,5.7c1.9,2.5,5.2,3.2,8.3,3.2c3.1,0,6.2-0.6,9.3-0.1
				c0.3,2.2,3.9,1.1,5.7,2.4c1.4,1,1.3,3,1.7,4.6c1.1,4.3,6.1,6.2,9.3,9.2c3.3,3.1,4.9,7.6,7.4,11.4c0.6,0.9,1.3,1.8,2.3,2.3
				c0.9,0.4,2,0.4,3.1,0.3c6.2-0.7,12.8-3.5,18.2-0.4c4.3,2.5,7.2,8.4,12,7.7c4.2-0.6,5.9-5.6,8.2-9.1c2.9-4.4,7.7-7.4,10.3-12
				c1.5-2.6,2.1-5.7,3.3-8.4s3.1-5.5,6.1-6.3c0.3,7.2,0.7,14.4,1,21.6c0.1,2.4-0.6,6.9,0.9,8.9c1.4,1.9,5.8,3,7.9,4.1
				c3.1,0.5,6.2,1,9.4,1.4c1.2-2.6,2.5-5.4,3.8-8.1c6.3-15.8,5.6-31.8,1.2-47.9c-2.8-0.4-6.6,1.6-7.7-3.1
				c-4.1-6.8-3.1-13.7-0.3-20.6c0.8-2,1.7-3.9,2.5-5.9c-0.7-2.3-1.3-4.5-2-6.8c0-1.4,0-2.8,0-4.2c-0.4-3.4,0.2-6.1,3.1-8.5
				c4.3-3.5,8.1-7.7,12.1-11.6c0.1-0.7,0.1-1.4,0.2-2.1c0.8-2.7,0.9-6.6,2.7-7.8c6-3.9,9.8-9.8,14.3-14.9c4.2-4.7,9.4-7.3,15.2-8
				c4.7-0.5,8.1-2,11.7-5c3.3-2.8,7.6-4.3,11.5-6.4c3.9-4.8,8.9-0.8,13.4-1.5c2.8-4.6,5.6-9.2,8.4-13.8c-2.2-7.8-5.8-15.2-5.6-24
				c1.5,1,2.2,1.3,2.7,1.8c8.8,8.4,8.8,8.4,15.5-1.5c0.1-0.2,0.6-0.2,1.8-0.5c1,2.7,1.9,5.4,3.1,8.6c2.9-1.9,5-3.3,7.1-4.6
				c3.1-3.7,7.4-1.4,11.1-2.1c2.2,2.4,4.1,5.2,6.5,7.3c7.6,6.5,11,15.3,13.2,24.5c2.3,9.9,3.5,19.9,2.7,30.1
				c1.5-4.1,2.9-8.3,4.9-13.8c1.2,3,1.7,4.3,2.2,5.7c9-4.2,6.6-3.3,10.8,6.4c1.6-1.8,2.9-3.5,4.2-5c2.2-2.5,4.2-5.1,6.7-7.2
				c0.7-0.6,2.8,0.5,4.3,0.9c0.7,1.5,1.9,2.9,2.1,4.4c0.3,3.1,1.3,5.4,4.4,6.5c0.6-2,1.1-4.1,2.3-8.1c2.1,4.9,3.4,7.7,4.6,10.5
				c0.7,0,1.4,0.1,2.1,0.1c-0.6-2.4-1.1-4.9-1.6-6.8c2.3-2.9,4.7-5.3,6.4-8.1c3.6-6.2,9-12.1,4.5-20.3c-0.5-0.8-0.4-2.6,0.1-3.2
				c5.8-5.8,9.2-14.2,18.2-17.1c2.6,2.9,5,5.6,7.7,8.6c1.2-0.4,3-1.7,3.9-1.3c2.9,1.6,5.5,3.8,8.4,5.9
				C961.3,632.8,958.9,630.1,956.4,628.2z M674.7,712.9c0.3-0.4,0.5-0.9,0.6-1.4C675.2,712.1,675,712.5,674.7,712.9z"/>
		</g>
		<g>
			<path class="st2" d="M600.1,694.3c-2-7.8-3.9-15-5.8-22.1c-10,0.7-18-2.1-25.2-6.6c-3.6-2.3-8.4-5.7-8.8-9
				c-0.8-6.1-4.4-6.8-8.5-7.2c-0.8-3.7-1.5-6.8-2.1-9.8c-8.4,1.1-8.4,1.1-10-4.8c-0.5-1.7-0.8-3.6-1.5-5.2c-2.4-5.8-3.4-6.1-10-4.8
				c-1,0.2-2.1,0.2-2.8,0.3c-2.8-2.9-4.8-6.4-7.8-7.8c-4.8-2.2-5.9,4.3-7,4.9c-2.2,1.2-12.8-1.1-14.7-2.5c-2-1.5-2-4.3-4.3-5.8
				c-2.3-1.5-5.7-1.3-8.2-0.9c-4,0.6-8.3,2-12.1,0.5c-1.1-0.4-2.1-1-3.2-1.3c-5.2-1.1-10.2,6-14.9,3.7c-2.9,4-6.9,7.2-11.4,9.2
				c-0.7,0.3-1.5,0.6-2.1,0.2c-0.7-0.3-1-1.1-1.3-1.7c-1.5-3-4.5-5.2-7.8-5.7c-5.9,7.4-16.3,10.8-25.5,8.4c-2.9-0.8-5.7-2.1-8.7-1.8
				c-5.4,0.6-8.9,7.5-6.2,12.1c4.2,1,9.1,2.7,9.8,7c0.2,1.2,0,2.4,0.1,3.6c0.3,4.2,4.3,8.7,7.3,11.2c2,1.7,5.1,3.1,7.2,1.5
				c1.7-1.3,1.9-3.9,1.1-5.9c-0.8-2-2.2-3.7-3.1-5.6c-0.8-1.6-2.9-6.7-2.2-8.6c1-2.7,4.1-4.1,5.9-0.9c0.9,1.7,0.7,3.7,0.2,5.5
				c4.9,4,12.1,5,17.9,2.4c4-1.8,7.5-5.2,11.9-5.6c5.1-0.4,9.5,3.4,14.4,4.8c5.3,1.5,11.2,0.1,16.5,1.6c11.6,3.3,16.4,18.8,28,22.3
				c2.1,0.6,28.9,3.1,28.9,2.3c0,6.1,0,11,0,15.7c-3.9,1.1-6.8,2-10.5,3c1.1,2.3,1.9,3.9,2.7,5.5c5.3-0.8,10.7-1.5,14.9-2.2
				c4.9,6,9.1,11.3,13.6,16.9c-1.1,4.1-2.2,8.4-3.4,12.8c0.5,0.3,1.1,0.5,1.6,0.8c3.3-5.1,6.6-10.2,10.3-15.9
				c3.3,4.4,5.9,7.7,8.5,11.1c0.6-0.6,1.2-1.1,1.7-1.7c0.7-0.1,1.9,0.1,2.1-0.2c4-6.3,10.8-6.3,15.1-3.2c4.4,3.2,6.1,0.7,8.9-0.8
				c0.6-0.9,1-2.1,1.8-2.6c8.1-5.4,8.1-5.3,1.1-11c1.6-3.5,8.8,0,8.2-6.3C607.4,694.3,604.1,694.3,600.1,694.3z"/>
			<path class="st2" d="M1224.2,543.6c-4.1-1.2-7.4-0.2-9.8,3.4c0.9,1,1.9,2.1,3.2,3.6c-2.4,1.3-4.4,2.3-6.4,3.4
				c1.6,2,2.9,3.6,4.1,5.2c-1.1,1.7-2.2,3.5-3.7,5.7c-3.9-4.3-8.1-4.2-12.5,0c-1.5,1.4-3.8,2-5.7,3c-0.9-2.2-1.9-4.4-2.4-5.7
				c4.9-4,9.2-7.1,12.9-10.7c5.4-5.2-4.3-10,0.8-16.5c-3.9,2-6,3-7.8,3.9c-5.8-2.7-2.6-8.3-4.2-10.8c-2.8-0.9-4.6-1.5-6.5-2.1
				c0.1-2.2,0.2-4.4,0.4-6.6c1.3-13.4,2.7-26.7,4-40.1c0.4-2.4-0.5-5,2.8-6.5c4.2-1.9,7.6-0.9,10.5,1.9c2.3-2.2,4.1-3.8,6.1-5.6
				c-2.6-3-4.9-5.7-6.8-7.8c0.9-2.2,2.3-4.8,2-5c-5.6-3.8-2.3-9.2-2.7-13.2c-2.1-0.8-4.4-1-5.4-2.3c-2.1-2.7-4.3-4.7-7.1-1.7
				c-3.1,3.5-5-1.4-8.6-0.1c6.3,3.8-3.5,8.5,1.9,12.9c-2.4,0.4-4.5,0.8-6.6,1.2c-2.2,0.5-4.4,1.1-6.4,1.5c0.3-2.2,1.2-4.3,0.5-4.9
				c-4.3-4.4-8.9-8.4-13.4-12.6c-1.5,2.6-3,2-4.4-0.1c-3.3,2-6.6,3.9-10,5.9c1.8,9.2,1.7,9.2-5.9,14.3c-1.7,1.1-2.9,3-4.3,4.6
				c1.1,0.4,3.2,0.7,3.2,1.3c0.3,2.7,0.2,5.5,0.2,9.2c4.1,0,8.4-0.4,12.5,0.2c1.5,0.2,3.6,2.6,3.7,4.1c0.2,2.7-1.6,4.3-5,4.3
				c-7.2-0.1-9.1,1.6-11.2,8.7c-6.1-3-5.2-10.6-9.6-14.5c-1.5,1.4-3,2.8-5.2,4.9c-2-4.1-3.5-7.2-5.1-10.4c-8.1,1.5-8.1,1.5-13.8,8
				c3.8,8.3,3.8,8.3-1,12.5c-1.4-1-2.8-2.4-4.4-3c-1.8-0.7-3.9-0.6-6.5-1c1.3-2.5,2.3-4.6,3.8-7.4c-3.4-2-6.8-4.1-10.1-6.1
				c0-0.7,0-1.4,0.1-2.2c2.1-0.3,4.4-1.4,6.3-0.9c3.2,0.9,5.4,0,6.2-2.8c1-3.9-2.4-5-5.1-5.9c-3-1-6.2-1.4-9.3-2.1
				c-0.4-1.3-1.5-3-1-3.8c1.4-2.4,3.4-4.5,5.2-6.8c-5.3-4.2-9.6-9.2-16.7-5.5c-0.5,9.8-0.5,9.8-6.9,8.5c-3.7,3-6.6,5.3-9.5,7.6
				c1.5,3.8,3,7.6,4.5,11.4c0.3-1.3,0.6-2.5,1.2-5.2c4.5,4.6,8.1,8.2,11.6,11.9c-2.1,0.7-4.3,1.5-6.4,2.2c-0.2,1-0.3,2.9-0.7,3
				c-6,1.3-8.5,7.4-13.4,10.1c-2.7,1.5-5.4,3.1-8.1,4.7c1.1,1.4,2.2,2.8,3.6,4.6c4.5-2.7,5.8-9,11.8-9c6.9,0,13.8-0.5,19.6,3.9
				c1.7,7.3-5.9,6-8.4,9.4c4.1,6.9,5.8,8,12.1,7.3c1.1-0.1,2.4-0.7,3.2-0.3c11.8,6,25.9,9.1,31.1,23.7c2.5,6.8,6.9,10.3,14.3,11.9
				c4.9,1,9.4,4.1,16.9,1.9c-1.7,2.9-2.2,4-2.9,4.7c-2.7,3-1.5,5.5,1.1,7.4c2.4,1.7,5.1,3.1,7.8,4c15.7,5.3,30.1,12.8,42.8,23.6
				c2.5,2.1,6.9,1.8,6.5,6.7c3.5-8.2,7-16.4,10.4-24.7c1.8-4.3,3.3-8.7,5-13.1C1219.7,553.9,1222,548.7,1224.2,543.6z M1176.8,530.9
				c-0.1,0-0.1,0.8,0.1,1c0.2,0.3,0.6,0.4,0.9,0.6c0.6,2.1,1.4,4.1,1.8,6.2c1,4.8,0,5.9-6.4,7.2c-1.2-3.1-6,2-6.7-3.1
				c-0.3-2.4-2-4.5-3.3-7.2c1-3.9,2.2-8.3,3.3-12.7c-0.5-0.2-0.9-0.5-1.4-0.7c-2.4,2.7-4.8,5.3-7.2,8c-0.5-0.2-1.1-0.5-1.6-0.7
				c0.5-3.7,1-7.3,1.6-11.7c2.9,0.2,5.4,0.4,9.5,0.7c-3-4.2-5.1-7.1-8.2-11.4c1.4-0.5,3.2-1,4.7-1.5c-1.5-2.4-2.3-3.6-3.6-5.6
				c2.9,0.2,5.2,0.3,7.6,0.4c0.2-0.6,0.4-1.2,0.5-1.7c-3.4-1.6-6.8-3.2-10.3-4.8c0.8-7.7-5.5-14.2-1.7-22.6c2.3-0.8,5.3-1.8,8.1-2.8
				c9.8,7.6,9.8,7.6,15.1-0.1c1.5,2.1,2.4,4.8,4.3,5.7c2.4,1.2,4.8,1.8,4.6,5.1c-0.7,2.1-1.9,4.1-2,6.2c-1,10.5-1.5,21.1-2.6,31.6
				C1183.7,522.5,1184.7,529.2,1176.8,530.9z"/>
			<path class="st2" d="M1262,673.9c0.9,1.2,2.2,2,3.3,3c7.5,6.5,6.5,19.6,14.5,25.5c3.9,2.9,8.9,3.3,13.6,4.3
				c8.1,1.7,15.7,5.3,22.2,10.3c2.9-9.2-3.2-18.9-10.6-25.1c-1.6-1.3-3.3-2.6-4-4.6c-0.5-1.5-0.4-3.1-0.3-4.7
				c0.3-7.1-1.1-14.3-4-20.8c-4,1.7-8.7,2.7-12.6,0.6s-5.3-8.3-1.7-10.7c1.3-0.9,2.9-1.1,4.2-1.9c3.7-2.2,3.8-7.6,2.4-11.7
				c-1.4-4.1-3.8-8-3.5-12.3c0.4-4.7,4-8.5,7.3-11.8c4.4-4.3,8.8-8.6,13.2-13c6.6,3.2,11.5,9.7,12.8,16.9c1-6.8,10.5-10,11.1-16.8
				c6.3,1.7,11.2,7.9,11.2,14.5c0.2-11.6-5.8-23.1-15.3-29.6c-1.4-0.9-2.8-1.8-4-3.1c-4.5-5.1-2.2-15-8.4-17.7
				c-2.7,4.9-4.7,10.1-6,15.6c-4-1.3-8.8,1.9-9.2,6.1c-0.2,2,0.5,4,0.7,6.1c1.1,11.4-13.3,18.6-15.7,29.8c-0.4,2-0.6,4.3-2.1,5.7
				c-0.9,0.8-2.1,1.2-3.2,1.6c-5.1,1.8-9.7,5-13.1,9.1c0.2-7.4-0.6-14.9-2.2-22.1c-2.1-9.2-3.1-9-12.1-9c-0.9,3.5-1.7,7-2.9,12
				c-2.7-2.6-4.2-4.1-5.7-5.5c1.5-8.9,2.9-17.9,4.4-26.8c-0.7-1.4-1.4-2.9-2-4.3c-0.7,1.5-1.8,3-2,4.6c-1.6,9.5-2.9,19.1-4.4,28.7
				c-2.2,2.6-3.5,0.2-3.8-1.1c-0.6-3.1-0.6-6.4-0.8-9.6c-0.7-10.4-1.3-20.8-2-31.2c6.3,0,10.8,2.6,13,8.7c0.7,1.4,1.4,2.9,2,4.3
				c0.8-5.3,1.1-10.9,2.7-16c1-3.1,4.1-5.6,6.2-8.4c0.5-9.3-4-18.5-0.4-28c0.7-1.9-0.6-4.2-3.7-3.9c-4.3,0.5-4.3-2.9-4.8-5.7
				c-2.8,6.3-7.1,12.4-8,18.9c-1,7.2-3.3,13.1-7.2,18.9c-2.1,3.2-3,7.3-4.5,11c0.6,0.1,1.3,0.2,1.9,0.1c0.4,6.2,0.7,12.3,1.1,19.6
				c-1.8,1.6-4.4,3.9-7.1,6.3c-1.3-2.3-2.5-5.4-4.2-7.4c-1.3-1.6-3.7-1.2-5.4-0.2c-1.4,0.8-2.7,2-4.2,2.3c-0.6,0.1-1.3,0.1-1.9,0.3
				c-0.6,0.2-1.2,0.6-1.3,1.3c-0.1,0.7,0.5,1.3,1.1,1.6s1.3,0.5,1.9,0.9c1.3,0.8,1.7,2.5,2.5,3.8c0.9,1.3,2.2,2.1,3.4,3.1
				c1.7,1.4,3.1,3.1,4.1,5c1.1,2,1.2,4.3,1.4,6.6c0.7,6.6,3.1,11.9,9,15.3c2.8,1.6,4,2.9,3.5,6.8c-0.3,2.3,1.3,4.8,2.7,6.5
				c0.6,0.7,1.4,1.2,2.2,1.2c1.2,0,2.3-1,3.6-0.9c0.8,0,1.6,0.6,2.4,0.6c1.2,0.1,2.2-0.7,3.2-1.5c0.9-0.7,1.7-1.4,2.6-2.1
				c0.2-0.2,0.5-0.4,0.8-0.5c0.3-0.1,0.7,0,1,0.2c2,1,1.7,3.6,2.9,5.1c1.2,1.6,2.7,2.8,2.8,5c0,1.6-0.7,3.6,0.5,4.8
				c0.5,0.5,1.2,0.7,1.7,1.1c0.9,0.7,1.3,1.9,1.6,3.1c0.3,1,0.8,2.2,0.8,3.3c0,0.8-0.3,1.7-0.3,2.5
				C1260.5,670.3,1260.8,672.3,1262,673.9z M1230.5,622.1c-2.3-3.6-4.6-7.2-7.1-11.2c1.5-2.7,3.2-6,5.7-10.6
				C1232.5,608.4,1229.6,615.4,1230.5,622.1z"/>
			<path class="st2" d="M849,459.2c2.4-2.4,4.7-4.6,7.4-7.3c-6.2-1.9-9.4-8.4-16.1-5.1c-1.1,2.6-2.3,5.4-3.7,8.8
				c-3.2-1.6-5.6-2.8-8.5-4.3c3,5.8-7,8.1-2.6,13.5c3.1,3.8,6.5,7.5,10.3,11.7c-2.3,0.8-5.4,2.8-6.7,2c-4.5-2.9-8.4-6.4-14.2-3
				c-6.6-5.6-13.5-1.6-20.5-1.5c-5.8,0.1-5.1,6.6-9.6,6.7c0.6,0.7,1.3,1.4,1.9,2.1c-6.3,5.3-11.8-0.8-17.8-0.9
				c-1.5,2.8-7,2.1-6.3,7.2c0.9,6.1-6.6,1.5-7.3,5.6c1.5,1.5,4.5,3.9,4.2,4.4c-2.3,4.2,3.9,2.2,3.1,5.5c-1.7,2-3.8,4.5-5.3,6.4
				c1.5,3.8,2.8,7,4,10.1c3-0.2,6.5,1.3,8.9-2c2-3.2,3.8-1.9,3.9,0.8c0.4,5.8,0.1,11.7,0.1,17.7c-3,0.8-5.3,1.4-6.4,1.7
				c-1.2,4.1-2.1,7.3-3.1,10.8c-3.2-1.5-5.3-2.4-7.7-3.5c0.6,3,1,4.9,1.4,7c-3.1,0-5.2,0.2-7.3,0c-6.9-0.8-6.8-0.8-10.8,6.2
				c-0.7,1.2-2.8,1.7-4.3,2.5c1.4,0.7,2.7,1.4,4.6,2.3c-5.6,2.1-8.9,5.9-9.4,11.6c-13.5-3.7-14.1,7.4-18.1,14.1
				c5,3.6,12.1,4.1,14.9,10.7c0.7,0,1.6,0.3,2.1-0.1c1.6-1.3,3.1-2.9,4.6-4.4c0.1-2.5-0.9-5.5,2.6-6.6c0.1-2.8-4.3-6.1,0.6-8.2
				c3.3-1.4,7.1-1.9,8.1,3.4c4.1-4.6,7.8-2.1,13.8,1.1c-3.7,0.7-5.5,1.3-7.2,1.4c-4.4,0.2-6.8,2.2-6.9,6.6c2.3,6.7,2.1,7.4-3.1,8.8
				c-3.8,1-7.7,1.9-12.2,3c0,4.5,0,8.5,0,12.5c1-2.5,2-5,3-7.4c7.8,10.3-0.4,15.7-5.6,22c-2.2-0.7-3.8-3.7-6.2-1
				c-0.4,1-0.5,2.5-1.1,2.9c-2,1.1-4.3,1.7-6.5,2.5c1.9,1.7,1,3,0.3,5.2c-2,6-7.8,7-11.7,10.7c-0.4,3.5,6.2,4.9,3.4,9.6
				c-4.5,1.8-9,3.6-14.8,5.8c2.7,2.5,4.2,3.9,5.7,5.2c-0.4,0.6-0.9,1.6-1.3,1.6c-9.5-0.5-18.7-1.6-22.7-12.4
				c-0.6-1.6-1.3-3.1-1.9-4.5c-8.5,1-15,4.5-17.9,11c-1.4,3.1-3.2,4.8-5.9,5.8c-8,2.9-13.7,8.2-16.7,16.2c2.8,3.5,5.6,7,9.2,11.4
				c2.9-4.8,5.1-8.5,10.4-5.3c2.6,1.6,6.1,1.8,9.2,2.7c8.1-2.2,16.2-4.4,24.3-6.6c2.4-0.9,4.9-1.4,7.1-2.6c2.5-1.4,7-3.9,6.7-4.9
				c-1.8-7.6,5.5-8.4,8.4-12.4v0c5.7-5.2,11.3-10.3,16.9-15.4c-2.2-2.7-3.9-4.9-6.9-8.6c11.1,3.4,11.1,3.4,16.7-5.2
				c1-1.5,2.1-3,3.4-4.3c4.1-3.9,6.5-8.4,7.8-14.1c1.9-7.9,8.3-9.2,13.8-13.6c1.2-1,2.4-2,3-3.4c0.6-1.5,0.4-3.3,0.6-5
				c1-8.4,12.8-11.9,14.4-20.2c0.2-1.3,0.2-2.8-0.8-3.8c-1.9-1.9-4.3-0.1-6.5-0.5c-2.5-0.5-3.1-1.7-5-3.6
				c-3.4-4.6-6.9-9.2-11.6-15.5c3.5,1.2,5.2,1.7,7,2.3c5.7,1,1.5-4.3,3.6-5.6c3.7,4.4,5.7,5.6,14.5,8.6c0.2-2.9-0.4-6,0.8-8.3
				c2.6-5.2,11.4,1.9,16.1-3.2c2.1-2.2,2.8-5.7,1.7-8.5c-0.4-1-1-2.1-0.8-3.2c0.2-0.9,0.9-1.5,1.5-2.2c2.9-3.4,1.9-7.4,0.5-11.1
				c-2.2-1.5-4.5-2.9-6.7-4.4c-6.1,4.2-3.2,11.4-5.3,17c-4.7,1.1-7.6-0.3-7.8-5c-0.3-7.2-0.1-14.4-0.1-22.9
				c5.1,3.4,9.1,6.1,13.2,8.8c2.9-1.4,7,0,10.1,0c4.2,0,8-1.9,12.2-2.6c0.4-0.1,0.9-0.2,1.2-0.5c0.3-0.4,0.4-0.9,0.4-1.4
				c0.6-9.2,6.4-10.1,12.5-14.9c4.3-3.4,8.3-7.1,12.2-10.8c2.3-2.2,4.7-4.4,7-6.6c5.5-5.1,13.2-10.8,15.6-18.1
				c0.3-1,1.2-1.8,1.8-2.7C857.2,466.2,851.3,465.8,849,459.2z M792.7,519.1c-4.3-4.1-4.3-4.1-6-13.5c3.5,2.6,6.2,4.6,9.9,7.3
				C795.4,515,794.1,517,792.7,519.1z M798.1,508.1c4.4-9.1,4.4-9.1,10.3-6.7C803.4,508.3,803.4,508.3,798.1,508.1z M818.8,497.4
				c-4.6-3.9-8.1-6.9-13.1-11.2c3.9-0.4,6.6-1.2,9.4-0.9c2.7,0.2,6.5,0.6,6.5,4.3C821.7,491.9,820,494.3,818.8,497.4z"/>
		</g>
	</g>
	<path class="st3" d="M804.6,172.4c-0.7,3-1.4,6-2.2,9c-2,1.8-4,3.6-5.6,5.7c-1.3,1.7-3.5,2-5.5,2c-7.1-0.1-13.8-3-20.1-6.2
		c-3.3-1.7-6.5-3.5-9.3-5.9c-2.7-2.3-4.6-5.1-5.9-8.4c-0.5-1.2-0.6-1.4,0.4-2.6c0.4-0.6,1.1-1.3,1.7-1.7c1.6-0.8,3.5-1,5.3-0.8
		c4.9,0.7,9.8,2.3,14.1,4.7c0.4,0.2,0.8,0.4,1.2,0.4c0.8-0.1,1.1-1.1,1.2-2c0.2-1.9,0.3-3.8,0.2-5.6c0-0.3,0-0.6-0.2-0.9
		c-0.2-0.4-0.8-0.6-1.3-0.8c-1.6-0.5-2.2-1.8-3.8-2.3c5-0.3,9.1,0.7,14.1,1.4c1.9,0.3,3.8,0.7,5.5,1.5
		C799.2,162.1,801.9,168.2,804.6,172.4z"/>
	<path class="st4" d="M755.7,168.1c3.5,0.9,7.4,3.4,8.9,4.6c1.7,1.3,3.3,2.9,5.1,4.1c1.7,1.1,4,1.4,5.9,0.8c1.3-0.4,2.5-1,3.7-1.2
		c1.4-0.3,3.2-0.4,3.8-1.7c0.3-0.7,0.3-1.6,0.9-1.9c0.4-0.2,1-0.1,1.4,0.3s0.6,0.8,0.8,1.2c0.6,1.1,1.3,2.1,2.1,3
		c0.1,0.1,0.2,0.3,0.4,0.3c0.2,0,0.3-0.1,0.4-0.3c0.5-0.6,0.8-1.4,1.4-2c0.8-0.7,2.6-1.2,3.4-0.3c0.9,0.8,1.1,3.7,1.4,5
		c0.1,0.4,0.2,0.9,0.5,1.2c1.4,1.9,4.7,0.5,6.4,0c0.4-0.1,1-0.2,1.3,0.1c0.2,0.2,0.2,0.5,0.2,0.7c0,2.1-0.2,4.3-0.4,6.4
		c-0.1,0.8-0.2,1.6-0.6,2.3c-0.6,1.1-1.9,1.7-3,2.1c-5.4,2-11.4,1.8-17.2,1.6c-0.5,0-0.9,0-1.3-0.3c-0.9-0.6-0.6-1.7-1.1-2.5
		c-0.5-0.8-1.6-1.4-2.3-1.9c-1.6-1.1-3.5-1.8-5.3-2.3c-3.6-1.1-7.6-1.9-10.6-4.3c-2.7-2.2-4.8-5.4-6.9-8.3c-1.5-2-2-4.9-5.4-4.5
		C750.4,167.6,752.9,167.3,755.7,168.1z"/>
	<path class="st5" d="M784.2,158.5c0.1,0,0.2,0.1,0.3,0.2c3,1.5,5.4,4.1,6.9,7.1c1.5,3,2.2,6.4,2.4,9.7c0.2,2.8,0.1,5.6-0.8,8.2
		c-0.4,1.2-1,2.3-1.9,3.1c-0.9,0.8-2.3,1.2-3.4,0.8c-2-0.6-2.6-3.1-2.9-5.1c-0.2-1.4-0.3-2.8-0.4-4.3c-0.1-1.5-0.1-3.1-0.8-4.4
		c-0.5-1.1-1.4-2-2.3-2.9c-3.2-3.2-6.6-6.3-9.6-9.6c-0.5-0.5,0.1-2.6,0.4-3.1c0.6-1,1.7-1.3,2.9-1.4
		C777.9,156.8,781.4,157.3,784.2,158.5z"/>
	<path class="st5" d="M840.2,513.7c-0.7-0.7-1.5-1.5-2.2-2.2c-3.7-10.5-3.2-12.8,5.1-19.5c6.1-5,12.7-9.4,15.3-17.4
		c0.3-1,1.2-1.8,1.8-2.7c3.5-7.3,7-14.6,10.5-21.9c5.1-10.7,6.6-22.5,9.3-33.9c4.3-18.2,9.1-36.4,11.9-54.9
		c3.8-25.3,12.5-49.1,21.3-72.8c2.7-7.3,1.8-12.8-3.2-17.9c-6.4-6.7-12.1-14.4-19.7-19.3c-15.5-10-32.2-15.1-50.8-6.5
		c-9.6,4.4-19.9,7.5-30,10.6c-6.1,1.9-9,0.3-11.4-5.3c-1.3-3-2.1-6.4-2-9.6c0.3-9.9,1.2-19.8,1.8-29.7c0.1-1.8,0-3.6,0-6
		c-2.3-0.5-4.3-1.3-6.4-1.3c-18.4-0.4-36.5-14.6-41.9-33c3.4-0.4,4,2.5,5.4,4.5c2.1,2.9,4.2,6,6.9,8.3c4.2,3.5,10,3.5,14.7,6
		c1.3,0.7,2.3,1.5,3.3,2.4c1.2,1,2.9,1.1,4.5,1.4c3.6,0.6,7.3,0.8,11,0.5c0.2,0,0.4,0,0.7-0.1c3-0.3,3.4-1.8,4.2-4.4
		c0.7-2.6,1.5-5.1,2.2-7.7c0.7-3,1.4-6,2.2-9c4,2.6,2.1,6.6,2.3,10c0.9,15.6,1.5,31.2,2.5,46.8c0.1,1.6,1.4,3.1,2.2,4.6
		c4.8-1.3,9-2.5,13.1-3.7c4.3-1.7,8.7-3.4,13.5-5.4c-1-2.4-1.6-4.1-2.4-5.7c-4-8.1-8.1-16.2-12.1-24.3c-1.2-2.4-1.7-4.6,1.3-6.7
		c2.7,4,4.8,7.9,7.6,11c2.9,3.1,6.5,5.8,10.1,8.2c10.3,6.8,18.4,5.6,26.2-3.7c1.1-1.7,2.3-3.5,3-4.6c5.2-0.7,10.1-1.3,14.2-1.9
		c3.8,4,7.2,7.5,10.7,11.2c-0.9,1.2-2.2,2.9-3.7,4.9c2.7,2.8,5.1,5.6,7.8,8c4,3.5,7.5,3.1,9.7-1.7c2.5-5.5,4.1-11.3,6.2-17
		c-0.5-0.3-0.9-0.6-1.4-0.9c-2.4,2-4.7,4.1-7.1,6.1c-0.5-0.3-1-0.6-1.5-0.9c1.1-3.1,2.2-6.3,3.7-10.5c-5.3-0.9-10.1-0.9-14.3-2.6
		c-4.6-1.8-8.7-5.1-13-7.7c-0.3-0.2-0.7-0.1-1.1-0.1c-2.2-2.2-4.4-4.4-6.7-6.6c-0.6-3.4-1.3-6.7-2.3-11.9c6.2,3.9,10.7,6.8,15.3,9.5
		c5,3,10.1,5.9,15.2,8.7c4.6,2.5,9.4,4.9,14.5,7.5c1-2.9,1.4-4.6,2.2-6.2c2.6-5.1,2.5-9.1-4-10.9c0.4-1.1,0.7-2.3,1.1-3.4
		c6.3,6.6,5.7-3.3,8.9-3.8c2.6,4.2,5.1,8.3,7.2,11.8c6.7-0.7,12.6-0.7,18.1-2.2c7.2-2,14.1-5.3,21.1-8c2.9,6.9-2,10-6.6,13.2
		c-4.7,0.1-9.5-0.8-13.5,3.2c-3.4,3.3-11-1.5-12.6,6.2c4.3,2.7,8.4,5.7,12.8,7.9c1.6,0.8,5,2.5,5.5-2.2c0.6-4.6,4.6-3.7,7.8-3.9
		c3,1.5,5.9,3,8.9,4.4c2.8,4.1,5.7,8.2,8.9,12.8c2.1,0.3,4.9,0.7,7.4,1.1c1.2,3,2.1,5.4,3,7.8c2.7-6,4.8-11.7,0.6-17.3
		c-2.9-8.1-2.9-16.2,0-24.4c1.5-0.7,2.9-1.5,4.4-2.2c1.4,3.6,3.3,7.2,4,10.9c1,5.4,4,8.9,9.2,10.7c-4.9,5.5-6.4,10.6-2.2,16.2
		c1.7,2.6,2,5,0.7,8.2c-1.5,3.6,0.4,6.3,4,6.8c12.1-8.9,23.7-17.5,35.3-26.1c0.7,0,1.5,0,2.2,0c2,1.3,4.1,2.7,6.3,4.1
		c-3.4,6.3-0.9,11.4,3.7,15.7c4.5,4.2,9.5,2.5,14.4,0.2c1.7-0.8,3.7-1.2,6.4-2c-5.1,11.3-5.1,11.3,4.9,16.7c0.6,0.3,1.1,1.2,1.7,1.3
		c6.8,1.1,11.1,8.6,19,7.7c1.1-4.4,2.2-8.6,3.3-12.8c3.5-7,2-14.3,1.5-21.6c-0.5-6.8-0.3-13.8-0.2-20.6c0.1-3.6,0.7-7.3,1-10.9
		c5.9,2.4,11.9,3.9,17.2,8.2c5.1,4.1,12,6.3,18.9,1.5c4-2.8,8.7-4.7,13.2-6.7c3.2-1.4,3.5,1,3.7,3.3c-10.9,10.2-22.1,19.4-38.6,18.1
		c-3.6-0.3-5.3,2.5-4.4,6.9c2.4,12.1,1.1,24.2-1.5,36.1c-1.3,5.9-4.1,10.9-10.1,13.6c-10.6-4.5-21.1-9-31.6-13.5
		c-17-7.2-34.2-8.7-51.1,0c-9.1,4.7-17.8,10.2-26.1,15.1c-1.2,9.6,0.1,17.7,2.8,25.9c3.8,11.5,6.4,23.4,10,34.9
		c5.8,18.8,4.3,38.6,8.8,57.5c2.8,11.7,4.6,23.7,7.9,35.3c2.4,8.4,6.5,16.4,9.5,24.7c2.6,7.2,4.8,14.6,7.2,21.9
		c1.5,3.8,3,7.6,4.5,11.4c2.1,3,4.3,6,6.4,8.9c-0.2,1-0.3,2.9-0.7,3c-6,1.3-8.5,7.4-13.4,10.1c-2.7,1.5-5.4,3.1-8.1,4.7
		c-0.7,0-1.4,0-2.2,0c-1.5,2.9-3,5.9-4.5,8.8c-9,0-18.1,0-27.1,0c-6.1,0-11.9,1.3-17.2,4.4c-9.4-0.5-19.2,1.9-28-3.8
		c-0.8-0.5-2.1-0.5-3.2-0.5c-13.1-0.8-26.3-1.4-39.4-2.3c-7.3-0.5-14.5-1.7-21.8-2.1c-7-0.4-13.9-0.1-22.4-0.1
		c2.2-3.1,3.7-5.3,5.2-7.4c-7.6-6.6-23.6-5.1-32.2,2.9c-1.5,3.7-2.9,7.4-4.4,11.1l-1.1,0L840.2,513.7z M979.7,296.6
		c0.2,1.1,0,2.4,0.6,3.2c4.1,5.4,10.5,6.9,16.4,7.3c3.7,0.2,3.6-3.5,0.7-6c-0.9-4.4,1.9-9.4-2.2-13.3c0-3.2,0.8-6.8-0.3-9.6
		c-1.9-4.7,2-6.5,3.6-8.9c-2.2-1.4-3.9-2.5-5.6-3.6c3-1.2,4.6-3.3,4.4-6.7c0-1.5,0.1-3,0-4.4c-0.7-10-2.8-19.5-11.1-26.3
		c-3.8-3.1-8.4-5-11.2-9.7c-1.8-3-17.4-2.4-20,0c-0.8,0.7-1.5,1.7-1.7,2.7c-1.6,6.3-4.3,12.7-4.4,19.1c-0.1,8.4-5.9,13.6-8.1,19.8
		c-3.7,1.9-5.6-5.5-9-0.6c2.4,2.4,4.6,4.7,7.7,7.8c-3.8-0.3-5.9-0.4-8.1-0.6c-0.2,0.5-0.3,1.1-0.5,1.6c3.6,2,7.2,4.1,10.8,6.1
		c-1.3,0.6-3.5,0.9-3.7,1.7c-1.2,6.4-2.6,12.9-2.9,19.4c-0.4,9.2-0.3,18.2-5.8,26.3c-1.1,1.6-0.6,4.3-1,6.4c-0.6,4-1.1,7.9-1.7,11.9
		c-2.4,14.7-4,29.6-7.4,44.2c-2.5,11-1.1,22.5-5.5,33.4c-2.8,6.8-3.8,15.3-2.6,22.6c1.4,8.7-0.3,16.4-2.3,24.5
		c-1.3,5.5-1.7,11.2-2.6,17.3c3.8,0.2,6.4,0.4,8.9,0.5c7,2.9,15.1,3.2,20.3,9.9c0.7,0.9,2.7,0.8,4.1,1.2c11.8,3.8,24.1,2.7,36,1.8
		c10.7-0.8,21.8-2.7,30.4-10.7c4.2-1.1,8.4-2.2,12.7-3.3c0.2-1.7,0.6-3.2,0.5-4.6c-1.3-12.5-6.8-24.4-4.9-37.3
		c-5.3-16.7-7.7-34-10.6-51.3c-0.9-5.7-3.7-11.2-4.1-17c-1-15.8-9.5-27-20.3-37.3c-2.1-3.4-4-7-6.4-10.2c-5.1-7-7.9-15.8-15.7-20.8
		c-4.5-7.4-8.9-14.7-13.4-22.1c-0.7-0.7-1.5-1.5-2.2-2.2c0-1.5,0-3,0-4.5c4.4-0.2,7.3,0.8,9.2,5.7c1.7,4.5,5.6,8.1,8.5,12.1
		c3,5.2,5.9,10.6,9,15.7c6,9.8,12.4,19.5,22,26.4c2.5,3.5,5.2,6.9,7.4,10.6c2.3,3.8,4.6,7.3,8.9,8.5c-1.1-7.4-1.8-14.1-3.2-20.6
		c-1-4.8-2.8-9.4-4.3-14l0,0c-0.1-5.4-3.5-6.4-8.1-6.7c-9.8-0.8-13.2-4.3-15-14.8C977.6,297,978.7,296.8,979.7,296.6L979.7,296.6z
		 M1046.1,483.6c-0.3-1.8-0.2-3.3-0.7-4.6c-2.6-8-5.5-15.8-7.9-23.9c-4.1-14-4.7-28.8-10.7-42.3c-0.3-0.7-0.4-1.4-0.5-2.1
		c-4.5-23.9-9-47.9-13.7-71.8c-0.3-1.3-1.8-2.4-4-5c0,4.2-0.6,6.5,0.1,8.4c5.4,14.9,5.6,30.7,8.6,46.1c3.1,15.7,5.9,31.4,8.8,47.1
		c1.6,8.6,4.1,17.2,4.2,25.8c0.1,9.1,1.9,17.3,6.5,25.6C1039.8,485.8,1042.8,484.7,1046.1,483.6z M909.5,358.6
		c-0.9-0.3-1.8-0.6-2.8-0.9c-3.7,15.1-7.5,30.3-11.1,45.4c-2.3,9.5-4.7,19.1-6.6,28.7c-2.7,13.8-3.2,28.1-10.2,40.9
		c-1.4,2.5-0.6,7.4,1,10.2c1.8,3,5.6,2.9,8.8,0.1C892.5,441,901.4,399.9,909.5,358.6z"/>
	<path class="st5" d="M943.9,150.2c0.1-1.5,0-3.1,0.5-4.4c2.7-6.8,2-12.8-4-17.7c-0.7-0.6-0.7-2-1-2.9c-3.4,1-7,3.1-9.9,2.5
		c-2.6-0.5-4.8-4-6.7-6.5c-8.3-11.1-16.4-22.4-26-35.4c7.3,1.8,12.4,3,16.5,6.7c2.9,2.6,6.2,4.9,8.6,7.9c4.5,5.4,9.9,1.9,14.8,1.9
		c0.3,0,0.5-1.9,0.8-3c4.9-1.8,4.3-6,4.3-9.9c0-3.2,0.4-5.8,4.6-5.4c1.2,0.7,2.4,1.9,3.6,1.9c7.7,0.5,11.9,4.4,13,12
		c0,0.3,1.2,0.4,3.3,1.1c-2.2-8.3,4.7-9.4,8.5-12.7c5.3,1.2,7.8,3.8,7.3,8.7c0,0.7-0.2,1.4-0.3,2c-2.4-0.6-4.7-1.1-7.3-1.7
		c0,1.4,0.1,2.4,0,3.4c-1.5,9-1.5,9,6.9,12c1.8,0.6,3.3,2.1,4.7,3.1c6.9-5.3,10.9-13.7,20.6-14c1.4,0,2.8-3.1,4.2-4.8
		c1.5,0,3-0.1,4.5-0.1c-2.3,3.7-4.7,7.3-7,11c-10,6.1-14.5,16.7-20,26.3c-2.7-1.5-4.6-2.6-7.1-4c-1.6,5.4-9.2,6.3-8.3,13.2
		c-2.1,3.9-4.2,7.7-9.5,7.5c-0.4,0-0.9,1-1.3,1.5c-1.5,1.4-3,2.8-3.3,3.2C952.9,152.2,948.4,151.2,943.9,150.2z M947.7,107.7
		c2.2-2.8,4.3-4.5,4.7-6.4c0.2-1-2.9-3.8-4.2-3.6c-2,0.3-3.7,2.4-5.6,3.7C943.9,103.1,945.4,104.8,947.7,107.7z"/>
	<path class="st3" d="M875.6,179.1c2.2,2.2,4.4,4.4,6.7,6.6c1.4,2.5,2.7,5,5.2,9.5c-6.3-2.3-10.2-3.7-14-5.1
		c-0.7-0.7-1.5-1.5-2.2-2.2c0.2-4.7-3.9-6.6-6.3-9.6c-3.4-4.3-7.2-4.2-11.4-1.4c-1.9-1.1-3.8-2.3-6.7-4c1.1,10,6.9,15,13.4,19.5
		c0.1,0.7,0.1,1.5,0.2,2.2c0.4,2.3,3.3,5.1,0.2,6.9c-2.3,1.3-5.5,1.6-8.1,1.2c-2.4-0.4-4.8-2-6.6-3.8c-3.6-3.6-7.1-7.4-10.2-11.5
		c-4-5.4-7.4-11.2-11.6-17.5c-5.9,9.8-4.3,19.3-2.7,28.6c0.9,5,3.5,9.7,5.5,14.5c2.5,6.1,2.1,11.8-2.1,17.1
		c-4.2,1.2-8.3,2.3-13.1,3.7c-0.8-1.5-2.1-3-2.2-4.6c-0.9-15.6-1.6-31.2-2.5-46.8c-0.2-3.4,1.7-7.4-2.3-10c1.3-4,2.6-8.1,3.9-12.2
		c6.1,1.8,11.2,3.4,16.4,4.7c2.8,0.7,5.8,1,8.6,0.9c9-0.5,18.1-1.2,27.1-2.1c3.6-0.4,7.1-1.4,10.6-2.1
		C868.3,168.4,870,174.3,875.6,179.1z"/>
	<path class="st3" d="M962,150.3c0.4-0.5,0.9-1.5,1.3-1.5c5.3,0.2,7.4-3.6,9.5-7.5c0.8,4-1.3,9.9,4.9,10.8
		c11.8,1.6,21.9,7.9,32.9,11.4c-4.9,3.2-9.2-1-13.8-1.2c-1.8-0.1-3.6,0.8-5.8,1.4c3.2,4.9,5.8,9,8.4,13.2c-1.5,0.7-2.9,1.5-4.4,2.2
		c-4.3-1.4-4.3-1.4-4.5,4.4c-0.7,0.7-1.5,1.5-2.2,2.2c-4-4-2.5-8.7-1.1-13.1c1.1-3.7,2.2-6.9-1.7-9.7c-0.3-0.2,0.7-2.2,1.4-4.1
		c-7.6,1.6-11.9,5.3-14.1,11.5c-7,2.7-13.9,6-21.1,8c-5.5,1.5-11.4,1.5-18.1,2.2c-2.2-3.5-4.7-7.6-7.2-11.8
		c-3.3,0.6-2.7,10.4-8.9,3.8c0.6-1.8,1.2-3.7,2.5-7.5c-4.1,2.1-6.2,3.2-8.4,4.4c-5.8-2.2-10.5-7.5-17.7-7.2
		c-2.2,7.5,5.8,8.6,7.8,13.1c-4.2,3-6.3,0.1-8.8-1.9c-3.1-2.5-6.2-5.8-9.8-6.7c-4-1-4.8-7.2-10-5.3c4.5-4.2,9.4-6.2,15.8-4.6
		c2.6,0.6,6,0.1,8.6-1c7.7-3.1,15.7-3.1,23.8-3.3c6.1-0.2,12.3-1.2,18.4-1.9c-1,2-2.3,4.1,0.5,5.6c3.5,1.9,7.2,3.6,10.5,5.2
		c2.6-1.6,4.8-2.9,6.5-4c3,1.4,5.3,2.6,7.7,3.8c0.3-2.8-0.6-4.2-1.3-5.7C963.1,153.8,962.6,152,962,150.3z"/>
	<path class="st4" d="M873.2,161.3c5.1-1.9,6,4.4,10,5.3c3.6,0.9,6.7,4.2,9.8,6.7c2.5,2,4.7,4.9,8.8,1.9c-2-4.5-10-5.7-7.8-13.1
		c7.2-0.3,11.9,5,17.7,7.2c2.2-1.1,4.3-2.2,8.4-4.4c-1.3,3.8-1.9,5.7-2.5,7.5c-0.4,1.1-0.7,2.3-1.1,3.4c6.5,1.7,6.5,5.8,4,10.9
		c-0.8,1.6-1.2,3.4-2.2,6.2c-5.2-2.7-9.9-5-14.5-7.5c-5.1-2.8-10.2-5.7-15.2-8.7c-4.6-2.7-9.1-5.6-15.3-9.5c1,5.2,1.6,8.5,2.3,11.9
		c-5.6-4.9-7.3-10.7-4.4-17.7C871.9,161.3,872.5,161.3,873.2,161.3z"/>
	<path class="st6" d="M1010.8,95.1c-1.4,1.7-2.7,4.7-4.2,4.8c-9.7,0.3-13.7,8.6-20.6,14c-1.4-1-2.9-2.4-4.7-3.1
		c-8.4-3-8.4-2.9-6.9-12c0.2-1,0-2,0-3.4c2.6,0.6,5,1.2,7.3,1.7c3.2,4,7.1,2.1,10.9,1.3C998.7,97.2,1004.7,96.2,1010.8,95.1z"/>
	<path class="st6" d="M982.1,95.1c0.6-4.9-1.9-7.5-7.3-8.7c-3.8,3.3-10.6,4.4-8.5,12.7c-2.1-0.7-3.3-0.8-3.3-1.1
		c-1-7.6-5.3-11.5-13-12c-1.2-0.1-2.4-1.3-3.6-1.9c10.6-4.8,21.6,0.7,33.2-1C983.1,85.9,986.8,89.4,982.1,95.1z"/>
	<path class="st4" d="M962,150.3c0.6,1.7,1.1,3.4,1.8,5c0.7,1.5,1.6,2.9,1.3,5.7c-2.4-1.2-4.8-2.3-7.7-3.8c-1.7,1.1-3.9,2.4-6.5,4
		c-3.3-1.6-7-3.3-10.5-5.2c-2.9-1.5-1.5-3.6-0.5-5.6c1.4-0.1,2.7-0.2,4.1-0.3c4.5,1,8.9,2,14.7,3.3C959,153.2,960.5,151.8,962,150.3
		z"/>
	<path class="st3" d="M937.6,99.4c-0.3,1-0.5,3-0.8,3c-5,0-10.3,3.5-14.8-1.9c-2.5-3-5.7-5.3-8.6-7.9
		C921.9,93.1,930.1,95.1,937.6,99.4z"/>
	<path class="st6" d="M1150.8,163.8c0.6,1.4,1.2,2.7,1.9,4.1c0,1.5-0.1,3.1-0.1,4.6c-3.1,0.5-6.2,1-9.4,1.5
		c-3.4-3.3-6.3-7.1-3.9-12.5c0.8-0.7,1.5-1.4,2.3-2.1C1144.9,160.1,1149.9,157.6,1150.8,163.8z"/>
	<path class="st5" d="M1112.5,176.7c3-4.6,6.3,2.3,10.1-1c0.9-2,2.1-4.8,3.4-7.6c3.2-4.6,7.1-8,13.3-6.6c-2.5,5.4,0.4,9.2,3.9,12.5
		c3.2-0.5,6.3-1,9.4-1.5c4,0,8,0,13.7,0c-3,1.8-4.3,2.6-5.9,3.6c4.2,1.9,8.2,3.6,12.1,5.3c-1.5,2.2-3,4.3-4.5,6.5
		c-0.2-2.3-0.5-4.8-3.7-3.3c-4.5,2-9.1,3.9-13.2,6.7c-6.9,4.7-13.8,2.6-18.9-1.5c-5.3-4.3-11.3-5.8-17.2-8.2
		C1114.1,179.8,1113.3,178.3,1112.5,176.7z"/>
	<path class="st4" d="M942.1,274.4c0,1.5,0,3,0,4.5c-0.6,1.5-1.9,3.1-1.8,4.6c0.3,5.1,1.8,10.1,1.7,15.2
		c-0.4,13.2-2.1,26.3-1.9,39.5c0.2,14.8-2.3,29.1-5.9,43.3c-1.6,6.5-5.5,13.1-1.8,20.3c0.6,1.2-0.7,3.4-1.1,5.1
		c-0.7,2.7-1.3,5.4-2,8.3c7.1-0.3,8.4-0.4,11.5-3.3c7.8-7.3,15.5-14.7,20.3-24.5c1.1-2.1,2.7-4,5-7.5c4.5,9,7.5,17.4,12.5,24.2
		c5,6.8,10.4,14.1,20.3,16.3c0-1.7,0.2-2.8,0-3.7c-3.8-14.5-7.8-28.9-11.5-43.4c-0.7-2.8-1.1-6-0.3-8.6c2.2-7.3,0.7-13.8-4-19.2
		c-3.1-3.5-3.3-7.2-3.2-11.2c10.8,10.2,19.3,21.5,20.3,37.3c0.4,5.7,3.1,11.2,4.1,17c2.8,17.2,5.3,34.5,10.6,51.3
		c-2,12.9,3.6,24.8,4.9,37.3c0.1,1.4-0.3,2.8-0.5,4.6c-4.4,1.1-8.5,2.2-12.7,3.3c0.5-5.6,2.7-11.7,1.2-16.7
		c-3.3-10.3-4.9-21.9-17.1-27.5c-5.3-2.4-8.6-8.6-15-10.6c-2.7-0.9-4.5-4.6-6.7-7.1c-1.4-1.5-2.7-3-4.1-4.5
		c-7,5.6-9.7,15.9-20.5,14.6c-7.3,5.4-14.6,10.7-21.4,15.7c-2.1,8.2,3.5,17.8-6.8,22.9c-0.5,0.3-0.4,2.1-0.4,3.2
		c-0.1,2.6,0,5.2,0,7.7c-2.5-0.1-5-0.3-8.9-0.5c0.9-6.2,1.3-11.9,2.6-17.3c2-8.1,3.7-15.7,2.3-24.5c-1.2-7.3-0.1-15.8,2.6-22.6
		c4.4-10.9,3-22.4,5.5-33.4c3.3-14.5,5-29.4,7.4-44.2c0.6-3.9,1.2-7.9,1.7-11.9c0.3-2.2-0.1-4.8,1-6.4c5.5-8.1,5.4-17.1,5.8-26.3
		c0.3-6.5,1.7-13,2.9-19.4C938.6,275.4,940.8,275,942.1,274.4L942.1,274.4z M964.2,409.5c10.7,12.2,21,24.6,37.7,30.9
		c-2.1-8.4-5.3-13.6-11.6-18c-8.3-5.8-16-12.7-19.4-23.2c-1-3.2-1.9-7.1-5.7-8.6c-0.6,0.3-1.1,0.3-1.2,0.6
		c-11,18.6-25.2,33.8-44.7,43.6c-0.9,0.4-0.5,3.3-0.8,6C936.5,433.5,952.2,425.3,964.2,409.5z"/>
	<path class="st3" d="M915.5,482.7c0-2.6,0-5.2,0-7.7c0-1.1-0.1-2.9,0.4-3.2c10.3-5,4.7-14.7,6.8-22.9c6.8-5,14.1-10.3,21.4-15.7
		c10.9,1.2,13.6-9,20.5-14.6c1.3,1.5,2.7,3,4.1,4.5c2.2,2.4,4,6.2,6.7,7.1c6.4,2,9.7,8.1,15,10.6c12.2,5.6,13.8,17.2,17.1,27.5
		c1.6,4.9-0.7,11.1-1.2,16.7c-8.6,8-19.6,9.9-30.4,10.7c-11.9,0.9-24.2,2.1-36-1.8c-1.4-0.4-3.4-0.3-4.1-1.2
		C930.6,485.9,922.5,485.5,915.5,482.7z"/>
	<path class="st3" d="M979.7,334.2c-0.1,4.1,0.1,7.7,3.2,11.2c4.7,5.4,6.2,11.9,4,19.2c-0.8,2.6-0.4,5.9,0.3,8.6
		c3.7,14.5,7.7,28.9,11.5,43.4c0.2,0.9,0,2,0,3.7c-9.9-2.2-15.3-9.5-20.3-16.3c-5-6.8-7.9-15.2-12.5-24.2c-2.4,3.5-4,5.4-5,7.5
		c-4.8,9.8-12.5,17.2-20.3,24.5c-3.1,2.9-4.4,3-11.5,3.3c0.7-2.9,1.4-5.6,2-8.3c0.4-1.7,1.7-3.9,1.1-5.1c-3.7-7.2,0.2-13.8,1.8-20.3
		c3.6-14.3,6.1-28.5,5.9-43.3c-0.2-13.1,1.5-26.3,1.9-39.5c0.1-5-1.3-10.1-1.7-15.2c-0.1-1.5,1.1-3.1,1.8-4.6
		c0.7,0.7,1.5,1.5,2.2,2.2c1.9,8.9,5.9,16.6,13.4,22.1c7.8,5,10.6,13.8,15.7,20.8C975.7,327.2,977.6,330.8,979.7,334.2z"/>
	<path class="st6" d="M1112.5,176.7c0.8,1.6,1.6,3.1,2.4,4.7c-0.4,3.6-0.9,7.3-1,10.9c-0.1,6.9-0.3,13.8,0.2,20.6
		c0.6,7.3,2.1,14.6-1.5,21.6c-10.2,3.7-16.1-4.2-22.9-9.1c-1.1-0.8-1.1-4.2-0.4-5.9c1.9-4.3,4.7-8.1,6.7-12.3
		c0.7-1.5-0.1-3.6-0.2-6.3c-7,4.3-12.8,8.1-18.8,11.5c-7.1,4-9.3,3.2-15.1-4.9c2.8-3.5,5.7-7,8.6-10.6c-3.7,0.1-6.6,1.3-8.8,3.4
		c-2.6,2.5-5.5,3.5-9,3.2c-0.7,0-1.5,0-2.2,0c-5.7-2.1-11.2-1.1-17,1.2c-0.5,1.9-1,4-1.2,5.1c-4.5,1.1-8.3,2.1-12.8,3.2
		c0.4-3,0.9-5.9,1.4-9.4c-3.1,0.2-5.2,0.3-8.1,0.5c0.7,3.2,1.6,5.5,1.4,7.8c-0.1,1-2.4,1.8-3.7,2.7c-4.2-5.6-2.7-10.7,2.2-16.2
		c-5.3-1.7-8.2-5.2-9.2-10.7c-0.7-3.8-2.6-7.3-4-10.9c-2.6-4.1-5.3-8.2-8.4-13.2c2.1-0.5,4-1.4,5.8-1.4c4.6,0.2,8.9,4.3,13.8,1.2
		c5.5,1.7,11.1,3.3,16.5,5.2c7.2,2.5,14.3,5.3,21.5,8.1c7.8,3,15.6,2.9,23.7,1.4c2.8-0.5,6.3-1.4,8.4-0.3
		C1091.8,183.9,1102.1,180.5,1112.5,176.7z"/>
	<path class="st4" d="M979.7,296.6c-1.1,0.2-2.1,0.4-3.1,0.6c1.8,10.4,5.2,14,15,14.8c4.6,0.4,8,1.3,8.1,6.7
		c-5.3-1.1-10.5-2.2-16.4-3.4c-8.9-9.2-15.9-20.3-18-34.7c-3.9,1.2-7.8,0.7-6,6.1c0.6,1.7,0.4,3.6,0.5,5.4c-2.9-4-6.8-7.6-8.5-12.1
		c-1.9-4.9-4.8-5.9-9.2-5.7l0,0c-3.6-2-7.2-4.1-10.8-6.1c0.2-0.5,0.3-1.1,0.5-1.6c2.1,0.2,4.3,0.3,8.1,0.6c-3.1-3.1-5.4-5.4-7.7-7.8
		c3.4-4.9,5.3,2.5,9,0.6c2.2-6.3,8-11.4,8.1-19.8c0.1-6.4,2.7-12.8,4.4-19.1c0.3-1,1-2,1.7-2.7c2.5-2.4,18.2-3,20,0
		c2.8,4.7,7.4,6.6,11.2,9.7c8.2,6.8,10.3,16.3,11.1,26.3c0.1,1.5,0,2.9,0,4.4c-2.5-2.6-4.9-5.1-7.4-7.7c-0.9,4.3-5,2.6-7.6,4.2
		c-0.9-5.8-2.6-11.6-2.6-17.3c0-6.7-1.5-12.2-7.2-16.9c-4.8,0.9-11.4-2.4-14.8,3.5c-2.1,3.8-3.2,8.9-1,14.3c1.4-1.1,2.3-1.7,3-2.4
		c2.8-2.9,6.4-2.9,8.7-0.3c1.6,1.8,2,5.5,1.5,8c-0.5,2.7-2.5,5.3-4.4,7.5c-5.6,6.2-5.6,12.8-2.5,19.8c14.6,1.2,14.6,1.2,26.6-5.4
		c0.9-0.5,2.1-0.4,3.2-0.6c1.7,1.1,3.4,2.2,5.6,3.6c-1.6,2.5-5.5,4.3-3.6,8.9c1.1,2.8,0.3,6.4,0.3,9.6c-1.3-3.5-2.6-7-4.2-11.4
		c-6,2-11.9,4-19.2,6.5C974.8,288.1,977.3,292.3,979.7,296.6z"/>
	<path class="st3" d="M993,265.6c-1.1,0.2-2.3,0.1-3.2,0.6c-12,6.6-12,6.6-26.6,5.4c-3.1-7-3.1-13.6,2.5-19.8
		c1.9-2.1,3.9-4.8,4.4-7.5c0.5-2.5,0.1-6.2-1.5-8c-2.3-2.7-5.8-2.6-8.7,0.3c-0.7,0.7-1.6,1.3-3,2.4c-2.2-5.3-1.2-10.5,1-14.3
		c3.4-5.9,10-2.6,14.8-3.5c5.7,4.7,7.2,10.2,7.2,16.9c0,5.7,1.6,11.5,2.6,17.3c2.5-1.6,6.7,0.2,7.6-4.2c2.5,2.6,4.9,5.1,7.4,7.7
		C997.6,262.2,996.1,264.4,993,265.6z"/>
	<path class="st4" d="M1046.1,483.6c-3.3,1.1-6.3,2.2-9.2,3.2c-4.6-8.3-6.4-16.5-6.5-25.6c-0.1-8.6-2.6-17.2-4.2-25.8
		c-2.9-15.7-5.6-31.5-8.8-47.1c-3.1-15.3-3.3-31.2-8.6-46.1c-0.7-1.9-0.1-4.3-0.1-8.4c2.2,2.7,3.7,3.7,4,5
		c4.7,23.9,9.2,47.9,13.7,71.8c0.1,0.7,0.2,1.5,0.5,2.1c6,13.5,6.5,28.4,10.7,42.3c2.4,8,5.3,15.9,7.9,23.9
		C1045.8,480.3,1045.8,481.8,1046.1,483.6z"/>
	<path class="st4" d="M1052.8,203.5c3.5,0.3,6.3-0.7,9-3.2c2.1-2.1,5.1-3.3,8.8-3.4c-2.9,3.5-5.8,7.1-8.6,10.6
		c5.9,8.1,8,8.9,15.1,4.9c6-3.4,11.8-7.2,18.8-11.5c0.2,2.8,0.9,4.9,0.2,6.3c-2,4.2-4.8,8.1-6.7,12.3c-0.7,1.7-0.7,5.2,0.4,5.9
		c6.8,4.9,12.7,12.7,22.9,9.1c-1.1,4.2-2.2,8.4-3.3,12.8c-8,0.9-12.3-6.6-19-7.7c-0.6-0.1-1.1-1-1.7-1.3
		c-10.1-5.5-10.1-5.4-4.9-16.7c-2.7,0.8-4.7,1.1-6.4,2c-4.9,2.3-9.8,4-14.4-0.2c-4.6-4.3-7.1-9.4-3.7-15.7
		C1056.9,206.2,1054.9,204.8,1052.8,203.5z"/>
	<path class="st4" d="M824.6,230.1c4.2-5.3,4.7-10.9,2.1-17.1c-2-4.8-4.6-9.5-5.5-14.5c-1.7-9.3-3.2-18.8,2.7-28.6
		c4.1,6.3,7.6,12.1,11.6,17.5c3,4.1,6.5,7.9,10.2,11.5c1.8,1.7,4.2,3.4,6.6,3.8c2.6,0.4,5.9,0.1,8.1-1.2c3.2-1.8,0.3-4.5-0.2-6.9
		c-0.1-0.7-0.2-1.5-0.2-2.2c1.5,0.7,2.9,1.5,4.4,2.2c1.5,2.9,2.9,5.9,4.4,8.8c-7.9,9.3-15.9,10.5-26.2,3.7c-3.6-2.4-7.2-5-10.1-8.2
		c-2.9-3.1-4.9-7-7.6-11c-3,2-2.5,4.2-1.3,6.7c4.1,8.1,8.1,16.2,12.1,24.3c0.8,1.6,1.4,3.2,2.4,5.7
		C833.3,226.7,829,228.4,824.6,230.1z"/>
	<path class="st4" d="M909.5,358.6c-8.1,41.3-17,82.5-20.8,124.4c-3.2,2.8-7,3-8.8-0.1c-1.6-2.7-2.4-7.6-1-10.2
		c7-12.9,7.5-27.1,10.2-40.9c1.9-9.6,4.3-19.2,6.6-28.7c3.7-15.2,7.4-30.3,11.1-45.4C907.6,358,908.5,358.3,909.5,358.6z"/>
	<path class="st4" d="M868.9,203.5c-1.5-2.9-2.9-5.9-4.4-8.8c3-1.5,5.9-3,8.9-4.4c3.9,1.4,7.8,2.8,14,5.1c-2.4-4.5-3.8-7-5.2-9.5
		c0.4,0,0.8-0.1,1.1,0.1c4.3,2.6,8.4,5.9,13,7.7c4.2,1.6,9,1.7,14.3,2.6c-1.5,4.2-2.6,7.3-3.7,10.5c0.5,0.3,1,0.6,1.5,0.9
		c2.4-2,4.7-4.1,7.1-6.1c0.5,0.3,0.9,0.6,1.4,0.9c-2,5.7-3.6,11.6-6.2,17c-2.2,4.8-5.6,5.2-9.7,1.7c-2.7-2.4-5.1-5.2-7.8-8
		c1.5-2,2.7-3.6,3.7-4.9c-3.6-3.7-6.9-7.2-10.7-11.2c-4.2,0.5-9,1.2-14.2,1.9C871.2,200,870.1,201.8,868.9,203.5z"/>
	<path class="st6" d="M973,170.4c2.2-6.2,6.6-9.9,14.1-11.5c-0.7,1.9-1.7,3.9-1.4,4.1c3.8,2.8,2.8,6,1.7,9.7
		c-1.3,4.4-2.9,9,1.1,13.1c0,4,0,8,0,11.8c-5.1,0.6-9.2,1.1-13.3,1.5c-3-1.5-5.9-3-8.9-4.4c-1.6-3.7-8.5-1.2-8.2-7.1
		c2.7-1.3,5.4-2.6,8.2-3.9C971,180.4,975.9,177.3,973,170.4z"/>
	<path class="st3" d="M959.8,292.2c-0.2-1.8,0-3.7-0.5-5.4c-1.8-5.4,2.1-4.9,6-6.1c2.1,14.3,9.1,25.5,18,34.7
		c5.8,1.2,11.1,2.3,16.4,3.4l0,0c-3.5,6.1,0.3,12.6-0.5,18.8c-3.1-1.2-5.8-2.2-8.4-3.3c-9.6-6.9-16-16.5-22-26.4
		C965.6,302.7,962.8,297.4,959.8,292.2z"/>
	<path class="st4" d="M1010.7,214.7c1.3-0.9,3.7-1.7,3.7-2.7c0.2-2.3-0.8-4.7-1.4-7.8c3-0.2,5-0.3,8.1-0.5c-0.5,3.5-1,6.4-1.4,9.4
		c4.4-1.1,8.3-2.1,12.8-3.2c0.3-1.1,0.8-3.2,1.2-5.1c5.8-2.3,11.3-3.2,17-1.2c-11.6,8.6-23.3,17.2-35.3,26.1c-3.6-0.5-5.5-3.2-4-6.8
		C1012.7,219.6,1012.3,217.3,1010.7,214.7z"/>
	<path class="st6" d="M979.7,296.6c-2.4-4.3-4.9-8.5-7.9-13.8c7.3-2.5,13.2-4.5,19.2-6.5c1.6,4.4,2.9,7.9,4.2,11.4
		c4.1,3.9,1.4,8.9,2.2,13.3C990.9,302.1,985.2,299.6,979.7,296.6L979.7,296.6z"/>
	<path class="st4" d="M975.3,199.1c4.1-0.5,8.2-1,13.3-1.5c0-3.8,0-7.8,0-11.8c0.7-0.7,1.5-1.5,2.2-2.2c-0.2,5.5-0.3,10.9-0.5,16.4
		c-0.2,3.8-0.3,3.8,5,8.1c0-1.6,0-3.1,0-4.6c4.2,5.6,2.1,11.2-0.6,17.3c-0.9-2.4-1.9-4.8-3-7.8c-2.5-0.4-5.3-0.8-7.4-1.1
		C981,207.3,978.1,203.2,975.3,199.1z"/>
	<path class="st4" d="M966.4,183.6c-2.7,1.3-5.5,2.6-8.2,3.9c-0.3,5.9,6.6,3.4,8.2,7.1c-3.2,0.2-7.2-0.7-7.8,3.9
		c-0.6,4.7-3.9,3-5.5,2.2c-4.4-2.2-8.5-5.1-12.8-7.9c1.7-7.6,9.3-2.9,12.6-6.2C956.9,182.8,961.7,183.7,966.4,183.6z"/>
	<path class="st4" d="M990.8,334.2c2.6,1,5.3,2,8.4,3.3c0.8-6.2-3-12.7,0.5-18.8c1.5,4.7,3.3,9.3,4.3,14c1.4,6.6,2.1,13.2,3.2,20.6
		c-4.3-1.2-6.6-4.8-8.9-8.5C995.9,341.2,993.3,337.8,990.8,334.2z"/>
	<path class="st4" d="M979.7,296.6c5.5,3.1,11.2,5.5,17.8,4.4c2.9,2.5,3,6.2-0.7,6c-6-0.3-12.3-1.9-16.4-7.3
		C979.7,299,979.9,297.7,979.7,296.6z"/>
	<path class="st6" d="M995.2,203.5c0,1.5,0,2.9,0,4.6c-5.3-4.3-5.2-4.3-5-8.1c0.3-5.5,0.4-10.9,0.5-16.4c0.1-5.8,0.1-5.8,4.5-4.4
		C992.3,187.3,992.3,195.4,995.2,203.5z"/>
	<path class="st3" d="M957.6,303.2c-7.5-5.5-11.4-13.2-13.4-22.1C948.7,288.5,953.2,295.8,957.6,303.2z"/>
	<path class="st3" d="M947.7,107.7c-2.3-2.8-3.7-4.6-5.1-6.3c1.9-1.3,3.6-3.5,5.6-3.7c1.3-0.2,4.4,2.6,4.2,3.6
		C952,103.2,949.9,104.8,947.7,107.7z"/>
	<path class="st4" d="M853.4,176.9c4.2-2.8,8-2.9,11.4,1.4c2.4,3,6.5,4.9,6.3,9.6c-2.7,0.5-6.4,2.3-7.9,1.2
		C859,186.1,853.9,183.2,853.4,176.9z"/>
	<path class="st5" d="M853.4,176.9c0.5,6.3,5.6,9.2,9.8,12.2c1.6,1.1,5.2-0.7,7.9-1.2c0.7,0.7,1.5,1.5,2.2,2.2c-3,1.5-5.9,3-8.9,4.4
		c-1.5-0.7-2.9-1.5-4.4-2.2c-6.4-4.5-12.3-9.5-13.4-19.5C849.6,174.7,851.5,175.8,853.4,176.9z"/>
	<path class="st4" d="M1172.5,181.4c-3.9-1.7-7.9-3.4-12.1-5.3c1.5-1,2.9-1.8,5.9-3.6c-5.7,0-9.7,0-13.7,0c0-1.5,0.1-3.1,0.1-4.6
		c4.4,0.1,8.8,0.2,13.1,0.2c2.7,2.1,5.3,4.2,8.3,6.6C1173.6,176.6,1173,179,1172.5,181.4z"/>
	<path class="st3" d="M964.2,409.5c-12.1,15.8-27.7,24-45.7,31.3c0.3-2.7-0.1-5.6,0.8-6c19.6-9.8,33.8-25,44.7-43.6
		c0.2-0.3,0.6-0.3,1.2-0.6c3.8,1.5,4.7,5.4,5.7,8.6c3.3,10.4,11,17.4,19.4,23.2c6.3,4.4,9.5,9.6,11.6,18
		C985.2,434.1,974.9,421.7,964.2,409.5z"/>
</g>
</svg>
