<?xml version="1.0" encoding="utf-8"?>
<!-- Generator: Adobe Illustrator 21.1.0, SVG Export Plug-In . SVG Version: 6.00 Build 0)  -->
<svg version="1.1" id="Layer_1" xmlns="http://www.w3.org/2000/svg" xmlns:xlink="http://www.w3.org/1999/xlink" x="0px" y="0px"
	 viewBox="0 0 1402 800" style="enable-background:new 0 0 1402 800;" xml:space="preserve">
<style type="text/css">
	.st0{fill:#303030;}
	.st1{fill:#0A0A0A;}
	.st2{fill:#454545;}
	.st3{fill:#0F0F0F;}
	.st4{fill:#434343;}
	.st5{fill:#0D0D0D;}
	.st6{fill:#1C1C1C;}
	.st7{fill:#0B0B0B;}
	.st8{fill:#424242;}
	.st9{fill:#414141;}
	.st10{fill:#161616;}
	.st11{fill:#3E3E3E;}
	.st12{fill:#1A1A1A;}
	.st13{fill:#313131;}
	.st14{fill:#383838;}
	.st15{fill:#393939;}
	.st16{fill:#363636;}
	.st17{fill:#2B2B2B;}
	.st18{fill:#070707;}
	.st19{fill:#494949;}
	.st20{fill:#2E2E2E;}
	.st21{fill:#232323;}
	.st22{fill:#404040;}
	.st23{fill:#2D2D2D;}
	.st24{fill:#2A2A2A;}
	.st25{fill:#242424;}
	.st26{fill:#2F2F2F;}
	.st27{fill:#202020;}
	.st28{fill:#444444;}
	.st29{fill:#191919;}
	.st30{fill:#272727;}
	.st31{fill:#353535;}
	.st32{fill:#3C3C3C;}
	.st33{fill:#080808;}
</style>
<g>
	<path class="st0" d="M1245.6,693.3c-0.4,4.3-7,6.5-6.4,10.8c0.4,2.8,3.7,4.1,5.6,6.2c2.2,2.4,2.5,6,1.8,9.2c-0.7,3.2-2.4,6-3.8,8.9
		c-2.4,4.7-4.3,9.7-5.7,14.8c-1,3.7-1.7,7.9,0.1,11.2c1.8,3.3,5.7,4.9,9.3,6c12,3.7,24.7,4.8,37.2,3.3c4.4-0.5,9.4-1.8,11.5-5.7
		c2.3-4.3,0-9.5-1.8-14.1c-5-12.8-5.8-27.1-2.3-40.4c0.3-1.1,0.7-2.3,1.6-3.1c0.7-0.5,1.6-0.7,2.4-0.7c5.1,0,8.1,6.2,7.4,11.3
		c-0.6,5.1-3.5,9.6-4.6,14.6c-1.2,5.7-0.1,11.6,1,17.3c0.4,2.2,0.9,4.5,2.3,6.3c2,2.6,5.5,3.5,8.7,4.2c8.3,1.8,16.8,3.2,25.2,2.2
		c8.4-1,16.9-4.7,22-11.4c1.4-1.9,2.6-4,3-6.3c0.9-4.5-1-9-2.2-13.4c-1.8-6.6-2.3-13.5-2.7-20.3c-0.5-8.2-1-16.3-1.5-24.5
		c-0.1-1.5-0.2-3.2,0.6-4.5c1.1-1.8,3.4-2.3,5.5-2.7c2.7-0.5,5.4-1,8-0.2c2.6,0.8,4.9,3.3,4.4,6c-0.3,2.1-2.1,3.5-3.5,5.1
		s-2.6,3.8-1.6,5.6c0.5,1,1.5,1.5,2.3,2.2c3.4,2.6,5.2,7.3,4.4,11.5c-0.6,3.2-2.4,5.9-3.7,8.8c-4.2,8.9-4.5,19.1-4,29
		c0.3,5.1,0.8,10.2,0.1,15.2c-0.7,5-2.6,10.1-6.5,13.5c-4.8,4.2-11.5,5-17.7,5.8c-27.4,3.4-54.6,8.8-81.3,16.1
		c-5.7,1.6-11.8,3.2-17.3,1.4c-6-2-10.1-7.8-11.9-13.9c-2.6-8.8-1.1-18.1-0.4-27.3c1.1-12.9,0.7-25.8-1.2-38.6
		c-0.8-5.8-2.7-11.4-3.6-17.1c-0.9-5.2,1.3-10.4-2.6-14.9c-2.9-3.3-7.7-4.2-12-4.7c-0.5-0.1-1-0.1-1.5-0.2
		c-5.7-0.7-11.7-1.8-17.4-2.1c-5.8-0.2-13.7-0.1-19.3,1.3c-4.8,1.2-8.3,7.6-9.5,12c-1.5,5.3-1,11,0.5,16.3c1.2,4,3.1,7.9,6.1,10.9
		c1.2,1.2,2.6,2.3,3.6,3.7c1.9,2.7,2.3,6.1,2.2,9.4c-0.1,2.4-0.4,4.8-1.6,6.8s-3.6,3.5-5.9,3.1c-3.6-0.6-5.1-4.9-5.8-8.5
		c-1.6-7.5-3.2-15-4.7-22.5c-1.4-6.8-3-14.2-8-19c-11.7-11.1-30.1-4.8-44-2.9c-17.2,2.3-34.4,4.4-51.7,5.3
		c-5.2,0.3-10.5,0.5-15.5-0.9c-1.1-4.8,2.7-9.7,7.2-11.6s9.7-1.7,14.7-1.8c17.3-0.4,34.2-4.7,51.3-7.2c10.8-1.5,21.6-2.3,32.4-3.3
		c10.1-1,20.3-3.3,30.3-3.9c21.9-1.4,43.9-4.3,65.8-6.9c27-3.2,54-6.7,81-10.4c13.5-1.9,27-3.8,40.4-5.7c6.7-1,13.5-1.9,20.2-2.9
		c2-0.3,18.7-3.9,19.4-2.8c2.3,3.8,4.4,9.4,0.9,12.1c-1.1,0.9-2.5,1.2-3.9,1.4c-53,10.9-108.4,12.1-159.1,31c-1.9,0.7-4,1.6-4.9,3.4
		C1231.9,686.1,1246.2,686.7,1245.6,693.3z"/>
	<path class="st1" d="M1048.8,559.2c-5.5,7.5-12.1,14.3-14.1,23.9c-0.6,2.8-1.1,5.7-1.7,8.5c-0.3,1.5-0.4,4-1.3,4.4
		c-5.7,2.5-5.3,8.4-6,12.6c-1.8,11-5,22.2-0.6,33.5c0.7,1.7,0.2,3.9,0.2,5.8c-3.1-4.5-4-9.5-4.2-14.9c-0.1-2.3-1.2-4.5-1.8-6.8
		c0.6-6.8,1.3-13.5,1.8-20.3c0.1-1.6,0.6-3.6-0.1-4.8c-5.9-9.8-0.7-20.1-1.8-30.1c1.3-2.7,2.6-5.4,3.9-8c0-7.8-0.1-15.6-0.1-23.4
		c1.4-1.8,2.8-3.6,4.4-5.7c-2.1-3.3-2.1-3.3-0.4-10.4c2-5.9,4-11.8,6-17.7c3.8,6.8,2.4,13.7,0.5,20.6c-3,11-3,22.1-0.5,33.3
		c0-7.1,0-14.2,0-21.6c4-0.6,7.3-2,7.9,3.2c-2.9,0-3.8,1.7-3.9,4.4c-0.3,4.2-1.3,8.3-1.4,12.5c-0.1,2.7,0.9,5.5,1.9,10.4
		c3.3-5,5.3-8.2,7.4-11.4C1047.1,556.1,1049,555.4,1048.8,559.2z"/>
	<path class="st2" d="M691.7,612.5c0.7-2.4,0.8-5.9,2.4-7c5.3-3.5,8.7-8.7,12.7-13.3c3.7-4.2,8.4-6.5,13.5-7.1
		c4.2-0.5,7.3-1.8,10.4-4.5c2.9-2.5,6.8-3.8,10.3-5.7c-0.2,0.9-0.2,2-0.7,2.7c-4.8,6.4-9.6,12.7-14.6,19.3c-0.1-0.1-1.1-0.6-2.5-1.5
		c-2.5,4.8-6.2,8.9-6,14.9c-2.8-0.5-0.6-6.1-5.7-4.9c-4.5,1-5.7,3.4-6,7.3c2.7,1.3,5.2,2.5,7.7,3.7c-3.3-0.1-6.4,0.2-7.8,3.9
		c-4.3,0.3-7.8-1.5-13.1-4c8.7-2.7,11.8-8.4,14-14.8c-2.6,1.3-4.4,4.3-6.6,4.6C695.4,606.7,694.4,610.4,691.7,612.5z"/>
	<path class="st3" d="M1131.4,661.6c1.9-2.6,3.6-4.7,2.5-8.6c-1.5-5.6-2.3-11.6-2.1-17.4c0.2-6.5,6.1-9.3,10.9-5.5
		c1.5,1.2,2.5,3.7,2.6,5.7c0.3,5.9,0.3,11.8-0.1,17.7c-0.2,3.8,1.8,5.9,4,8.3c-2.7,1.5-4.8,4-8.6,2.2
		C1137.9,662.6,1134.6,662.4,1131.4,661.6z"/>
	<path class="st4" d="M946.2,594.7c2.7,4,5.5,0.3,7.6-0.4c7.2-2.5,13.8-2.1,20,2.3c-3.1,1.7-7.8-0.4-9.9,4c-4.3,0-7.4,5.5-12.6,2.8
		c-0.3-0.2-2.3,2.7-3.7,4.5c-2.8-1.1-5.4-2.2-8.4-3.4c-1.6,2.7-3,5.1-4.7,7.9c-5.8-2.5-3.7-7.6-4.2-11.7c1.3,0,3.6,0.4,3.9-0.1
		C936.9,595.5,941,594.1,946.2,594.7z"/>
	<path class="st5" d="M782.4,543.3c2.8-3.3,6.6-1.3,9.8-1.9c1.9,2.2,3.6,4.6,5.8,6.5c6.8,5.8,9.8,13.6,11.8,21.8
		c2.1,8.8,3.1,17.7,2.4,26.8l-0.2,0.2c-3.2-2.4-1.7-5.8-1.8-8.8c-0.2-4.2-0.3-8.2-4-11c-0.6-2.7-1.2-5.3-1.8-8
		c-0.9-1.7-1.4-3.7-2.7-4.9c-4.8-4.4-10.6-6.1-17.1-4.7c2.5-4.5,7.4-0.5,10.8-3.3c-2.7-5-8.4-1.3-12.3-4c0.2-3.9,7.5-2.9,5.7-8.7
		C786.8,543.3,784.6,543.3,782.4,543.3z"/>
	<path class="st6" d="M857.5,614.3c-1.4,2.3-2.8,4.7-4.8,8.1c-0.9-3.1-1.5-5-2.2-7.6c-2.1,0.1-4.2,0.3-6.9,0.5c-0.3-0.3-1-1-1.4-1.9
		c-2.2-4.9-4.3-9.9-6.5-14.8l0.1-0.1c1.8-0.2,4-1.2,5.2-0.4c4.6,2.7,5.8,0.2,6.4-3.6c0.5-1.8,1-3.6,2-7.3c1.9,4.4,3,6.8,4.1,9.3
		C854.9,602.5,856.2,608.4,857.5,614.3z"/>
	<path class="st7" d="M691.7,612.5c2.7-2.1,3.7-5.8,8-6.4c2.2-0.3,4.1-3.3,6.6-4.6c-2.2,6.4-5.3,12.1-14,14.8
		c5.3,2.5,8.8,4.3,13.1,4c-1.6,1.5-3.3,3-5,4.5c1.1,1.2,2.1,2.4,3,3.5c-7.1-0.3-14.3-1.1-19.3,6c-0.9,1.3-4.1,1.2-6.2,1.7
		c0-1.3,0-2.5,0-3.8c2.7-1.8,5.4-3.5,8-5.4c4.1-3.1,6.9-6.9,5.5-12.5C691.6,613.7,691.7,613.1,691.7,612.5z"/>
	<path class="st8" d="M563.5,683.5c-7.5-13.4-4.9-26.3,2.3-38.6c2.4-4,6.4-7.1,9.6-10.7c-1.1,4.1-2.3,8.1-3.2,12.2
		c-1.1,5.1-1.9,10.2-2.8,15.3c-3.9,3.1-3.6-1.4-4.9-2.8c-4.8,6.9-3.1,5.7,1,18.6C564.8,679.5,564.1,681.5,563.5,683.5z"/>
	<path class="st9" d="M642.5,632.1c7.7,2.5,10.6,9.4,13.3,15.8c2.5,5.9,3.2,12.6,4.3,19c0.7,4.6-0.9,8.9-3.7,12.7
		c-0.4-8.4-1.2-16.6-6.6-23.7c-1.6-2.2-3.3-5.7-2.7-8C648.7,641.4,645.3,637,642.5,632.1z"/>
	<path class="st10" d="M835.7,598.6c-0.9-0.9-1.8-1.8-2.5-2.4c-2.8,1.3-5.6,2.6-8.1,3.7c-0.9-0.7-1.5-1-2-1.4
		c-1.8-1.6-0.4-6.1-4.3-5.5c-4.4,0.7-2.4,4.7-2.7,7.3c-0.4,3.1-0.2,6.3-2.2,9.8c-0.6-1.2-1.6-2.4-1.7-3.6c-0.3-3.3-0.2-6.5-0.2-9.8
		l0.2-0.2c1.3-3.7,2.6-7.3,4.3-12.3c1.1,2.7,1.5,3.9,2,5c8-3.7,5.8-2.9,9.6,5.7c1.4-1.6,2.6-3.1,3.8-4.5c1.9-2.2,3.7-4.6,5.9-6.5
		c0.6-0.5,2.5,0.5,3.9,0.8C837.2,588.3,834.9,592.8,835.7,598.6L835.7,598.6z"/>
	<path class="st11" d="M646.3,707.1c0.7-0.5,2.1-1.4,2.1-1.4c3.6,4.9,9.5,5,14.6,6.9c1.7,0.6,3.3,1.6,5,2.5
		c-0.6,0.7-1.4,1.3-1.8,2.1c-3.1,6.5-3.1,6.5-9.1,4.2c-1.2-0.5-2.4-1-4-1.6c-0.5,2-1,3.8-1.5,5.7c-0.4-0.3-1.1-0.5-1.1-0.8
		c-0.8-4.1-1.3-8.3-2.2-12.4C647.9,710.4,647,708.8,646.3,707.1z"/>
	<path class="st12" d="M1072.5,640c3-0.1,4,1.7,4,4.4c0,4.9,0.2,9.9-0.2,14.7c-0.5,4.9,0.9,8.9,4.2,12.5c-7.2,1.3-14.4,2.7-21.6,3.9
		c-2.8,0.5-4.2-1.1-4-4c1.1,0.6,2.3,1.3,3.3,1.9c7.6-3,6.7-9.4,6.4-15.6c4.1,2.7,0.4,7.6,3.4,11.2c1.4,0,3.2,0,5.5,0
		c1.4-4.7,1.3-9.2-0.3-14.1C1071.6,650.2,1070.3,645.1,1072.5,640z"/>
	<path class="st13" d="M672,717c2.8,0.4,5.6,0.8,8.4,1.3c1.1-2.3,2.2-4.8,3.4-7.2c-0.9,5.4,2.7,6.3,6,6.3c0.7,4.3,1.4,7.9,2,11.5
		l0,0c-4,2.4-8,4.9-12.5,7.6c-1-2.7-2-5.3-3.2-8.5c3.4-0.8,6.3-1.4,11.1-2.5C681,722.1,676.5,719.5,672,717z"/>
	<path class="st14" d="M985.7,604.5c0.4,5.5,5.7,5.2,8.9,7.4c3,2,4.3,3.7,1,6.4c-0.7-5.9-5.3-4.3-8.2-3.4c-4.6,1.4-8.8,4-13.2,6.1
		c-1.7,0.8-3.3,1.7-6.3,3.2c2.6-8.6,10.5-8.5,15.8-13.6c-3.4,0.5-5.8,0.9-8.6,1.3c0.2-1,0.3-1.8,0.6-2.6
		C977.5,604.7,982.9,607.4,985.7,604.5z"/>
	<path class="st15" d="M678.1,636c2.1-0.5,5.2-0.3,6.2-1.7c5-7.1,12.1-6.3,19.3-6c-0.7,1.3-1.1,3.3-2.2,3.8
		c-2.1,0.9-5.3,0.3-6.8,1.7c-1.7,1.6-2.4,3.7-5,5c-2.4,1.2-3.9,2.4-6.7,1.5c-0.7-0.2-2,1.1-3,1.8C679.3,640,678.7,638,678.1,636z"/>
	<path class="st16" d="M561.6,705.1c0.7,1.6,1.3,3.3,2,4.9c0.7,1.7,1.3,3.3,2,5c-6,3.6-12,7.3-18.1,10.9c-2.7,1.6-5,0.9-6.8-1.5
		c-1.2-1.5-2.3-3.1-4.1-5.4c4.7,0,9,0.6,12.9-0.2c4-0.7,7.8-2.8,12.1-4.5C561.6,710.9,561.6,708,561.6,705.1z"/>
	<path class="st4" d="M912.7,563.1c6.1,1.1,9.1,5.8,11.9,10.5c4.5,7.7,6.3,16.2,5.7,25.1c-0.7-1.4-1.7-2.7-1.9-4.1
		c-1.3-7.4-3.7-14.2-10-18.9c-1.8-1.4-4.5-3.2-0.8-5.7C916,567.7,914.4,565.4,912.7,563.1z"/>
	<path class="st14" d="M964,600.6c2.1-4.4,6.7-2.3,9.9-4c8.8-3.1,8.8-3.1,11.8,6c-5.6-2-5.6-2-11.8,1.5
		C970.5,602.9,967.2,601.8,964,600.6z"/>
	<path class="st17" d="M565.4,677.6c-4.1-12.9-5.8-11.7-1-18.6c1.4,1.4,1,5.9,4.9,2.8C571,667.8,567,672.4,565.4,677.6z"/>
	<path class="st18" d="M713.3,616.4c-2.5-1.2-4.9-2.4-7.7-3.7c0.3-3.8,1.5-6.2,6-7.3c5.1-1.2,2.9,4.4,5.7,4.9
		C717.5,613.3,716.2,615.4,713.3,616.4z"/>
	<path class="st0" d="M1147.4,722.9c-0.7-1.4-1.4-2.7-2-4.1c-2.1-5.9-2.3-11.9-0.5-18.1c0.3,3.5,0.6,6.9,0.9,10.8
		c1.3-0.7,2.4-1.3,4.2-2.2C1152.6,714.7,1151.4,719,1147.4,722.9z"/>
	<path class="st19" d="M857.5,614.3c-1.3-5.9-2.6-11.8-3.9-17.7c0.6,0,1.3,0.1,1.9,0.1c0,3.3,1.5,5.4,4.8,5.9c2.4,0.4,3,1.9,3.1,4
		c-0.7,1.6-1.6,3.1-2,4.8C860.9,613.6,859.6,614.4,857.5,614.3z"/>
	<path class="st20" d="M536,756c-1.5,1.6-2.6,3.8-3.9,3.9c-4,0.5-8.5,1.9-11.5-2.4C524.1,753,524.1,753,536,756z"/>
	<path class="st11" d="M1111.7,660.4c-3.8,2.2-7,2.1-8.7-1.4c-0.8-1.7-0.7-4.9,0.4-6.1c1.9-2,4.3-0.5,5.6,1.6
		C1110.2,656.2,1110.8,658.3,1111.7,660.4z"/>
	<path class="st15" d="M678,665.7c-3.7-6.1-2.8-12.2-0.3-18.4c0.7-1.8,1.5-3.5,2.2-5.3c1.5,2.3,3,4.6,4.9,7.5
		C675.5,652.7,678.2,659.7,678,665.7z"/>
	<path class="st20" d="M1114.7,725.7c4.4,5.7,4.4,7.8,0.3,14.1c-3.3-1-3-3.8-3-6.4C1112,730.5,1111.4,727.4,1114.7,725.7z"/>
	<path class="st16" d="M1038.9,663.7c1.3-0.7,2.6-1.4,3.8-2c2.7,2,5.4,4,8.1,6c-0.7,5.9-5,3.5-8.2,3.7
		C1041.3,668.7,1040.1,666.2,1038.9,663.7z"/>
	<path class="st15" d="M1043.9,750c-1-4.2-2-8.3-2.8-12.4c-0.1-0.7,0.6-2,1.3-2.3c0.7-0.4,2.5-0.3,2.7,0.1c0.8,1.7,1.4,3.6,1.6,5.4
		C1047.2,746.2,1047,746.5,1043.9,750z"/>
	<path class="st21" d="M1117.9,711.1c-2.8,0.6-5.5,1.5-8.3,1.8c-2.5,0.3-5.2,0.2-6.8-2.9c3.5-1,6.7-2.1,10-2.8
		C1115.8,706.7,1118,707.6,1117.9,711.1L1117.9,711.1z"/>
	<path class="st13" d="M691.7,728.8c7.5,1,7,8.7,11.2,12.5C695.8,740,694.1,734.2,691.7,728.8L691.7,728.8z"/>
	<path class="st22" d="M539.4,729.6c3.8,0,6.7,0,9.4,0c1.5,3.3,0.3,6-2.3,6.5C542.8,736.8,541.3,733.5,539.4,729.6z"/>
	<path class="st16" d="M565.5,715c3.2-2,6.5-4,9.7-6c0.6,4.5-1.3,8-4.6,11.7C568.7,718.6,567.1,716.8,565.5,715z"/>
	<path class="st23" d="M802.3,573.1c0.7-1.4,1.4-2.8,2-4.2c0.6,2.7,1.2,5.3,1.8,8c0,5.5,0,10.9,0,16.4c-0.7,0-1.4,0-2.1,0
		c0-4.7,0.2-9.4-0.1-14.1C803.9,577.2,802.9,575.2,802.3,573.1z"/>
	<path class="st24" d="M1060.6,630.2c3.3-4.6,6.5-9.3,9.8-13.9c2.9,5.7,3.6,10.6-2.9,15c-2.4,1.6-3.2,5.6-4.9,8.8
		C1059.2,636.7,1065.5,632.6,1060.6,630.2z"/>
	<path class="st25" d="M1072.3,610.3c1.7-4.4,3.3-8.9,5.2-13.2c0.4-1,1.9-1.6,2.9-2.4c2.4,5.2,3.8,10.1-1,15.1
		c-1.7,1.8-1.8,5.1-3,8.7C1074.6,614.9,1073.5,612.6,1072.3,610.3z"/>
	<path class="st26" d="M1052.7,644c0-2.9,1.3-4.8,4-5.9c2,4.2,3.4,8.4-0.4,13.1C1055,648.5,1053.8,646.3,1052.7,644z"/>
	<path class="st15" d="M691.6,614.3c1.4,5.6-1.4,9.4-5.5,12.5c-2.6,1.9-5.3,3.6-8,5.4c-0.4-3,0.1-5.4,2.8-7.6
		C684.6,621.5,688,617.8,691.6,614.3z"/>
	<path class="st27" d="M1017.3,570.8c-1.1-3-2.3-5.9-3.2-8.9c-1.3-4.1-2.3-8.3-3.9-14.2c4.1-7.5,9-16.8,16.8-24.2
		c-1.7,7.1-1.7,7.1,0.4,10.4c-1.6,2.1-3,3.9-4.4,5.7c-0.8-0.4-1.7-0.9-3.2-1.6c-1.4,3.6-3.6,6.9-3.8,10.4c-0.2,3.6,1.4,7.3,2.4,10.9
		c0.6,2.2,1.8,4.2,4.7,3.8c-1.3,2.7-2.6,5.4-3.9,8C1018.5,571,1017.9,570.9,1017.3,570.8z"/>
	<path class="st28" d="M1033,505.9c0.6-1.7,1.2-3.3,2.6-6.9c1.4,5.8,3.4,9.7,3,13.4c-1.3,11,4.6,19.6,8.3,29
		c1.2,3.6,2.4,7.3,3.4,10.9c0.7,2.4,1.5,5.1-1.5,6.8c0.2-3.7-1.7-3.1-3.9-1.9c-0.1-5.6-1-11-4-15.8c-0.6-5.3-3.8-3.9-7.9-3.2
		c0,7.5,0,14.5,0,21.6c-2.5-11.2-2.5-22.3,0.5-33.3C1035.4,519.6,1036.8,512.7,1033,505.9z"/>
	<path class="st28" d="M841.7,584.8c0.6,1.3,1.7,2.6,1.8,3.9c0.3,2.7,1.1,4.8,3.9,5.8c-0.7,3.8-1.8,6.3-6.4,3.6
		c-1.2-0.7-3.4,0.2-5.2,0.4C834.9,592.8,837.2,588.3,841.7,584.8z"/>
	<path d="M1421.3,741.1c-0.8-4.3-1.7-8.5-2-12.9c-0.4-5.1-0.2-10.9,1-16c0.9-4.1,1.6-6.8,1-11.2c-0.6-3.5-0.1-7.2-0.7-10.8
		c-1.3-8.4,0.4-17.3-3.7-25.1c-3.1-5.8-4.1-11.7-3.4-18c-0.3-3.2-0.6-6.4-0.9-9.6c-9.5,1.1-18.5,2.1-27.5,3.3
		c-15.1,1.9-197.5,24.5-210.2,25.8c-1.9,0.2-5,0.5-5.9-1.2c0.2-1.8,5.3-2.3,8-2.6c8.4-0.9,218.9-26.4,226.7-27.1
		c2.8-0.3,5.8-1.1,8.4-2.1c2.4-0.9,2.5-3.3-0.2-4.2c-1.3-0.4-2.8-0.2-4.1,0.1c-18,3.3-227.4,29-230.4,29c-6.4,0.1-12.8,0.6-19.1,1.7
		c-0.5,0.1-0.9,0.2-1.2,0.4c-0.5,0.1-0.9,0.1-1.4,0.2c-1.9,0.2-4.5-0.1-6.2,0.7c-3.2,1.3-4.9,4.3-8.8,2.5c-2.8-1.3-6.2-1.6-9.3-2.3
		c-2.1,6.3-2.1,6.3-12.9,5.4c-0.2-2.3-0.2-4.8-0.7-7.2c-0.4-2-1.4-3.9-2.2-5.9c-0.8-0.3-2.4-0.7-2.4-1c0.1-4.5,0.1-9,0.9-13.4
		c0.3-1.8,2.6-3.3,4-4.9c1.6-1.7,2-3.3-0.4-4.6c-4.3,2.7-7,6.3-8.5,11.3c-1.3,4.4-4.1,7.5-9.4,8.6c-6,1.2-10,5.5-11.5,11.7
		c-0.5,1.9-1.3,3.7-1.4,5.6c-0.4,4.2-3.2,4.3-6.3,4.2c-7.2,1.3-14.4,2.7-21.6,3.9c-2.8,0.5-4.2-1.1-4-4c0-2.6-1.3-3.9-3.9-3.9
		l-0.1,0.1c-0.7,5.9-5,3.5-8.2,3.7c-1.3-2.7-2.5-5.2-3.7-7.7c-5.6,3.4-8.9,8.5-10.7,15.2c-3.4,0-6.7,0-11.1,0
		c2.9-6.6-0.1-13.9,7.2-18.7c3.7-2.4,4.1-7.9,0.9-12.3c-3.1-4.5-4-9.5-4.2-14.9c-0.1-2.3-1.2-4.5-1.8-6.8
		c0.2,8.7-5.1,14.8-10.6,20.2c-2.6,2.5-7.8,2.6-11.9,3.3c-0.9,0.2-2.6-1-3-2c-3-6.4-7.8-12.2-8-18.8c3.7-4.1,6.8-7.4,9.8-10.7
		c-0.7-5.9-5.3-4.3-8.2-3.4c-4.6,1.4-8.8,4-13.2,6.1c-1.7,0.8-3.3,1.7-6.3,3.2c2.6-8.6,10.5-8.5,15.8-13.6c-3.4,0.5-5.8,0.9-8.6,1.3
		c0.2-1,0.3-1.8,0.6-2.6c1.9-4.6,7.3-1.9,10.1-4.8c0-0.7,0-1.3,0-2c-5.6-2-5.6-2-11.8,1.5c-3.3-1.2-6.6-2.3-9.9-3.5
		c-4.3,0-7.4,5.5-12.6,2.8c-0.3-0.2-2.3,2.7-3.7,4.5c-2.8-1.1-5.4-2.2-8.4-3.4c-1.6,2.7-3,5.1-4.7,7.9c-5.8-2.5-3.7-7.6-4.2-11.7
		c0-0.6-0.1-1.3-0.1-1.9c-0.7-1.4-1.7-2.7-1.9-4.1c-1.3-7.4-3.7-14.2-10-18.9c-1.8-1.4-4.5-3.2-0.8-5.7c-1.6-2.3-3.3-4.6-4.9-6.9
		c-4.8-3.3-9.4-2.1-13.7,1.1c-7.4,5.5-12.4,12.5-12,22.3c0.1,2.9,0.2,6-0.3,8.8c-0.9,5-2.7,9.8-8.3,11c-7,1.6-9.2,6.5-9.9,13.7
		c-2-5.1-3.6-9.3-5.2-13.5c-0.7,1.6-1.6,3.1-2,4.8c-0.5,2.3-1.8,3.1-3.9,3c-1.4,2.3-2.8,4.7-4.8,8.1c-0.9-3.1-1.5-5-2.2-7.6
		c-2.1,0.1-4.2,0.3-6.9,0.5c-0.3-0.3-1-1-1.4-1.9c-2.2-4.9-4.3-9.9-6.5-14.8c-0.9-0.9-1.8-1.8-2.5-2.4c-2.8,1.3-5.6,2.6-8.1,3.7
		c-0.9-0.7-1.5-1-2-1.4c-1.8-1.6-0.4-6.1-4.3-5.5c-4.4,0.7-2.4,4.7-2.7,7.3c-0.4,3.1-0.2,6.3-2.2,9.8c-0.6-1.2-1.6-2.4-1.7-3.6
		c-0.3-3.3-0.2-6.5-0.2-9.8c-3.2-2.4-1.7-5.8-1.8-8.8c-0.2-4.2-0.3-8.2-4-11c0,5.5,0,10.9,0,16.4c-0.7,0-1.4,0-2.1,0
		c0-4.7,0.2-9.4-0.1-14.1c-0.1-2.1-1.1-4.1-1.7-6.1c-1,4.6-2.1,9.3-3.3,14.9c-3.9-10.3-6.8-20.8-14.4-28.6c2.5-4.5,7.4-0.5,10.8-3.3
		c-2.7-5-8.4-1.3-12.3-4c0.2-3.9,7.5-2.9,5.7-8.7c-2,0-4.2,0-6.4,0c-1.9,1.2-3.7,2.4-6.3,4.1c-1-2.8-1.9-5.3-2.7-7.7
		c-1,0.3-1.4,0.3-1.6,0.5c-6,8.8-5.9,8.8-13.8,1.3c-0.5-0.4-1.1-0.7-2.4-1.6c-0.2,7.9,3,14.5,5,21.4c-2.5,4-5,8.2-7.5,12.3
		c-4.1,0.6-8.5-2.9-12,1.3c-0.2,0.9-0.2,2-0.7,2.7c-4.8,6.4-9.6,12.7-14.6,19.3c-0.1-0.1-1.1-0.6-2.5-1.5c-2.5,4.8-6.2,8.9-6,14.9
		c0.1,3-1.1,5.1-4,6c-3.3-0.1-6.4,0.2-7.8,3.9c-1.6,1.5-3.3,3-5,4.5c1.1,1.2,2.1,2.4,3,3.5c-0.7,1.3-1.1,3.3-2.2,3.8
		c-2.1,0.9-5.3,0.3-6.8,1.7c-1.7,1.6-2.4,3.7-5,5c-2.4,1.2-3.9,2.4-6.7,1.5c-0.7-0.2-2,1.1-3,1.8c1.5,2.3,3,4.6,4.9,7.5
		c-9.3,3.2-6.6,10.1-6.8,16.1c1,4.2,4.4,2.4,6.8,2.7c3.9,14.4,4.5,28.6-1,42.6c-0.9,5.4,2.7,6.3,6,6.3c0.7,4.3,1.4,7.9,2,11.5
		c7.5,1,7,8.7,11.2,12.5c-7.2-1.3-8.9-7.1-11.2-12.5c-4,2.4-8,4.9-12.5,7.6c-1-2.7-2-5.3-3.2-8.5c3.4-0.8,6.3-1.4,11.1-2.5
		c-6-3.4-10.5-5.9-15-8.5c-1.3-0.7-2.6-1.3-4-2c-0.6,0.7-1.4,1.3-1.8,2.1c-3.1,6.5-3.1,6.5-9.1,4.2c-1.2-0.5-2.4-1-4-1.6
		c-0.5,2-1,3.8-1.5,5.7c-0.4-0.3-1.1-0.5-1.1-0.8c-0.8-4.1-1.3-8.3-2.2-12.4c-0.4-1.8-1.3-3.4-2-5.1c-1.1,1.1-2.5,2.1-3.4,3.3
		c-0.7,1-0.8,2.4-1.8,5.7c-4-9.9-6.4-18.2-8-28c10.5,3.2,17.8-0.3,23.1-8.6c-0.4-8.4-1.2-16.6-6.6-23.7c-1.6-2.2-3.3-5.7-2.7-8
		c1.7-6.5-1.7-11-4.6-15.8c-0.2-0.6-0.3-1.2-0.3-1.8c-4.7-1.9-8.5-6.1-14.9-5.7c11.2,14.4,14,30.3,13,47.5c-3.5,1.9-6.4,1.9-9.8-0.5
		c-2.5-1.7-5.9-2.2-9.4-3.4c1.1-2.9,2.2-5.8,3.2-8.5c-10,0-20,0-31.2,0c1.8,3.9,3,6.6,4.4,9.7c-5.8,2.9-11.3,5.6-17.2,8.6
		c-1.3-2.3-2.5-3.6-2.7-5c-1.8-14.3,0.3-28,7-40.8c0.9-1.6,2.7-2.7,4.1-4.1c-1-0.5-2-1.3-2.9-1.3c-1.5,0.1-3,0.9-4.5,1.4
		c-2,2-4,3.9-6,5.9c-1.1,4.1-2.3,8.1-3.2,12.2c-1.1,5.1-1.9,10.2-2.8,15.3c1.7,6-2.3,10.6-3.9,15.8c-0.6,2-1.3,3.9-1.9,5.9
		c7.8,8.9,11.6,9.7,24.8,5.3c0.1,4,0.8,8.1,0,12c-0.8,3.5-3.2,6.6-4.9,9.8c-3.1,1-4.6-5.8-8.3-1.5c0.6,4.5-1.3,8-4.6,11.7
		c-1.9-2.1-3.5-3.9-5.1-5.6c-6,3.6-12,7.3-18.1,10.9c-2.7,1.6-5,0.9-6.8-1.5c-1.2-1.5-2.3-3.1-4.1-5.4c4.7,0,9,0.6,12.9-0.2
		c4-0.7,7.8-2.8,12.1-4.5c0-3.4,0-6.3,0-9.2c0-1.2-13.3,0.4-14.6,0.7c-5.4,1.1-11,2.8-15.3,6.4c-2.8,2.3-5,5.4-7.6,8
		c-4.8,4.9-10.8,8.3-17.1,11c-23.4,10-50.2,10.5-72.9,22c-8,4-15.2,9.4-22.4,14.7c-3,2.2-6.1,4.6-7.9,7.8c-5.7,10.1-5,21-4.9,32.2
		c0.1,11.7,0.2,23.4,0.3,35.2c0.1,15,0.3,30,0.5,44.9c0,2.3,0,4.6,0.1,7c0.1,3.3-4,32.9-0.4,44.5c0.1,0.3,0,0.7,0,1
		c0.9,11.1,0.4,22.2,3.9,33.1c1.2,3.6-0.3,8.3-1.2,12.4c-0.8,3.7-3.5,7.2-0.6,11.5c2.2-0.3,4.4-0.7,6.6-0.9c3.9-0.3,8-1.3,11.6-0.4
		c16.3,4,32.7-0.8,48.9,1.2c0.3,0,0.7,0,1-0.1c9.5-3.4,18.8-1.6,28,1.3c5.5,1.7,10.8,1.9,16.4,0.2c3-0.9,6.7-1.7,9.6-0.9
		c5.4,1.4,10.4,0.2,15.5-1c7.7-1.8,15.6-3.6,23.4-1.4c5.9,1.7,11.5,1.9,17.5,1.3c3.2-0.3,6.7-0.2,9.8,0.5c14.6,3.6,29.5,1.3,44.2,2
		c1.9,0.1,3.9-0.5,5.7-1.1c12-4.2,24-5.9,36.7-3.2c6.4,1.3,12.8,2,19,4.6c3.2,1.3,7.1,1.5,10.6,1c14.3-1.7,29-0.6,42.9-5.3
		c1.2-0.4,2.6-0.4,3.9-0.4c7.9-0.1,15.7-0.1,23.6-0.1c7.6,0,15,0.1,22.2,3.3c2.9,1.3,6.4,1.2,9.6,1.3c3.3,0.2,6.7-0.7,9.8-0.1
		c11,2.1,21.4-0.5,31.9-3.4c2.5-0.7,5.3-1.5,7.7-1c8.4,1.9,16.9,1.2,25.4,1.2c12.1-0.1,24.2,2.1,36.4,0.5c2.8-0.4,5.8,1,8.7,1.2
		c9.5,0.4,19,1.1,28.4,0.8c12.4-0.5,24.7-2.3,37.1-2.7c15-0.4,30.1-1.3,45,1.6c5.4,1,10.9,1.9,16.4,2.6c3.2,0.5,6.5,0.8,9.7,1
		c13.7,0.8,26.1-5.9,39.5-7.2c5.9-0.6,11.6-1.3,17.5,0.2c13.9,3.6,28.1,5.1,43,6.6c0-2.9,211.2-1.6,245.1-6.2
		C1410.6,978,1424.3,757.4,1421.3,741.1z M532.2,759.9c-4,0.5-8.5,1.9-11.5-2.4c3.5-4.5,3.5-4.5,15.4-1.5
		C534.6,757.6,533.5,759.8,532.2,759.9z M546.5,736.1c-3.7,0.7-5.2-2.6-7.1-6.5c3.8,0,6.7,0,9.4,0
		C550.3,733,549.1,735.6,546.5,736.1z M1103.4,652.8c1.9-2,4.3-0.5,5.6,1.6c1.1,1.8,1.8,4,2.7,6c-3.8,2.2-7,2.1-8.7-1.4
		C1102.1,657.3,1102.3,654,1103.4,652.8z M1050.1,679.7c8.4-0.9,16.9-1.4,25.3-2.2c4.8-0.5,9.7-1.2,14.5-2
		c12.2-1.9,24.3-4.1,36.6-5.6c6.7-0.8,13.4-0.6,20.1-1c2.4-0.2,4.5-1.2,6.9-1.5c0.3,0,0.6-0.1,0.9-0.1c-0.2,1.2-0.4,2.4-0.6,3.7
		c-7.7,0.9-15.2,1.8-22.6,2.7c-15.1,1.9-30.3,3.9-45.4,5.7c-12.6,1.5-25.2,2.8-37.8,4.1c-1.9,0.2-3.8-0.1-5.9-1.2
		C1044.7,681.4,1047.3,680,1050.1,679.7z M1043.9,750c-1-4.2-2-8.3-2.8-12.4c-0.1-0.7,0.6-2,1.3-2.3c0.7-0.4,2.5-0.3,2.7,0.1
		c0.8,1.7,1.4,3.6,1.6,5.4C1047.2,746.2,1047,746.5,1043.9,750z M1082.4,768.4l-0.8,0.2l-0.8,0c-6.3,1.2-12.5,2.5-18.8,3.6
		c-4,0.7-8.1,1.1-12,1.6c-1.1-4.9-2.2-9.2-2.9-13.5c-0.3-1.8,0.2-3.8,0.9-5.5c1.2-2.9,2.9-5.6,4.4-8.3c0.9-7.6-4.4-12.6-7.8-18.1
		c8.1-9.7,9.4-9.1-1.2-16c2.8-5.1,8.3-2.8,12.2-4.1c4.1-1.4,8.9-0.8,13.8-1.1c1.2,8,2.3,15.4,3.4,22.6c4.8,0.5,4.5,0.5,4.6-3.8
		c0.2-6.5,0.8-12.9,1.3-19.5c4.6-3.5,9.5-3.9,15-2.3c-0.2,1.1-0.1,2.3-0.6,2.9c-6.6,6.5-6.6,6.5,0.9,13.6c-1.2,2-2.5,4.2-3.7,6.3
		c-6.2,10.9-5.5,15.5,3.8,23.7c0,0.7,0.3,1.5,0,2c-1.2,2-2.6,3.9-3.9,5.9c1.5,2.3,3.1,4.7,4.8,7.3
		C1090.7,769.4,1086.4,768,1082.4,768.4z M1102.8,710.1c3.5-1,6.7-2.1,10-2.8c2.9-0.6,5.1,0.3,5,3.8c-2.8,0.6-5.5,1.5-8.3,1.8
		C1107.1,713.3,1104.4,713.2,1102.8,710.1z M1115,739.8c-3.3-1-3-3.8-3-6.4c0-2.9-0.6-6,2.7-7.7
		C1119.1,731.3,1119.1,733.5,1115,739.8z M1119.3,765c1.2-4.1,1.8-6.3,2.5-8.6c-1.1-2.6-2.3-5.2-3.7-8.5c6.1-9.8,7.9-20-3.3-29
		c1.1-2.7,2.1-5.2,3.2-7.8c2.6-1.6,2.3-3.7,0.5-5.6c-1.3-1.4-2.9-2.3-5.3-4.1c8.4-4.4,16.5-4.6,25.6-4c0.9,5.7,1.9,11.3,2.6,17
		c0.3,2.5,0.8,4.5,3.9,4.4c-2.1-5.9-2.3-11.9-0.5-18.1c0.3,3.5,0.6,6.9,0.9,10.8c1.3-0.7,2.4-1.3,4.2-2.2c2.6,5.3,1.4,9.7-2.6,13.6
		c-2.9,5.2-2.8,10.1,1.4,14.8c1.2,1.4,1.8,3.3,2.6,5c-0.6,2.6-1.2,5.2-1.7,7.8c0.6,1.2,1.3,2.5,1.9,3.7c0.6,1.4,1.1,2.8,1.9,4.7
		C1142.7,763.7,1131.5,761.6,1119.3,765z M1170.9,733.2c-1-4.2-2-8.3-2.8-12.4c-0.1-0.7,0.6-2,1.3-2.3c0.7-0.4,2.5-0.3,2.7,0.1
		c0.8,1.7,1.4,3.6,1.6,5.4C1174.2,729.4,1174,729.7,1170.9,733.2z M1209.4,751.6l-0.8,0.2l-0.8,0c-6.3,1.2-12.5,2.5-18.8,3.6
		c-4,0.7-8.1,1.1-12,1.6c-1.1-4.9-2.2-9.2-2.9-13.5c-0.3-1.8,0.2-3.8,0.9-5.5c1.2-2.9,2.9-5.6,4.4-8.3c0.9-7.6-4.4-12.6-7.8-18.1
		c8.1-9.7,9.4-9.1-1.2-16c2.8-5.1,8.3-2.8,12.2-4.1c6.5-2.3,13.6-1.1,20.4-1.9c6.5-0.8,10.8-4.1,17.8-2.2c-0.2,1.1-0.1,2.3-0.6,2.9
		c-6.6,6.5-6.6,6.5,0.9,13.6c-1.2,2-2.5,4.2-3.7,6.3c-6.2,10.9-5.5,15.5,3.8,23.7c0,0.7,0.3,1.5,0,2c-1.2,2-2.6,3.9-3.9,5.9
		c1.5,2.3,3.1,4.7,4.8,7.3C1217.7,752.6,1213.4,751.2,1209.4,751.6z M1229.8,693.3c3.5-1,6.7-2.1,10-2.8c2.9-0.6,5.1,0.3,5,3.8
		c-2.8,0.6-5.5,1.5-8.3,1.8C1234.1,696.5,1231.4,696.4,1229.8,693.3z M1242,723c-3.3-1-3-3.8-3-6.4c0-2.9-0.6-6,2.7-7.7
		C1246.1,714.5,1246.1,716.7,1242,723z M1246.3,748.2c1.2-4.1,1.8-6.3,2.5-8.6c-1.1-2.6-2.3-5.2-3.7-8.5c6.1-9.8,7.9-20-3.3-29
		c1.1-2.7,2.1-5.2,3.2-7.8c2.6-1.6,2.3-3.7,0.5-5.6c-1.3-1.4-2.9-2.3-5.3-4.1c0.2,0.1,11.9-3.8,13.5-4c4.9-0.5,10.1-0.4,15-0.2
		c1.6,0.1,3.4,0.3,4.4,1.6c1.5,2.2-0.6,5.3,0.4,7.8c0.7,1.7,2.6,2.5,3.8,3.9c4.2,4.9-0.8,8.5-2.9,12.3c-2.9,5.2-2.8,10.1,1.4,14.8
		c1.2,1.4,1.8,3.3,2.6,5c-0.6,2.6-1.2,5.2-1.7,7.8c0.6,1.2,1.3,2.5,1.9,3.7c0.6,1.4,1.1,2.8,1.9,4.7
		C1269.7,746.9,1258.5,744.8,1246.3,748.2z M1297.8,717.2c-1-4.2-2-8.3-2.8-12.4c-0.1-0.7,0.6-2,1.3-2.3c0.7-0.4,2.5-0.3,2.7,0.1
		c0.8,1.7,1.4,3.6,1.6,5.4C1301.1,713.3,1300.9,713.7,1297.8,717.2z M1336.3,735.5l-0.8,0.2l-0.8,0c-6.3,1.2-12.5,2.5-18.8,3.6
		c-4,0.7-8.1,1.1-12,1.6c-1.1-4.9-2.2-9.2-2.9-13.5c-0.3-1.8,0.2-3.8,0.9-5.5c1.2-2.9,2.9-5.6,4.4-8.3c0.9-7.6-4.4-12.6-7.8-18.1
		c8.1-9.7,9.4-9.1-1.2-16c3-5.5,15.5-4.4,20.8-5c4.1-0.5,28.5-5.8,29.4-2.1c0.7,2.9-5,4.8-5.3,7.8c-0.2,2.1,5.8,7.5,5.7,7.6
		c-1.2,2-2.5,4.2-3.7,6.3c-6.2,10.9-5.5,15.5,3.8,23.7c0,0.7,0.3,1.5,0,2c-1.2,2-2.6,3.9-3.9,5.9c1.5,2.3,3.1,4.7,4.8,7.3
		C1344.6,736.6,1340.3,735.2,1336.3,735.5z M1356.7,677.3c3.5-1,6.7-2.1,10-2.8c2.9-0.6,5.1,0.3,5,3.8c-2.8,0.6-5.5,1.5-8.3,1.8
		C1361,680.5,1358.4,680.4,1356.7,677.3z M1368.9,707c-3.3-1-3-3.8-3-6.4c0-2.9-0.6-6,2.7-7.7C1373,698.5,1373,700.6,1368.9,707z
		 M1373.2,732.2c1.2-4.1,1.8-6.3,2.5-8.6c-1.1-2.6-2.3-5.2-3.7-8.5c6.1-9.8,7.9-20-3.3-29c1.1-2.7,2.1-5.2,3.2-7.8
		c2.6-1.6,2.3-3.7,0.5-5.6c-1.3-1.4-2.9-2.3-5.3-4.1c8.4-4.4,16.5-4.6,25.6-4c0.9,5.7,1.9,11.3,2.6,17c0.3,2.5,0.8,4.5,3.9,4.4
		c-2.1-5.9-2.3-11.9-0.5-18.1c0.3,3.5,0.6,6.9,0.9,10.8c1.3-0.7,2.4-1.3,4.2-2.2c2.6,5.3,1.4,9.7-2.6,13.6
		c-2.9,5.2-2.8,10.1,1.4,14.8c1.2,1.4,1.8,3.3,2.6,5c-0.6,2.6-1.2,5.2-1.7,7.8c0.6,1.2,1.3,2.5,1.9,3.7c0.6,1.4,1.1,2.8,1.9,4.7
		C1396.6,730.8,1385.4,728.7,1373.2,732.2z"/>
	<path class="st18" d="M1347.7-39.8c-2.4,6.9-3.6,13.5-6.7,19.1c-7.5,13.7-7.7,29.9-15.6,43.4c0.4,6-2.9,10.5-6.3,14.9
		c-1.8,4.7-3.7,9.3-5.5,14c-1.3,3.9-2.6,7.9-4,11.8c-2.8,7.4-5.6,14.8-8.5,22.3c-5.2,10.9-11.3,21.4-16.7,32.1
		c-4.8,9.5-7.2,19.7-11.3,29.2c-0.7,1.6-1.3,3.2-1.8,4.8c-0.9,2.2-1.9,4.3-3.1,6.4c0.4,6-2.9,10.5-6.3,14.9c-1.8,4.7-3.7,9.3-5.5,14
		c-1.3,3.9-2.6,7.9-4,11.8c-2.8,7.4-5.6,14.8-8.5,22.3c-1.4,2.8-3.3,5.6-4,8.6c-2.8,12.8-10.4,24.3-16.7,35.9
		c-6.7,12.3-8.8,26.6-15.9,38.6c0.4,6-2.9,10.5-6.3,14.9c-1.8,4.7-3.7,9.3-5.5,14c-1.3,3.9-2.6,7.9-4,11.8
		c-2.8,7.4-5.6,14.8-8.5,22.3c-1.4,2.8-3.3,5.6-4,8.6c-1.8,8.1-5.7,15.4-9.7,22.5c-2.8,5-9.3,12.6-9.6,18.5c0,0.7-0.3,1.6-0.6,2.6
		c-7.7,13.4-8.5,29.3-16.8,42.4c0.2,6-3.2,10.4-6.8,14.6c-2,4.6-4,9.2-6,13.8c-1.5,3.9-2.8,7.8-4.4,11.7c-3,7.3-6.1,14.6-9.2,22
		c-1.5,2.8-3.5,5.4-4.3,8.4c-1.7,6.6-4.8,12.3-9.3,17.3c-0.1,6.2-3.7,10.9-7,15.6c-1.6,2.4-4.2,4.8-4.4,7.4
		c-0.9,8.8-7,14.9-10.5,22.2c2.4,5.2,3.8,10.1-1,15.1c-1.7,1.8-1.8,5.1-3,8.7c-1.8-3.5-2.9-5.8-4.1-8.1c-0.6,2-1.2,4-1.9,6
		c2.9,5.7,3.6,10.6-2.9,15c-2.4,1.6-3.2,5.6-4.9,8.8c-3.4-3.4,2.8-7.5-2-9.9c-1.3,2.6-2.6,5.3-3.9,7.9c2,4.2,3.4,8.4-0.4,13.1
		c-1.3-2.7-2.5-5-3.6-7.3c-2.4,3.6-4.9,7.1-7.1,10.8c-1.2,2.1-2,4.6-2.9,6.9c2.7,2,5.4,4,8.1,6l0.1-0.1c3.3-5.7,6.7-11.5,10.5-17.9
		c1.4,3.5,2.3,5.8,3.2,8.2c4.1,2.7,0.4,7.6,3.4,11.2c1.4,0,3.2,0,5.5,0c1.4-4.7,1.3-9.2-0.3-14.1c-1.6-4.8-2.9-9.9-0.7-15
		c-1.3-0.9-2.5-1.9-4.3-3.2c7.9-8,13.1-17,16.9-27.1c2-5.2,6.3-9.6,9.2-14.5c1.6-2.7,2.6-5.8,3.9-8.7c1.2-2.5,2.6-5,3.9-7.5
		c3.1-6,5.5-12.2,9.5-17.9c3.4-4.8,4.4-11.4,6.9-17c2-4.4,4.7-8.4,7.1-12.5c1.4-3.9,2.8-7.8,4.1-11.7c2.6-5.3,5.2-10.6,7.8-15.9
		c1.3-3.3,2.1-6.9,4-9.8c3.5-5.2,5.5-10.4,6.4-16.8c0.8-5.8,4.7-11.3,7.2-16.9c3.3-6.2,5.6-12.7,7.1-19.4c2.7-2.8,4.2-7.9,5.4-10.6
		c1.1-2.6,2.4-5.1,3.6-7.6c4-8.5,7.3-16.5,10.1-25.2c2.7-8.3,9.2-14.7,11.8-23c1.2-4,2.5-7.9,3.7-11.9c2.4-5.4,4.8-10.8,7.2-16.1
		c1.2-3.3,1.8-7,3.6-9.9c3.3-5.3,5.2-10.6,5.8-17.1c0.6-5.9,4.3-11.4,6.6-17.1c1.3-2.6,2.3-5.2,3.3-7.9c2.5-2.8,3.9-7.6,5.1-10.2
		c1.1-2.6,2.4-5.1,3.6-7.6c2.9-6.1,5.1-12.4,8.9-18.2c3.3-4.9,4-11.5,6.3-17.2c1.8-4.4,4.4-8.5,6.7-12.8c1.2-4,2.5-7.9,3.7-11.9
		c2.4-5.4,4.8-10.8,7.2-16.1c1.2-3.3,1.8-7,3.6-9.9c3.3-5.3,5.2-10.6,5.8-17.1c0.5-4.5,2.8-8.9,4.8-13.2c3.4-2.4,5.1-8.4,6.5-11.5
		c1.1-2.6,2.4-5.1,3.6-7.6c2.9-6.1,5.1-12.4,8.9-18.2c3.3-4.9,4-11.5,6.3-17.2c1.8-4.4,4.4-8.5,6.7-12.8c1.2-4,2.5-7.9,3.7-11.9
		c2.4-5.4,4.8-10.8,7.2-16.1c1.2-3.3,1.8-7,3.6-9.9c3.3-5.3,5.2-10.6,5.8-17.1c0.6-5.9,4.3-11.4,6.6-17.1c4.4-9,6.8-18.5,7.6-28.6
		c0.6-7.7,1.8-15.3,2.8-23C1348.3-33.3,1348-36.2,1347.7-39.8z"/>
	<path class="st18" d="M1435.5,157c-10.1,11.9-13.7,27.7-24.2,39.3c-0.9,5.9-5,9.6-9.2,13.2c-2.8,4.2-5.5,8.4-8.3,12.6
		c-2.1,3.6-4.1,7.2-6.4,10.7c-4.2,6.7-8.6,13.4-12.9,20c-1.9,2.5-4.4,4.8-5.7,7.6c-6.3,14.1-18.4,25.3-28.2,37.1
		c-4.8,5.7-8.5,10.6-11.9,17.3c-2.5,5-11.6,14.8-12.3,19.6c-0.9,5.9-5,9.6-9.2,13.2c-2.8,4.2-5.5,8.4-8.3,12.6
		c-2.1,3.6-4.1,7.2-6.4,10.7c-4.2,6.7-8.6,13.4-12.9,20c-1.9,2.5-4.4,4.8-5.7,7.6c-3,6.6-8.6,12.9-12.7,18.2
		c-7.4,9.5-17.1,17.3-23.2,27.7c-3,5.1-5.3,10.5-8.1,15.7c-1.8,3.4-8.6,10.1-9.1,13.5c-0.9,5.9-5,9.6-9.2,13.2
		c-2.8,4.2-5.5,8.4-8.3,12.6c-2.1,3.6-4.1,7.2-6.4,10.7c-4.2,6.7-8.6,13.4-12.9,20c-1.9,2.5-4.4,4.8-5.7,7.6
		c-4.8,10.6-13.9,19-21.6,27.8c-5.6,6.4-15.1,18.7-17,27c-1.6,2-3.2,3.9-4.8,5.8c-1.2,2-2.5,4.1-3.7,6.1c-0.1,0.6,0,1.4-0.3,1.9
		c-4,5.8-8.1,11.4-11.9,17.2c-1.1,1.8-1.3,4.2-1.9,6.3c2.5,1.3,2,2.8,0.4,4.6c-1.4,1.6-3.7,3.1-4,4.9c-0.8,4.4-0.8,8.9-0.9,13.4
		c0,0.3,1.6,0.7,2.4,1c1.9-3.3,5-6.3,5.6-9.8c1.3-8.3,8.8-12.5,11.5-19.8c1.9-5,5.8-9.3,8.8-13.9c2.5-3.7,5-7.4,7.5-11.1
		c0.5-0.7,1-1.5,1.5-2.2c2.5-2.4,4.5-6,5.9-8c1.6-2.3,3.4-4.5,5.1-6.7c4.1-5.4,7.5-11.1,12.5-16c4.2-4.2,6.3-10.5,9.7-15.5
		c2.7-3.9,6.1-7.4,9.1-11.1c2-3.6,4.1-7.2,6.1-10.8c3.5-4.8,6.9-9.5,10.4-14.3c1.8-3,3.2-6.4,5.6-8.9c4.3-4.5,7.2-9.3,9.2-15.5
		c1.8-5.6,6.5-10.3,9.9-15.4c3.6-4.7,6.6-9.7,9-15c3.9-1.6,6.8-7.2,8.8-10c1.6-2.3,3.4-4.5,5.1-6.7c4.1-5.4,7.5-11.1,12.5-16
		c4.2-4.2,6.3-10.5,9.7-15.5c2.7-3.9,6.1-7.4,9.1-11.1c2-3.6,4.1-7.2,6.1-10.8c3.5-4.8,6.9-9.5,10.4-14.3c1.8-3,3.2-6.4,5.6-8.9
		c4.3-4.5,7.2-9.3,9.2-15.5c1.8-5.6,6.5-10.3,9.9-15.4c3.4-4.4,6.2-9.1,8.6-14c3.7-1.7,6.6-7.1,8.5-9.8c1.6-2.3,3.4-4.5,5.1-6.7
		c4.1-5.4,7.5-11.1,12.5-16c4.2-4.2,6.3-10.5,9.7-15.5c2.7-3.9,6.1-7.4,9.1-11.1c2-3.6,4.1-7.2,6.1-10.8c3.5-4.8,6.9-9.5,10.4-14.3
		c1.8-3,3.2-6.4,5.6-8.9c4.3-4.5,7.2-9.3,9.2-15.5c1.8-5.6,6.5-10.3,9.9-15.4c6.2-7.9,10.5-16.8,13.3-26.4
		c2.1-7.4,4.9-14.6,7.4-21.9c0.3-2.9,0.7-5.8,1.1-9.3C1442.3,146,1439.7,152.1,1435.5,157z"/>
</g>
<g>
	<path class="st29" d="M161.7,634.4c1.2-0.3,4.3-0.2,5.3-1.5c4.7-6,11-4.9,17.2-4.9c10.2,0,16.3,7.1,15.2,17.5
		c-0.4,3.9-0.8,7.8-1.9,11.5c-2.3,7.6-5.1,8.8-12.5,5.3c-5.1-2.4-5,2.2-6.9,4.6c-3.6-1-7.7-0.6-9.1-5.6c-0.3-1.2-4.6-1.1-5-2.3
		c-1.3-4-1.9-8.2-2.3-12.4C161.5,642.7,161.7,638.8,161.7,634.4z M194.9,640.5c-3.9-1-7.5-1.4-10.6-3c-5.6-2.8-10-0.4-14.5,2.2
		c-3.9,2.3-5.3,6.8-3.5,10.8c1.3,2.9,9.6,8.5,12.8,7.9c5.3-1,10.5-2.5,15.9-3.8C194.9,650,194.9,645.8,194.9,640.5z"/>
	<path class="st30" d="M173.6,726.6c-0.6-3.6-1.2-7.2-2-12.6c2.7,1.8,3.8,2.6,5,3.4c3.5-6-3.1-8.2-5.2-13.5c2.5,0.8,4.2,1.4,5.9,1.9
		c3-2.2,0.8-4.2-0.4-5.8c-5.8-8.1-6.9-15.7-3.5-26.2c3.9,0.8,2.8,7.7,8.1,6.5c0.2,1.1,0.7,2.3,0.7,3.4c0.4,8.2,1.4,16.4,0.8,24.5
		c-0.7,8.7,1.9,17.6-1.4,26.2C178.9,731.9,176.2,729.2,173.6,726.6z"/>
	<path class="st31" d="M173.6,726.6c2.6,2.6,5.3,5.2,7.9,7.8c4.1,4.1,4.1,4.1-1.3,10.9c6.4,6.1,12.8,12.1,20.7,19.5
		c-3.5,0.3-5.5,1.1-6.1,0.5c-10.8-11-21.4-22.1-32.1-33.3c-0.4-0.4-0.4-1.2-0.7-2.2c5.2,0,6.2,8,12.8,5.9c-1.8-2.6-3.5-4.9-5.7-8
		C171.2,727.2,172.4,726.9,173.6,726.6z"/>
	<path class="st21" d="M292.1,488c0.1,1.2,0.2,2.4,0.4,3.6c-3.8-0.7-7.7-1.2-11.4-2.3c-13.1-4-26-8.5-39.1-12.4
		c-6-1.8-12.4-2.4-18.7-5.3c1-0.4,2.1-1.4,3-1.2c20.6,4.7,41.3,9.2,61,17C288.7,488,290.5,487.8,292.1,488z"/>
	<path class="st20" d="M280.3,787.3c-1.5,1.6-2.6,3.8-3.9,3.9c-4,0.5-8.5,1.9-11.5-2.4C268.3,784.3,268.3,784.3,280.3,787.3z"/>
	<path class="st21" d="M236.7,387.3c2.5-3.4,5.6-2.8,8.6-1.1c0.9,0.5,1.3,2.2,1.7,3.4c1.2,3.1,0.1,5.7-2.2,7.9
		c-1.5-3.2-2.2,0.8-3.8,0.2c-0.2-2.6-0.1-5.4-0.7-8.1C240,388.6,238,388,236.7,387.3z"/>
	<path class="st22" d="M283.6,760.9c3.8,0,6.7,0,9.4,0c1.5,3.3,0.3,6-2.3,6.5C287,768.1,285.5,764.8,283.6,760.9z"/>
	<path class="st32" d="M311.8,458.3c0.5,1.9,1,3.8,1.4,5.8c-2.6,2.5-5.1,5.1-7.7,7.6c0.8-3.4,1.7-6.8,2.2-10.2
		C308.2,459,309.7,458.4,311.8,458.3z"/>
	<path class="st8" d="M194.9,640.5c0,5.3,0,9.5,0,14.2c-5.4,1.3-10.6,2.8-15.9,3.8c-3.1,0.6-11.5-5-12.8-7.9
		c-1.8-4.1-0.4-8.6,3.5-10.8c4.5-2.6,8.9-5,14.5-2.2C187.4,639.1,191.1,639.5,194.9,640.5z M170.3,651.6c6,0,11.4,0,16.7,0
		c3.3,0,5.8-1.2,6-4.9c0.2-3.2-2.9-5.2-7-4.8c-2.8,0.3-5.6,1.2-8.3,0.8C170.8,641.8,170.2,642.2,170.3,651.6z"/>
	<path class="st33" d="M170.3,651.6c-0.2-9.4,0.5-9.8,7.5-8.9c2.7,0.4,5.5-0.5,8.3-0.8c4.1-0.4,7.2,1.6,7,4.8
		c-0.2,3.6-2.7,4.9-6,4.9C181.7,651.6,176.4,651.6,170.3,651.6z"/>
	<path d="M305.6,782.7c-0.4-1.1-0.7-2.2-0.9-3.3c-1.4-6-18.6-75.8-21.4-74.4c2.3-1.1,4.2-1.6,5.4-2.8c1-1,1.2-2.9,1.3-4.5
		c0.1-1.9-0.2-3.8-0.4-5.5c-12.9-2.2-13-2.2-18.2-14.6c-4.6-11.2-8.9-22.4-13.3-33.7c-0.7-1.4-1.4-2.8-2.4-4.9
		c3.3-0.9,6-1.7,9.4-2.7c0-4.2,0-8.6,0-14c-3.7-0.1-7.6-0.2-11.4-0.2c-3.2,0.1-5.8-0.7-7.1-4c-5.8-13.9-11.8-27.8-17.5-41.7
		c-0.3-0.8,1.1-2.4,1.7-3.6c1.2-0.5,3.3-0.9,3.4-1.5c0.5-5.5,4.7-6.3,8.7-7.8c9.2-3.3,18.5-6.5,25.5-14.2c2.3-2.6,6-3.8,8.9-6
		c7.1-5.3,12.1-11.8,12.8-21.1c0.1-1.9,1.4-4.5,2.9-5.5c4-2.5,4.9-5.8,4.7-10c-0.2-4.3,0.1-8.6-0.3-12.8c-0.3-2.3-1.8-4.5-4.9-2.5
		c-3.8-0.7-7.7-1.2-11.4-2.3c-13.1-4-26-8.5-39.1-12.4c-6-1.8-12.4-2.4-18.7-5.3c1-0.4,2.1-1.4,3-1.2c20.6,4.7,41.3,9.2,61,17
		c1.5,0.6,3.2,0.4,4.9,0.6c4.5-5.4,9-10.8,13.5-16.3c0.8-3.4,1.7-6.8,2.2-10.2c0.4-2.5,1.9-3.1,4-3.1c-0.4-4,3.5-4.2,5.4-6.2
		c-0.8-1.6-1.3-4.3-2.5-4.7c-7.7-2.5-11.3-9.2-16.8-14.8c2.2-2.6,4.1-4.7,5.8-7c3.1-4.1,2.9-8.3-0.4-10.2c-3.2-2-7.3-0.7-9.9,3.4
		c-1.2,1.9-1.9,4-3,6.4c-15.9-7-31.6-13.9-47.8-21c0.6-2,1.4-4.4,2.1-6.7c-1.5-3.2-2.2,0.8-3.8,0.2c-0.2-2.6-0.1-5.4-0.7-8.1
		c-0.3-1-2.3-1.6-3.6-2.3c-0.8,1.7-2,3.3-2.2,5c-0.4,3.2-0.1,6.4-0.1,10.4c-11.5-2-22.2-3.9-32.9-5.8c-12-0.7-27.2-347.5-28-368.4
		c-0.5-14.7-1.2-29.3-2-44c-0.1-1.9-1.2-3.7-1.9-5.5c-8.1-2.8-43.9-29.6-51.8-24.6c1.6,10.5-1.2,23.4-1.8,34
		c-2.1,36.4-4.3,72.8-6.5,109.2c-3.2,52.9-6.3,105.7-9.4,158.6c-4.4,74.7-14.3,151.2-9.6,225.8c0.3,5,0.6,10.2-1.3,14.9
		c-4.2,10.6-17.5,14.2-28.9,13.5s-22.8-4.1-33.9-1.8C2,513.5-8.8,542.1-13,566.7c-8.8,51.7-7.3,104.3-11.7,156.4
		c-4.3,51-18.9,99.7-27,149.9c-1.7,10.7,2.8,107.6,8.5,116.8c4.5,7.3,430.3,10.8,451.2,6.7c4.4-0.8-4.7-33.1-1.4-36.1
		c3.4-3.1,4.7-7.8,5.8-12.3c6.1-23.9,12.3-48.1,11.9-72.7c-0.2-14.2-2.6-28.3-4.9-42.3c-2.6-15.5-5.2-30.9-7.8-46.4
		c-0.7-4-1.9-8.6-5.6-10c-2-0.7-4.1-0.4-6.2,0.1c-27.7,5.5-55.3,14.2-83.4,11.8c-3.5-0.3-7.4-1-9.5-3.8
		C306.3,784.2,305.9,783.5,305.6,782.7z M214.4,737.7c3.4,2.2,10.9,18,16.3,35.6c-5.6,1.1-10.3,1-15.3-2.4
		C215.1,760.1,214.7,748.8,214.4,737.7z M293,760.9c1.5,3.3,0.3,6-2.3,6.5c-3.7,0.7-5.2-2.6-7.1-6.5
		C287.5,760.9,290.3,760.9,293,760.9z M280.3,787.3c-1.5,1.6-2.6,3.8-3.9,3.9c-4,0.5-8.5,1.9-11.5-2.4
		C268.3,784.3,268.3,784.3,280.3,787.3z M274.2,770c0,1.3-0.1,2.6-0.1,3.9c-5.1,4.6-10.8,1.2-15.9,1.7c-2.9-3.8-8.7-22.4-11.2-26.2
		c6.1-2.1,12-1,18.7-0.8C268.5,755.8,271.3,762.9,274.2,770z M258.8,735.1c-6.8-0.3-12.6-0.6-18.8-0.8c-4.2-10.1-8.4-20.2-12.9-31
		c6.6,0,12.1,0,18.6,0C250.5,713.1,255.4,723.5,258.8,735.1z M209.2,649.6c0-4.2,0-8.4,0-12.7c5-1.7,8.3-1.1,10,3.7
		c1.3,3.7,2.6,7.3,4,10.9c1.8,3.3,3.6,6.7,5.4,10c3.4,8.5,6.8,16.9,10.2,25.4c2,1.9,1.8,3.6-0.9,3.8c-5.1,0.3-10.3,0.1-16,0.1
		c-4.1-9.7-8.5-19-12-28.7C208.5,658.4,209.3,653.9,209.2,649.6z M161.7,634.4c1.2-0.3,4.3-0.2,5.3-1.5c4.7-6,11-4.9,17.2-4.9
		c10.2,0,16.3,7.1,15.2,17.5c-0.4,3.9-0.8,7.8-1.9,11.5c-2.3,7.6-5.1,8.8-12.5,5.3c-5.1-2.4-5,2.2-6.9,4.6c-3.6-1-7.7-0.6-9.1-5.6
		c-0.3-1.2-4.6-1.1-5-2.3c-1.3-4-1.9-8.2-2.3-12.4C161.5,642.7,161.7,638.8,161.7,634.4z M162.7,732.1c-0.4-0.4-0.4-1.2-0.7-2.2
		c5.2,0,6.2,8,12.8,5.9c-1.8-2.6-3.5-4.9-5.7-8c2.1-0.5,3.3-0.8,4.5-1.2c-0.6-3.6-1.2-7.2-2-12.6c2.7,1.8,3.8,2.6,5,3.4
		c3.5-6-3.1-8.2-5.2-13.5c2.5,0.8,4.2,1.4,5.9,1.9c3-2.2,0.8-4.2-0.4-5.8c-5.8-8.1-6.9-15.7-3.5-26.2c3.9,0.8,2.8,7.7,8.1,6.5
		c0.2,1.1,0.7,2.3,0.7,3.4c0.4,8.2,1.4,16.4,0.8,24.5c-0.7,8.7,1.9,17.6-1.4,26.2c4.1,4.1,4.1,4.1-1.3,10.9
		c6.4,6.1,12.8,12.1,20.7,19.5c-3.5,0.3-5.5,1.1-6.1,0.5C183.9,754.4,173.3,743.2,162.7,732.1z"/>
	<g>
		<path class="st21" d="M17.9,467.8c-0.3,1.3-0.6,2.5-1,3.8c3.8-0.1,7.7,0.2,11.4-0.3c13.3-1.8,26.6-4.1,40-5.7
			c6.2-0.7,12.4-0.1,19.1-2.1c-0.9-0.6-1.8-1.9-2.7-1.9c-20.8,1-41.6,1.9-62,6.5C21.2,468.5,19.5,468,17.9,467.8z"/>
		<path class="st21" d="M88.6,371.2c-1.8-4.1-5-4-8.2-2.8c-1,0.4-1.6,2.1-2.2,3.2c-1.7,3.1-1.1,6.1,0.8,8.8c2-3.1,2,1.3,3.7,1
			c0.6-2.7,1-5.8,2.1-8.4C85.2,372,87.3,371.8,88.6,371.2z"/>
		<path class="st32" d="M3.8,432.6c-0.8,2-1.6,3.9-2.4,5.9c2,3.2,4.1,6.3,6.1,9.5c-0.2-3.8-0.5-7.5-0.4-11.3
			C7.2,434,5.9,433,3.8,432.6z"/>
		<path d="M67.3,568.6c8.6,4.9,17,9.2,23.8,13.4c3.4,2.1,6.9,4.2,10.7,5c3.7,0.8,7.6,0.2,11.3-0.3c15.4-2.2,30.9-4.4,46.3-6.5
			c5.7-0.8,11.9-2,15.4-7c2.1-3,2.7-7,3.2-10.8c2.1-14.7,4.1-29.4,6-44.1c3.1-24.8,5.9-50,2.3-74.7c-2.6-17.7-9.7-36.2-24.2-44.4
			c-20.5-11.6-51.6-11-74-11.1c0.7-4.2,1.5-7.6,1.7-11.1c0.1-1.9-0.8-3.8-1.3-5.8c-1.3,0.6-3.4,0.8-3.9,1.8
			c-1.1,2.7-1.5,5.7-2.1,8.4c-1.7,0.3-1.6-4.1-3.7-1c0.3,2.7,0.6,5.3,0.9,7.6c-16.9,4.5-33.3,8.8-49.9,13.2
			c-0.6-2.7-0.9-5.2-1.8-7.4c-1.8-4.9-5.6-7-9.1-5.5c-3.5,1.5-4.4,5.9-2.1,10.8c1.3,2.8,2.8,5.4,4.5,8.6
			c-6.2,4.9-10.9,11.3-18.8,12.5c-1.2,0.2-2.1,3-3.2,4.6c1.5,2.5,5.3,3.4,4.2,7.6c2.1,0.4,3.4,1.4,3.3,4.1c0,3.8,0.3,7.5,0.4,11.3
			c3.4,6.6,6.9,13.2,10.3,19.9c1.6,0.1,3.3,0.7,4.8,0.3c20.5-4.6,41.3-5.5,62-6.5c0.9,0,1.8,1.2,2.7,1.9c-6.6,1.9-12.9,1.3-19.1,2.1
			c-13.4,1.6-26.7,3.9-40,5.7c-3.8,0.5-7.6,0.2-11.4,0.3c-2.6-2.6-4.5-0.7-5.2,1.8c-1.2,4.4-1.6,9-2.5,13.5
			c-0.9,4.5-0.6,8.2,2.9,11.6c1.3,1.3,2.1,4.3,1.9,6.4c-0.9,10,2.8,17.9,8.8,24.9c2.4,2.8,5.8,4.9,7.6,8.1
			C37.8,550.5,52.7,560.3,67.3,568.6z"/>
	</g>
</g>
</svg>
