<?xml version="1.0" encoding="utf-8"?>
<!-- Generator: Adobe Illustrator 21.1.0, SVG Export Plug-In . SVG Version: 6.00 Build 0)  -->
<svg version="1.1" id="Layer_1" xmlns="http://www.w3.org/2000/svg" xmlns:xlink="http://www.w3.org/1999/xlink" x="0px" y="0px"
	 viewBox="0 0 1402 800" style="enable-background:new 0 0 1402 800;" xml:space="preserve">
<style type="text/css">
	.st0{fill:#FCF3C0;}
	.st1{fill:#F2DD9E;}
	.st2{fill:#E5BD8C;}
	.st3{fill:#926665;}
	.st4{opacity:0.5;fill:#926665;}
	.st5{fill:none;}
</style>
<g>
	<path class="st0" d="M585.2,89.4c0,0-18.5-1.3-27.4-6.8c-1.5-0.9-17.4,0.2-24.3,3.8c-1.5,0.8-22.8,16-22.6,18.3
		c0.1,2.3,12.6,23.4,12.6,23.4L585.2,89.4z"/>
	<path class="st1" d="M589.3,89.8c-0.6,0-35.2-0.6-37.8,0s-8.2,3.9-9.4,4.6c-1.2,0.7-17.8,12.7-18.3,14.7
		c-0.4,1.9,1.5,10.6,1.5,10.6L589.3,89.8z"/>
	<path class="st1" d="M529.8,109.3c-0.3-0.4-23.4-41.1-23.4-41.1s1.3,4.5,1.3,5.2c0,0.7-0.4,11-0.6,13.6s-1.9,4.5-2.1,5.4
		c-0.1,0.9,0.3,2.2,0,3.1s-0.7,2.1-2.2,2.4s-5.1,1.6-5.7,1.8c-0.6,0.1-0.7,1.2,0,1.8s4.5,6,3.6,10s-4.3,5.6-5.7,5.9
		c-1.3,0.3-2.5,0-2.5,0s-0.7,2,0,2.1c0.7,0.1,3.3,2.1,3.3,3.3s-0.4,4.5-1.5,4.9c-1,0.4-6.6,0.7-6.6,0.7s-1.8,0.7,1.5,0.8
		c3.3,0.1,34.6,0,34.6,0L529.8,109.3z"/>
	<path class="st0" d="M639.3,103.2l-4-12.2c0,0-7,0.8-7.8,4.3c-0.8,3.5,3.7,7.9,3.7,7.9H639.3z"/>
	<path class="st0" d="M658.8,106.3c0,0,1.2,14.4,1,17.2s0,19,0,19s14.8-12.1,15.3-12.3c0.4-0.1,31-9,31-9l-31.5-3.3L658.8,106.3z"/>
	<path class="st1" d="M659.9,142.6c0,0-0.2-16.2,0-19l46.3-2.2c0,0-30.6,8.8-31,9C674.7,130.4,659.9,142.6,659.9,142.6z"/>
	<polygon class="st0" points="659.8,113.5 651,101.8 646.2,106.3 	"/>
	<path class="st2" d="M640.7,104.5c0,0,5.5,0.4,8.5,1.8c3,1.3,10.6,7.2,10.6,7.2l4.9,9.8l-4.9,11.9l-38,28.8c0,0-23.8,8.1-28.6,8.1
		s-37.3-1.8-44.4-4.9c-7-3.1-24.1-13.6-28.9-22.6c-4.8-9-1.6-21.4,0.9-25.2c2.5-3.7,17.7-19.3,34.2-25.3c16.5-6,35.8-10,58.2-3.7
		C635.4,96.6,638.3,102.9,640.7,104.5z"/>
	<path class="st1" d="M649.2,106.3c3,1.3,10.6,7.2,10.6,7.2l4.9,9.8l-4.9,11.9l-16.4,12.4c-2.1-5.9-4.1-13.9-4.1-23.2
		c0-7.7,1.3-14.4,3-19.8C644.1,104.9,647.2,105.4,649.2,106.3z"/>
	<path class="st3" d="M520.8,119.4c2.5-3.7,17.7-19.3,34.2-25.3c16.5-6,35.8-10,58.2-3.7c22.3,6.3,25.2,12.6,27.6,14.2
		c0,0,5.1,0.4,8.2,1.6l-1.9,20c-2.4,2.3-14.7,11.8-15.6,13.3s-3.6,1.2-4.1,0.6c-0.4-0.6-4.9-4.6-10.2-4c-5.2,0.6-15,8.8-16.5,9.1
		c-1.5,0.3-3.1,1-3.6,0c-0.4-1-9.3-13.2-13.3-12.3c-4,0.9-11.2,13.6-12.4,14.2c-1.2,0.6-3,1.8-4.8,0.6c-1.8-1.2-7.5-7.4-14.2-6.5
		c-6.7,0.9-6,6.5-7.8,6.5s-2.5,0.3-3.3-0.8c-0.7-1-6.4-7.9-8.7-7.2c-2.2,0.7-7.2,4.6-7.2,4.6l-5.7-0.4
		C515.2,135,518.3,123,520.8,119.4z"/>
	<path class="st3" d="M630,138.2c0,1.6,0.8,13,1.3,18.6l-1.6,1.2c-0.7-5.3-2.4-17.3-2.4-19.2C627.3,136.4,630,136.1,630,138.2z"/>
	<path class="st3" d="M599.2,145.1c0.7,1.5,6.6,16,9.5,23.1c-0.6,0.2-1.2,0.4-1.8,0.6c-3.3-7.3-9.4-21.6-9.8-23.7
		C596.6,142.7,598.3,143.2,599.2,145.1z"/>
	<path class="st3" d="M573.1,170.9c-1.5-4.6-6.7-21.2-6.7-23.2c0-2.4,2.4-1.8,2.4,0c0,1.6,4.8,18.9,6,23.4
		C574.3,171,573.7,171,573.1,170.9z"/>
	<path class="st3" d="M543.7,146c0.6,1.3,5.4,16,7.3,21.9c-0.9-0.2-1.6-0.5-2.2-0.7c-0.1,0-0.2-0.1-0.3-0.1
		c-1.9-4.5-7.3-18.1-7.3-20.1C541.1,144.5,542.9,144.4,543.7,146z"/>
	<path class="st0" d="M517.4,131.9c-1.2,0.3-25.1,5.5-25.1,5.5v3.6h27.6l48.1-7.6L517.4,131.9z"/>
	<path class="st4" d="M523.7,172.1c-1.6-1.2-7.4-2.2-7.4-2.2s9-0.6,8.2-2c-0.7-1.3-6.4-4.2-6.4-4.2l11.2-8.9
		c6.8,5.5,15.1,10.4,19.5,12.3c3.9,1.7,15.6,3.1,26.1,3.9l0,0L534,182.8l-2.4-3l-4-0.7c0,0,1.8-4.2,0.6-4.3
		c-1.2-0.1-6.4,0.3-6.4,0.3S525.3,173.3,523.7,172.1z"/>
	<path class="st3" d="M523.7,172.1c-1.6-1.2-7.4-2.2-7.4-2.2s9-0.6,8.2-2c-0.7-1.3-6.4-4.2-6.4-4.2l7.2-5.7h0
		c-1.8-0.6-4.3-7.2-5.8-9.8c-1.5-2.6-3.1-7.1-3.1-7.1h2.2c0.4,1.2,0.8,2.3,1.4,3.4c2.1,4,6.8,8.4,11.8,12.2c0,0,0,0,0,0c0,0,0,0,0,0
		c0.4,0.3,0.8,0.6,1.1,0.8c0,0,0,0,0.1,0c0.4,0.3,0.7,0.5,1.1,0.8c0,0,0,0,0.1,0c0.4,0.3,0.8,0.5,1.1,0.8c0,0,0,0,0,0
		c2.4,1.6,4.7,3.1,6.9,4.4c0.1,0,0.1,0.1,0.2,0.1c0.3,0.2,0.6,0.3,0.9,0.5c0.1,0,0.2,0.1,0.3,0.1c0.2,0.1,0.5,0.3,0.7,0.4
		c0.1,0.1,0.2,0.1,0.3,0.2c0.2,0.1,0.4,0.2,0.7,0.4c0.1,0.1,0.2,0.1,0.3,0.2c0.2,0.1,0.4,0.2,0.6,0.3c0.1,0.1,0.2,0.1,0.3,0.2
		c0.2,0.1,0.4,0.2,0.6,0.3c0.1,0.1,0.2,0.1,0.3,0.2c0.2,0.1,0.4,0.2,0.6,0.3c0.1,0,0.2,0.1,0.2,0.1c0.3,0.1,0.5,0.2,0.7,0.3
		c0.2,0.1,0.5,0.2,0.8,0.3c0.1,0,0.2,0.1,0.3,0.1c0.2,0.1,0.4,0.1,0.6,0.2c0.1,0,0.3,0.1,0.4,0.1c0.2,0.1,0.4,0.1,0.7,0.2
		c0.2,0,0.3,0.1,0.5,0.1c0.2,0.1,0.5,0.1,0.7,0.2c0.2,0,0.4,0.1,0.5,0.1c0.3,0.1,0.5,0.1,0.8,0.2c0.2,0,0.4,0.1,0.6,0.1
		c0.3,0.1,0.6,0.1,0.9,0.2c0.2,0,0.4,0.1,0.6,0.1c0.3,0.1,0.7,0.1,1,0.2c0.2,0,0.4,0.1,0.6,0.1c0.4,0.1,0.8,0.1,1.2,0.2
		c0.1,0,0.3,0,0.4,0.1c1.7,0.2,3.6,0.5,5.5,0.7c0.1,0,0.2,0,0.2,0c0.6,0.1,1.1,0.1,1.7,0.2c0.1,0,0.2,0,0.3,0
		c0.5,0.1,1.1,0.1,1.6,0.2c0.1,0,0.2,0,0.3,0c0.5,0.1,1.1,0.1,1.7,0.2c0.1,0,0.2,0,0.3,0c0.6,0.1,1.2,0.1,1.7,0.2c0.1,0,0.1,0,0.2,0
		c0.6,0.1,1.3,0.1,1.9,0.2l0,0L534,182.8l-2.4-3l-4-0.7c0,0,1.8-4.2,0.6-4.3c-1.2-0.1-6.4,0.3-6.4,0.3S525.3,173.3,523.7,172.1z"/>
	<path class="st2" d="M623.9,180.2c0,0,4.6-1.5,8.1-1.6c3.4-0.1,10-0.9,10.2,0c0.1,0.9,0.3,2.5,0,3.3c-0.3,0.7-7.6,7.5-8.5,7.9
		s-8.6,6.1-8.5,7.2s-2.6,7.9-3.6,8.7c-1,0.7-5.2,1.5-6,1.8c-0.7,0.3-19.8,10.5-21.4,10.6c-1.6,0.1-24.6-0.9-27.6-1
		c-3-0.1-23.5,0.1-25.3-0.3c-1.8-0.4-7-2.5-7.3-3.9c-0.3-1.3-0.7-4.6,0-4.9c0.7-0.3,2.7,1.8,2.7,1.8s5.1,0.9,5.5,0
		c0.4-0.9,1.2-4.8,0.7-7.2s-2.7-3.6-2.7-6.1c0-2.5,0-4.8,0-4.8s16.8-4.3,26.4-4.3c9.6,0,19-1.2,25.5-2.1
		C598.4,184.3,619.9,181.3,623.9,180.2z"/>
	<path class="st3" d="M517.4,188c2-0.7,9.1-2.4,10.6-2.2c1.5,0.1,5.7-1.5,5.7-1.5l0.6-3l5.1-1.2l0.7,5.1l3.3-1.6
		c0,0-0.4-2.1,0.9-4.6c1.3-2.5,8.4-4.2,8.4-4.2c4.3,1.5,11.7,6.9,11.7,10c0,1,0.1,1.8,0.3,2.6c-9.8,0.5-24.6,4.3-24.6,4.3
		s0,0.9,0,2.2h-1.6c0,0-0.1,2.1-0.7,2.1s-2.2,0.3-2.8-1.9c-0.6-2.2-3.1-0.4-3.4,0.1c-0.3,0.6-7,11.1-7.6,10.8
		c-0.6-0.3-3.3-1-3.3-3.6c0-2.5,0.1-6.4,1.8-7.9c1.6-1.5-1,0.6-1.8,0.1c-0.7-0.4-5.1-1-5.2-2.2C515.1,190.1,515.3,188.8,517.4,188z"
		/>
	<path class="st3" d="M621.9,161.9c1.3,2.8,3.4,12.7,3.1,15.7c-0.3,3-1.5,11.5-2.4,13c-0.9,1.5-7.3,13.3-8.4,12.7s-3.9-2.1-3.4-3.1
		c0.4-1,7.9-10.6,8.1-12.6s3.1-11.7,3-17.7c-0.1-6-0.1-6-0.1-6L621.9,161.9z"/>
</g>
<rect class="st5" width="1402" height="800"/>
</svg>
